<svg width="512" height="512" viewBox="0 0 512 512" fill="none" xmlns="http://www.w3.org/2000/svg">
<g filter="url(#filter0_i_0_3)">
<rect width="512" height="512" rx="130" fill="url(#paint0_radial_0_3)"/>
<rect x="13.5" y="13.5" width="485" height="485" rx="116.5" stroke="url(#paint1_linear_0_3)" stroke-width="27"/>
<rect x="193" y="274" width="125" height="23" rx="11.5" fill="white"/>
<path d="M103.089 125.274C108.66 120.152 117.694 120.152 123.265 125.274L195.957 192.098C202.056 197.704 202.056 206.794 195.957 212.401L186.823 220.798L103.089 143.822C97.5168 138.7 97.5168 130.396 103.089 125.274Z" fill="white"/>
<path d="M103.088 279.726C97.5168 274.604 97.5168 266.3 103.088 261.178L186.823 184.202L195.221 191.922C201.726 197.903 201.726 207.599 195.221 213.579L123.265 279.726C117.694 284.848 108.66 284.848 103.088 279.726Z" fill="white"/>
</g>
<defs>
<filter id="filter0_i_0_3" x="0" y="-7" width="516" height="519" filterUnits="userSpaceOnUse" color-interpolation-filters="sRGB">
<feFlood flood-opacity="0" result="BackgroundImageFix"/>
<feBlend mode="normal" in="SourceGraphic" in2="BackgroundImageFix" result="shape"/>
<feColorMatrix in="SourceAlpha" type="matrix" values="0 0 0 0 0 0 0 0 0 0 0 0 0 0 0 0 0 0 127 0" result="hardAlpha"/>
<feOffset dx="4" dy="-7"/>
<feGaussianBlur stdDeviation="81.45"/>
<feComposite in2="hardAlpha" operator="arithmetic" k2="-1" k3="1"/>
<feColorMatrix type="matrix" values="0 0 0 0 0 0 0 0 0 0 0 0 0 0 0 0 0 0 1 0"/>
<feBlend mode="normal" in2="shape" result="effect1_innerShadow_0_3"/>
</filter>
<radialGradient id="paint0_radial_0_3" cx="0" cy="0" r="1" gradientUnits="userSpaceOnUse" gradientTransform="translate(227.25 236.75) rotate(61.0757) scale(469.861)">
<stop stop-color="#4B4B4B"/>
<stop offset="0.595067" stop-color="#3E3E3E"/>
<stop offset="1" stop-color="#353535"/>
</radialGradient>
<linearGradient id="paint1_linear_0_3" x1="256" y1="0" x2="553.5" y2="619.5" gradientUnits="userSpaceOnUse">
<stop stop-color="#D2D2D2"/>
<stop offset="1" stop-color="#414141"/>
</linearGradient>
</defs>
</svg>
