<svg width="512" height="512" viewBox="0 0 512 512" fill="none" xmlns="http://www.w3.org/2000/svg">
<rect width="512" height="512" rx="130" fill="#A5ADB6"/>
<path d="M206.207 113.547C219.841 90.9446 226.658 79.6436 234.701 74.5836C247.72 66.394 264.281 66.394 277.299 74.5836C285.343 79.6436 292.16 90.9446 305.794 113.547C310.828 121.892 313.344 126.064 316.551 129.36C321.707 134.659 328.231 138.426 335.399 140.242C339.856 141.37 344.728 141.464 354.472 141.651C380.863 142.157 394.058 142.41 402.462 146.846C416.064 154.026 424.344 168.368 423.761 183.737C423.401 193.233 417.022 204.787 404.265 227.896C399.555 236.428 397.2 240.693 395.949 245.118C393.938 252.233 393.938 259.767 395.949 266.882C397.2 271.307 399.555 275.572 404.265 284.104C417.022 307.213 423.401 318.767 423.761 328.263C424.344 343.632 416.064 357.974 402.462 365.154C394.058 369.59 380.863 369.843 354.472 370.349C344.728 370.536 339.856 370.63 335.399 371.758C328.231 373.574 321.707 377.341 316.551 382.64C313.344 385.936 310.828 390.108 305.794 398.453C292.16 421.055 285.343 432.356 277.299 437.416C264.281 445.606 247.72 445.606 234.701 437.416C226.658 432.356 219.841 421.055 206.207 398.453C201.173 390.108 198.656 385.936 195.45 382.64C190.294 377.341 183.769 373.574 176.602 371.758C172.144 370.63 167.273 370.536 157.529 370.349C131.138 369.843 117.942 369.59 109.539 365.154C95.9369 357.974 87.6564 343.632 88.2395 328.263C88.5998 318.767 94.9783 307.213 107.735 284.104C112.445 275.572 114.8 271.307 116.051 266.882C118.063 259.767 118.063 252.233 116.051 245.118C114.8 240.693 112.445 236.428 107.735 227.896C94.9783 204.787 88.5998 193.233 88.2395 183.737C87.6564 168.368 95.9369 154.026 109.539 146.846C117.942 142.41 131.138 142.157 157.529 141.651C167.273 141.464 172.144 141.37 176.602 140.242C183.769 138.426 190.294 134.659 195.45 129.36C198.656 126.064 201.173 121.892 206.207 113.547Z" fill="#ECF5FF"/>
<rect x="177.5" y="177.5" width="156.983" height="156.983" rx="78.4917" stroke="#A5ADB6" stroke-width="21"/>
</svg>
