<svg width="512" height="512" viewBox="0 0 512 512" fill="none" xmlns="http://www.w3.org/2000/svg">
<g clip-path="url(#clip0_0_150)">
<rect width="512" height="512" rx="130" fill="url(#paint0_linear_0_150)"/>
<rect x="80" y="118" width="351" height="21" rx="10.5" fill="url(#paint1_radial_0_150)"/>
<rect x="81" y="288" width="351" height="21" rx="10.5" fill="url(#paint2_radial_0_150)"/>
<rect x="80" y="203" width="351" height="21" rx="10.5" fill="url(#paint3_radial_0_150)"/>
<rect x="81" y="373" width="351" height="21" rx="10.5" fill="url(#paint4_radial_0_150)"/>
<rect x="-22" y="292" width="557" height="306" fill="#727272" fill-opacity="0.38"/>
<rect x="-22" y="292" width="557" height="306" fill="#727272" fill-opacity="0.38"/>
<g filter="url(#filter0_f_0_150)">
<rect x="-22" y="270" width="557" height="22" fill="#FF6969"/>
</g>
<rect x="-22" y="263" width="557" height="25" fill="#FF0000"/>
</g>
<defs>
<filter id="filter0_f_0_150" x="-74" y="218" width="661" height="126" filterUnits="userSpaceOnUse" color-interpolation-filters="sRGB">
<feFlood flood-opacity="0" result="BackgroundImageFix"/>
<feBlend mode="normal" in="SourceGraphic" in2="BackgroundImageFix" result="shape"/>
<feGaussianBlur stdDeviation="26" result="effect1_foregroundBlur_0_150"/>
</filter>
<linearGradient id="paint0_linear_0_150" x1="256" y1="-7.07805e-06" x2="493.5" y2="623" gradientUnits="userSpaceOnUse">
<stop stop-color="#D8D8D8"/>
<stop offset="1" stop-color="#464646"/>
</linearGradient>
<radialGradient id="paint1_radial_0_150" cx="0" cy="0" r="1" gradientUnits="userSpaceOnUse" gradientTransform="translate(255.5 128.5) rotate(90) scale(10.5 175.5)">
<stop stop-color="#555555"/>
<stop offset="1" stop-color="#6F6F6F"/>
</radialGradient>
<radialGradient id="paint2_radial_0_150" cx="0" cy="0" r="1" gradientUnits="userSpaceOnUse" gradientTransform="translate(256.5 298.5) rotate(90) scale(10.5 175.5)">
<stop stop-color="#555555"/>
<stop offset="1" stop-color="#6F6F6F"/>
</radialGradient>
<radialGradient id="paint3_radial_0_150" cx="0" cy="0" r="1" gradientUnits="userSpaceOnUse" gradientTransform="translate(255.5 213.5) rotate(90) scale(10.5 175.5)">
<stop stop-color="#555555"/>
<stop offset="1" stop-color="#6F6F6F"/>
</radialGradient>
<radialGradient id="paint4_radial_0_150" cx="0" cy="0" r="1" gradientUnits="userSpaceOnUse" gradientTransform="translate(256.5 383.5) rotate(90) scale(10.5 175.5)">
<stop stop-color="#555555"/>
<stop offset="1" stop-color="#6F6F6F"/>
</radialGradient>
<clipPath id="clip0_0_150">
<rect width="512" height="512" rx="130" fill="white"/>
</clipPath>
</defs>
</svg>
