<?xml version="1.0" encoding="UTF-8" standalone="no"?>
<svg
   width="3840"
   height="3840"
   viewBox="0 0 3840 3840"
   fill="none"
   version="1.1"
   id="svg4"
   sodipodi:docname="esterify-desktop.svg"
   inkscape:version="1.3.2 (091e20e, 2023-11-25, custom)"
   inkscape:export-filename="esterify-desktop.png"
   inkscape:export-xdpi="96"
   inkscape:export-ydpi="96"
   xmlns:inkscape="http://www.inkscape.org/namespaces/inkscape"
   xmlns:sodipodi="http://sodipodi.sourceforge.net/DTD/sodipodi-0.dtd"
   xmlns="http://www.w3.org/2000/svg"
   xmlns:svg="http://www.w3.org/2000/svg">
  <defs
     id="defs4">
    <clipPath
       clipPathUnits="userSpaceOnUse"
       id="clipPath3">
      <rect
         style="display:inline;fill:#000000"
         id="rect3"
         width="3840"
         height="3840"
         x="0"
         y="0"
         rx="699.99908"
         ry="699.99908" />
    </clipPath>
  </defs>
  <sodipodi:namedview
     id="namedview4"
     pagecolor="#ffffff"
     bordercolor="#000000"
     borderopacity="0.25"
     inkscape:showpageshadow="2"
     inkscape:pageopacity="0.0"
     inkscape:pagecheckerboard="0"
     inkscape:deskcolor="#d1d1d1"
     inkscape:zoom="0.07734375"
     inkscape:cx="1978.1818"
     inkscape:cy="911.51515"
     inkscape:window-width="1920"
     inkscape:window-height="1017"
     inkscape:window-x="-8"
     inkscape:window-y="-8"
     inkscape:window-maximized="1"
     inkscape:current-layer="svg4" />
  <g
     id="g2"
     clip-path="url(#clipPath3)">
    <rect
       style="fill:#ce4a4a;stroke-width:1.47976;fill-opacity:1"
       id="rect2"
       width="1086.1201"
       height="6101.7139"
       x="-0.0098558608"
       y="-3050.8569"
       rx="0"
       ry="0"
       transform="rotate(45)" />
    <rect
       style="fill:#eaaf41;stroke-width:1.47976;fill-opacity:1"
       id="rect2-0"
       width="1086.1201"
       height="6101.7139"
       x="1086.1112"
       y="-3050.8569"
       rx="0"
       ry="0"
       transform="rotate(45)" />
    <rect
       style="fill:#48a56a;stroke-width:1.47976;fill-opacity:1"
       id="rect2-0-0"
       width="1086.1201"
       height="6101.7139"
       x="2172.2285"
       y="-3050.8569"
       rx="0"
       ry="0"
       transform="rotate(45)" />
    <rect
       style="fill:#6688c3;stroke-width:1.47976;fill-opacity:1"
       id="rect2-0-0-3"
       width="1086.1201"
       height="6101.7139"
       x="3258.3496"
       y="-3050.8569"
       rx="0"
       ry="0"
       transform="rotate(45)" />
    <rect
       style="fill:#b25da6;stroke-width:1.47976;fill-opacity:1"
       id="rect2-0-0-3-5"
       width="1086.1201"
       height="6101.7139"
       x="4344.4697"
       y="-3050.8569"
       rx="0"
       ry="0"
       transform="rotate(45)" />
  </g>
  <path
     style="fill:#48a56a;fill-opacity:1;stroke:#ffffff;stroke-width:270.343;stroke-linecap:round;stroke-linejoin:round;stroke-dasharray:none;stroke-opacity:1"
     d="m 1705.7228,1416.6041 -612.8629,163.9428 c -57.5684,16.6575 -95.81064,51.6079 -119.78714,100.0604 -47.91909,100.6987 -0.9098,173.9416 74.96374,238.8359 l 371.3177,214.4077 165.2616,615.7385 c 12.7793,49.5021 42.2897,94.2753 99.0482,118.6951 96.4934,41.5153 178.6439,13.581 239.2492,-74.8522 l 212.7944,-371.0378 612.8625,-163.9426 c 55.698,-17.7762 96.8979,-49.8745 119.7874,-100.0607 35.7765,-95.2413 15.4608,-176.0551 -74.9637,-238.8361 l -371.3174,-214.4074 -165.262,-615.7387 c -22.3148,-47.8588 -42.4786,-97.38518 -99.0482,-118.69468 -103.8847,-34.91613 -184.383,-11.8219 -239.2491,74.85188 z"
     id="path5"
     sodipodi:nodetypes="ccccccscccccccccc" />
</svg>
