<svg width="512" height="512" viewBox="0 0 512 512" fill="none" xmlns="http://www.w3.org/2000/svg">
<rect width="512" height="512" rx="130" fill="#00E05E"/>
<g filter="url(#filter0_i_0_20)">
<path d="M237 380C237 390.493 245.507 399 256 399C266.493 399 275 390.493 275 380H237ZM269.435 118.565C262.015 111.145 249.985 111.145 242.565 118.565L121.65 239.48C114.23 246.9 114.23 258.93 121.65 266.35C129.07 273.77 141.1 273.77 148.52 266.35L256 158.87L363.48 266.35C370.9 273.77 382.93 273.77 390.35 266.35C397.77 258.93 397.77 246.9 390.35 239.48L269.435 118.565ZM275 380L275 132H237L237 380H275Z" fill="#98FFC3"/>
</g>
<defs>
<filter id="filter0_i_0_20" x="116.085" y="113" width="287.831" height="290" filterUnits="userSpaceOnUse" color-interpolation-filters="sRGB">
<feFlood flood-opacity="0" result="BackgroundImageFix"/>
<feBlend mode="normal" in="SourceGraphic" in2="BackgroundImageFix" result="shape"/>
<feColorMatrix in="SourceAlpha" type="matrix" values="0 0 0 0 0 0 0 0 0 0 0 0 0 0 0 0 0 0 127 0" result="hardAlpha"/>
<feOffset dx="8" dy="4"/>
<feGaussianBlur stdDeviation="14.2"/>
<feComposite in2="hardAlpha" operator="arithmetic" k2="-1" k3="1"/>
<feColorMatrix type="matrix" values="0 0 0 0 1 0 0 0 0 1 0 0 0 0 1 0 0 0 1 0"/>
<feBlend mode="normal" in2="shape" result="effect1_innerShadow_0_20"/>
</filter>
</defs>
</svg>
