<svg width="512" height="512" viewBox="0 0 512 512" fill="none" xmlns="http://www.w3.org/2000/svg">
<rect width="512" height="512" rx="130" fill="url(#paint0_linear_1_259)"/>
<path d="M256 343.461C304.325 343.461 343.5 304.286 343.5 255.961C343.5 207.636 304.325 168.461 256 168.461C207.675 168.461 168.5 207.636 168.5 255.961C168.5 304.286 207.675 343.461 256 343.461Z" fill="white"/>
<path d="M256 168.5H407.53C392.175 141.895 370.086 119.803 343.484 104.443C316.883 89.0828 286.706 80.9975 255.988 80.9996C225.271 81.0018 195.095 89.0913 168.496 104.455C141.896 119.818 119.811 141.914 104.459 168.521L180.224 299.75L180.292 299.732C172.585 286.442 168.518 271.354 168.5 255.99C168.483 240.626 172.516 225.53 180.194 212.222C187.871 198.913 198.921 187.865 212.23 180.189C225.539 172.513 240.636 168.481 256 168.5Z" fill="url(#paint1_linear_1_259)"/>
<path d="M256 325.271C294.257 325.271 325.271 294.257 325.271 256C325.271 217.743 294.257 186.729 256 186.729C217.743 186.729 186.729 217.743 186.729 256C186.729 294.257 217.743 325.271 256 325.271Z" fill="#1A73E8"/>
<path d="M331.77 299.771L256.005 431C286.722 431.004 316.9 422.921 343.502 407.563C370.105 392.205 392.195 370.114 407.552 343.511C422.909 316.907 430.991 286.73 430.985 256.012C430.98 225.295 422.887 195.12 407.521 168.523H255.992L255.974 168.59C271.337 168.561 286.438 172.582 299.752 180.249C313.066 187.916 324.124 198.957 331.81 212.26C339.496 225.563 343.54 240.657 343.533 256.021C343.526 271.385 339.468 286.475 331.77 299.771Z" fill="url(#paint2_linear_1_259)"/>
<path d="M180.229 299.773L104.465 168.544C89.1019 195.144 81.0134 225.32 81.0122 256.037C81.0111 286.755 89.0974 316.931 104.458 343.532C119.819 370.134 141.912 392.222 168.517 407.576C195.122 422.93 225.301 431.009 256.018 431L331.783 299.771L331.734 299.722C324.078 313.042 313.045 324.108 299.748 331.805C286.451 339.502 271.36 343.557 255.996 343.562C240.633 343.567 225.539 339.522 212.237 331.834C198.935 324.146 187.895 313.088 180.229 299.773Z" fill="url(#paint3_linear_1_259)"/>
<defs>
<linearGradient id="paint0_linear_1_259" x1="256" y1="-4.63426e-06" x2="411.5" y2="495" gradientUnits="userSpaceOnUse">
<stop stop-color="white"/>
<stop offset="1" stop-color="#EDEDED"/>
</linearGradient>
<linearGradient id="paint1_linear_1_259" x1="104.459" y1="190.375" x2="407.53" y2="190.375" gradientUnits="userSpaceOnUse">
<stop stop-color="#D93025"/>
<stop offset="1" stop-color="#EA4335"/>
</linearGradient>
<linearGradient id="paint2_linear_1_259" x1="232.097" y1="428.66" x2="383.632" y2="166.194" gradientUnits="userSpaceOnUse">
<stop stop-color="#FCC934"/>
<stop offset="1" stop-color="#FBBC04"/>
</linearGradient>
<linearGradient id="paint3_linear_1_259" x1="274.944" y1="420.073" x2="123.409" y2="157.606" gradientUnits="userSpaceOnUse">
<stop stop-color="#1E8E3E"/>
<stop offset="1" stop-color="#34A853"/>
</linearGradient>
</defs>
</svg>
