<svg width="512" height="512" viewBox="0 0 512 512" fill="none" xmlns="http://www.w3.org/2000/svg">
<rect width="512" height="512" rx="130" fill="white"/>
<g filter="url(#filter0_di_0_121)">
<path d="M110.038 129.667C111.23 118.483 120.667 110 131.914 110H345.654C357.103 110 366.639 118.781 367.58 130.191L388.036 378.191C389.094 391.011 378.974 402 366.111 402H105.47C92.3972 402 82.2084 390.667 83.5945 377.667L110.038 129.667Z" fill="url(#paint0_linear_0_121)"/>
</g>
<g filter="url(#filter1_di_0_121)">
<ellipse cx="273" cy="184.5" rx="80" ry="55.5" fill="#919191"/>
</g>
<g filter="url(#filter2_d_0_121)">
<path d="M224.8 325.3C226.533 331.567 231.233 334.7 238.9 334.7C243.833 334.7 247.567 333.033 250.1 329.7L260.5 335.7C255.567 342.833 248.3 346.4 238.7 346.4C230.433 346.4 223.8 343.9 218.8 338.9C213.8 333.9 211.3 327.6 211.3 320C211.3 312.467 213.767 306.2 218.7 301.2C223.633 296.133 229.967 293.6 237.7 293.6C245.033 293.6 251.067 296.133 255.8 301.2C260.6 306.267 263 312.533 263 320C263 321.667 262.833 323.433 262.5 325.3H224.8ZM224.6 315.3H250.1C249.367 311.9 247.833 309.367 245.5 307.7C243.233 306.033 240.633 305.2 237.7 305.2C234.233 305.2 231.367 306.1 229.1 307.9C226.833 309.633 225.333 312.1 224.6 315.3ZM279.952 309.2C279.952 310.533 280.819 311.633 282.552 312.5C284.352 313.3 286.519 314.033 289.052 314.7C291.586 315.3 294.119 316.1 296.652 317.1C299.186 318.033 301.319 319.633 303.052 321.9C304.852 324.167 305.752 327 305.752 330.4C305.752 335.533 303.819 339.5 299.952 342.3C296.152 345.033 291.386 346.4 285.652 346.4C275.386 346.4 268.386 342.433 264.652 334.5L275.852 328.2C277.319 332.533 280.586 334.7 285.652 334.7C290.252 334.7 292.552 333.267 292.552 330.4C292.552 329.067 291.652 328 289.852 327.2C288.119 326.333 285.986 325.567 283.452 324.9C280.919 324.233 278.386 323.4 275.852 322.4C273.319 321.4 271.152 319.833 269.352 317.7C267.619 315.5 266.752 312.767 266.752 309.5C266.752 304.567 268.552 300.7 272.152 297.9C275.819 295.033 280.352 293.6 285.752 293.6C289.819 293.6 293.519 294.533 296.852 296.4C300.186 298.2 302.819 300.8 304.752 304.2L293.752 310.2C292.152 306.8 289.486 305.1 285.752 305.1C284.086 305.1 282.686 305.467 281.552 306.2C280.486 306.933 279.952 307.933 279.952 309.2ZM339.184 307.4H327.884V328.2C327.884 329.933 328.317 331.2 329.184 332C330.05 332.8 331.317 333.267 332.984 333.4C334.65 333.467 336.717 333.433 339.184 333.3V345C330.317 346 324.05 345.167 320.384 342.5C316.784 339.833 314.984 335.067 314.984 328.2V307.4H306.284V295H314.984V284.9L327.884 281V295H339.184V307.4ZM355.616 325.3C357.35 331.567 362.05 334.7 369.716 334.7C374.65 334.7 378.383 333.033 380.916 329.7L391.316 335.7C386.383 342.833 379.116 346.4 369.516 346.4C361.25 346.4 354.616 343.9 349.616 338.9C344.616 333.9 342.116 327.6 342.116 320C342.116 312.467 344.583 306.2 349.516 301.2C354.45 296.133 360.783 293.6 368.516 293.6C375.85 293.6 381.883 296.133 386.616 301.2C391.416 306.267 393.816 312.533 393.816 320C393.816 321.667 393.65 323.433 393.316 325.3H355.616ZM355.416 315.3H380.916C380.183 311.9 378.65 309.367 376.316 307.7C374.05 306.033 371.45 305.2 368.516 305.2C365.05 305.2 362.183 306.1 359.916 307.9C357.65 309.633 356.15 312.1 355.416 315.3ZM413.722 303.6C414.922 300.4 416.889 298 419.622 296.4C422.422 294.8 425.522 294 428.922 294V308.4C424.989 307.933 421.455 308.733 418.322 310.8C415.255 312.867 413.722 316.3 413.722 321.1V345H400.822V295H413.722V303.6Z" fill="black"/>
</g>
<defs>
<filter id="filter0_di_0_121" x="69.4681" y="96" width="350.644" height="338" filterUnits="userSpaceOnUse" color-interpolation-filters="sRGB">
<feFlood flood-opacity="0" result="BackgroundImageFix"/>
<feColorMatrix in="SourceAlpha" type="matrix" values="0 0 0 0 0 0 0 0 0 0 0 0 0 0 0 0 0 0 127 0" result="hardAlpha"/>
<feOffset dx="9" dy="9"/>
<feGaussianBlur stdDeviation="11.5"/>
<feComposite in2="hardAlpha" operator="out"/>
<feColorMatrix type="matrix" values="0 0 0 0 0 0 0 0 0 0 0 0 0 0 0 0 0 0 0.13 0"/>
<feBlend mode="normal" in2="BackgroundImageFix" result="effect1_dropShadow_0_121"/>
<feBlend mode="normal" in="SourceGraphic" in2="effect1_dropShadow_0_121" result="shape"/>
<feColorMatrix in="SourceAlpha" type="matrix" values="0 0 0 0 0 0 0 0 0 0 0 0 0 0 0 0 0 0 127 0" result="hardAlpha"/>
<feOffset dx="9" dy="4"/>
<feGaussianBlur stdDeviation="6.05"/>
<feComposite in2="hardAlpha" operator="arithmetic" k2="-1" k3="1"/>
<feColorMatrix type="matrix" values="0 0 0 0 1 0 0 0 0 1 0 0 0 0 1 0 0 0 1 0"/>
<feBlend mode="normal" in2="shape" result="effect2_innerShadow_0_121"/>
</filter>
<filter id="filter1_di_0_121" x="192" y="129" width="168" height="120" filterUnits="userSpaceOnUse" color-interpolation-filters="sRGB">
<feFlood flood-opacity="0" result="BackgroundImageFix"/>
<feColorMatrix in="SourceAlpha" type="matrix" values="0 0 0 0 0 0 0 0 0 0 0 0 0 0 0 0 0 0 127 0" result="hardAlpha"/>
<feOffset dx="-1" dy="9"/>
<feComposite in2="hardAlpha" operator="out"/>
<feColorMatrix type="matrix" values="0 0 0 0 0.530094 0 0 0 0 0.530094 0 0 0 0 0.530094 0 0 0 1 0"/>
<feBlend mode="normal" in2="BackgroundImageFix" result="effect1_dropShadow_0_121"/>
<feBlend mode="normal" in="SourceGraphic" in2="effect1_dropShadow_0_121" result="shape"/>
<feColorMatrix in="SourceAlpha" type="matrix" values="0 0 0 0 0 0 0 0 0 0 0 0 0 0 0 0 0 0 127 0" result="hardAlpha"/>
<feOffset dx="7" dy="4"/>
<feGaussianBlur stdDeviation="9.9"/>
<feComposite in2="hardAlpha" operator="arithmetic" k2="-1" k3="1"/>
<feColorMatrix type="matrix" values="0 0 0 0 1 0 0 0 0 1 0 0 0 0 1 0 0 0 1 0"/>
<feBlend mode="normal" in2="shape" result="effect2_innerShadow_0_121"/>
</filter>
<filter id="filter2_d_0_121" x="197.3" y="267" width="263.622" height="111.5" filterUnits="userSpaceOnUse" color-interpolation-filters="sRGB">
<feFlood flood-opacity="0" result="BackgroundImageFix"/>
<feColorMatrix in="SourceAlpha" type="matrix" values="0 0 0 0 0 0 0 0 0 0 0 0 0 0 0 0 0 0 127 0" result="hardAlpha"/>
<feOffset dx="9" dy="9"/>
<feGaussianBlur stdDeviation="11.5"/>
<feComposite in2="hardAlpha" operator="out"/>
<feColorMatrix type="matrix" values="0 0 0 0 0 0 0 0 0 0 0 0 0 0 0 0 0 0 0.13 0"/>
<feBlend mode="normal" in2="BackgroundImageFix" result="effect1_dropShadow_0_121"/>
<feBlend mode="normal" in="SourceGraphic" in2="effect1_dropShadow_0_121" result="shape"/>
</filter>
<linearGradient id="paint0_linear_0_121" x1="235.5" y1="110" x2="10.5" y2="425.5" gradientUnits="userSpaceOnUse">
<stop stop-color="#DCDCDC"/>
<stop offset="1" stop-color="#424242"/>
</linearGradient>
</defs>
</svg>
