<svg width="6008" height="2326" viewBox="0 0 6008 2326" fill="none" xmlns="http://www.w3.org/2000/svg">
<rect width="6008" height="2326" fill="#F5F5F5"/>
<g filter="url(#filter0_i_0_1)">
<rect x="1854" width="512" height="512" rx="130" fill="url(#paint0_radial_0_1)"/>
<rect x="1867.5" y="13.5" width="485" height="485" rx="116.5" stroke="url(#paint1_linear_0_1)" stroke-width="27"/>
<rect x="2047" y="274" width="125" height="23" rx="11.5" fill="white"/>
<path d="M1957.09 125.274C1962.66 120.152 1971.69 120.152 1977.27 125.274L2049.96 192.098C2056.06 197.704 2056.06 206.794 2049.96 212.401L2040.82 220.798L1957.09 143.822C1951.52 138.7 1951.52 130.396 1957.09 125.274Z" fill="white"/>
<path d="M1957.09 279.726C1951.52 274.604 1951.52 266.3 1957.09 261.178L2040.82 184.202L2049.22 191.922C2055.73 197.903 2055.73 207.599 2049.22 213.579L1977.27 279.726C1971.69 284.848 1962.66 284.848 1957.09 279.726Z" fill="white"/>
</g>
<rect x="4326" width="512" height="512" rx="130" fill="white"/>
<g filter="url(#filter1_i_0_1)">
<g filter="url(#filter2_b_0_1)">
<path d="M4406 140C4406 132.268 4412.27 126 4420 126H4574.72C4577.86 126 4580.91 127.057 4583.38 129.002L4624 161L4622.32 177.639C4621.6 184.79 4615.58 190.232 4608.39 190.232H4406V140Z" fill="#EE6A19"/>
</g>
<g filter="url(#filter3_b_0_1)">
<path d="M4406 185.052H4576.76C4585.18 185.052 4593.31 182.019 4599.67 176.509L4608.59 168.792C4614.95 163.282 4623.08 160.249 4631.5 160.249H4723C4742.33 160.249 4758 175.919 4758 195.249V349.001C4758 368.883 4741.88 385.001 4722 385.001H4441C4421.67 385.001 4406 369.331 4406 350.001V185.052Z" fill="#FFAE01"/>
</g>
</g>
<g clip-path="url(#clip0_0_1)">
<rect width="512" height="512" rx="130" fill="url(#paint2_linear_0_1)"/>
<path d="M80.9683 253.313C95.9479 240.473 118.052 240.473 133.032 253.313L257.478 359.982C277.921 377.503 265.529 411 238.606 411H-24.6055C-51.5293 411 -63.9205 377.503 -43.4785 359.982L80.9683 253.313Z" fill="url(#paint3_linear_0_1)"/>
<path d="M113.372 372.559L335.846 200.961C355.734 185.621 383.413 185.438 403.502 200.514L513.516 283.074C518.857 287.082 522 293.37 522 300.047L517.431 544H-56V351.405L85.7318 249.692L72.4445 260.84L40.887 288.153L20.4255 308.008C16.6968 311.626 13.2862 315.558 10.2312 319.76L5.89907 325.719C1.61097 331.618 -1.44692 338.319 -3.09267 345.424L-3.87957 348.821C-6.19081 358.798 -4.99517 369.267 -0.493793 378.467L-0.211071 379.044C3.26822 386.155 8.67212 392.147 15.3866 396.34C22.1095 400.538 29.8762 402.764 37.8022 402.764H42.9784C50.7869 402.764 58.5213 401.249 65.753 398.304L75.5178 394.328C89.0602 388.812 101.794 381.49 113.372 372.559Z" fill="#E3F4FF"/>
<rect x="80" y="94" width="93" height="93" rx="46.5" fill="white"/>
</g>
<g clip-path="url(#clip1_0_1)">
<rect x="5496" width="512" height="512" rx="130" fill="url(#paint4_linear_0_1)"/>
<path d="M5576.97 253.313C5591.95 240.473 5614.05 240.473 5629.03 253.313L5753.48 359.982C5773.92 377.503 5761.53 411 5734.61 411H5471.39C5444.47 411 5432.08 377.503 5452.52 359.982L5576.97 253.313Z" fill="url(#paint5_linear_0_1)"/>
<path d="M5609.37 372.559L5831.85 200.961C5851.73 185.621 5879.41 185.438 5899.5 200.514L6009.52 283.074C6014.86 287.082 6018 293.37 6018 300.047L6013.43 544H5440V351.405L5581.73 249.692L5568.44 260.84L5536.89 288.153L5516.43 308.008C5512.7 311.626 5509.29 315.558 5506.23 319.76L5501.9 325.719C5497.61 331.618 5494.55 338.319 5492.91 345.424L5492.12 348.821C5489.81 358.798 5491 369.267 5495.51 378.467L5495.79 379.044C5499.27 386.155 5504.67 392.147 5511.39 396.34C5518.11 400.538 5525.88 402.764 5533.8 402.764H5538.98C5546.79 402.764 5554.52 401.249 5561.75 398.304L5571.52 394.328C5585.06 388.812 5597.79 381.49 5609.37 372.559Z" fill="#E3F4FF"/>
<rect x="5576" y="94" width="93" height="93" rx="46.5" fill="white"/>
</g>
<rect x="1236" width="512" height="512" rx="130" fill="white"/>
<g filter="url(#filter4_i_0_1)">
<path d="M1665 250.72C1665 222.024 1665 207.676 1659.06 196.876C1654.67 188.894 1648.11 182.325 1640.12 177.937C1629.32 172 1614.98 172 1586.28 172H1488.52C1462.81 172 1449.96 172 1440.28 177.319C1433.13 181.25 1427.25 187.134 1423.32 194.285C1418 203.959 1418 216.813 1418 242.52V301.48C1418 327.187 1418 340.041 1423.32 349.715C1427.25 356.866 1433.13 362.75 1440.28 366.681C1449.96 372 1462.81 372 1488.52 372H1554.35C1561.39 372 1564.91 372 1568.33 372.558C1570.9 372.975 1573.43 373.625 1575.88 374.5C1579.15 375.667 1582.23 377.366 1588.4 380.765L1621.23 398.866C1636.24 407.142 1643.74 411.28 1649.87 410.291C1654.34 409.569 1658.38 407.184 1661.18 403.612C1665 398.726 1665 390.155 1665 373.015V250.72Z" fill="#0FF66C"/>
</g>
<g filter="url(#filter5_i_0_1)">
<path d="M1319 192.72C1319 164.024 1319 149.676 1324.94 138.876C1329.33 130.894 1335.89 124.325 1343.88 119.937C1354.68 114 1369.02 114 1397.72 114H1495.48C1521.19 114 1534.04 114 1543.72 119.319C1550.87 123.25 1556.75 129.134 1560.68 136.285C1566 145.959 1566 158.813 1566 184.52V243.48C1566 269.187 1566 282.041 1560.68 291.715C1556.75 298.866 1550.87 304.75 1543.72 308.681C1534.04 314 1521.19 314 1495.48 314H1429.65C1422.61 314 1419.09 314 1415.67 314.558C1413.1 314.975 1410.57 315.625 1408.12 316.5C1404.85 317.667 1401.77 319.366 1395.6 322.765L1362.77 340.866C1347.76 349.142 1340.26 353.28 1334.13 352.291C1329.66 351.569 1325.62 349.184 1322.82 345.612C1319 340.726 1319 332.155 1319 315.015V192.72Z" fill="#0066FF"/>
</g>
<rect x="4326" y="605" width="512" height="512" rx="130" fill="#00E05E"/>
<g filter="url(#filter6_i_0_1)">
<path d="M4563 985C4563 995.493 4571.51 1004 4582 1004C4592.49 1004 4601 995.493 4601 985H4563ZM4595.44 723.565C4588.02 716.145 4575.98 716.145 4568.56 723.565L4447.65 844.48C4440.23 851.9 4440.23 863.93 4447.65 871.35C4455.07 878.77 4467.1 878.77 4474.52 871.35L4582 763.87L4689.48 871.35C4696.9 878.77 4708.93 878.77 4716.35 871.35C4723.77 863.93 4723.77 851.9 4716.35 844.48L4595.44 723.565ZM4601 985V737H4563V985H4601Z" fill="#98FFC3"/>
</g>
<rect x="4944" y="605" width="512" height="512" rx="130" fill="#00E05E"/>
<g filter="url(#filter7_i_0_1)">
<path d="M5043.19 900.648C5030.25 853.095 5023.77 829.318 5036.08 813.212C5048.39 797.105 5073.03 797.105 5122.31 797.105H5276.56C5326.72 797.105 5351.79 797.105 5364.09 813.52C5376.39 829.935 5369.35 854.002 5355.26 902.136L5335.1 971.031C5326.79 999.425 5322.64 1013.62 5311.71 1021.81C5300.78 1030 5285.99 1030 5256.4 1030H5141.07C5110.94 1030 5095.87 1030 5084.85 1021.58C5073.83 1013.16 5069.87 998.618 5061.95 969.543L5043.19 900.648Z" fill="#ACFFCF"/>
<rect x="5123.24" y="705.5" width="153.428" height="201.455" rx="76.7141" stroke="#ACFFCF" stroke-width="25"/>
</g>
<rect x="3708" y="605" width="512" height="512" rx="130" fill="#00A0FF"/>
<g filter="url(#filter8_di_0_1)">
<path d="M3789 763L3987.02 900.188C4036.61 934.545 4061.41 951.723 4056.37 967.861C4051.32 984 4021.16 984 3960.83 984H3946.59H3851C3821.77 984 3807.16 984 3798.08 974.92C3789 965.841 3789 951.227 3789 922V763Z" fill="#72CEFF"/>
</g>
<g filter="url(#filter9_di_0_1)">
<path d="M3824 984L4139 768V922C4139 951.227 4139 965.841 4129.92 974.92C4120.84 984 4106.23 984 4077 984H3993.51H3824Z" fill="#A6E1FD"/>
</g>
<g filter="url(#filter10_di_0_1)">
<path d="M3789 766.061C3789 750.563 3801.56 738 3817.06 738H4107.01C4124.68 738 4139 752.322 4139 769.99L4014.79 869.253C3994.5 885.472 3984.35 893.581 3972.41 893.78C3960.47 893.979 3950.06 886.211 3929.23 870.677L3789 766.061Z" fill="white"/>
</g>
<rect x="3090" y="1210" width="512" height="512" rx="130" fill="url(#paint6_linear_0_1)"/>
<line y1="-11" x2="219.305" y2="-11" transform="matrix(0.00454141 0.99999 -0.999994 0.00360918 3325 1220.7)" stroke="url(#paint7_linear_0_1)" stroke-width="22" stroke-dasharray="23 23"/>
<line x1="3357" y1="1210" x2="3357" y2="1418.6" stroke="url(#paint8_linear_0_1)" stroke-width="22" stroke-dasharray="23 23"/>
<rect x="3090" y="605" width="512" height="512" rx="130" fill="#00E05E"/>
<g filter="url(#filter11_d_0_1)">
<rect x="3275.02" y="701" width="140.21" height="140.696" rx="70.1052" fill="white" fill-opacity="0.87" shape-rendering="crispEdges"/>
</g>
<g filter="url(#filter12_d_0_1)">
<ellipse cx="129.182" cy="62.0523" rx="129.182" ry="62.0523" transform="matrix(0.705655 -0.708555 0.705655 0.708555 3279.11 982.065)" fill="#70FF00"/>
<ellipse cx="129.182" cy="62.0523" rx="129.182" ry="62.0523" transform="matrix(0.705655 0.708555 -0.705655 0.708555 3231.58 799)" fill="white" fill-opacity="0.87"/>
</g>
<rect x="618" width="512" height="512" rx="130" fill="#A5ADB6"/>
<path d="M824.207 113.547C837.841 90.9446 844.658 79.6436 852.701 74.5836C865.72 66.394 882.281 66.394 895.299 74.5836C903.343 79.6436 910.16 90.9446 923.794 113.547C928.828 121.892 931.344 126.064 934.551 129.36C939.707 134.659 946.231 138.426 953.399 140.242C957.856 141.37 962.728 141.464 972.472 141.651C998.863 142.157 1012.06 142.41 1020.46 146.846C1034.06 154.026 1042.34 168.368 1041.76 183.737C1041.4 193.233 1035.02 204.787 1022.27 227.896C1017.56 236.428 1015.2 240.693 1013.95 245.118C1011.94 252.233 1011.94 259.767 1013.95 266.882C1015.2 271.307 1017.56 275.572 1022.27 284.104C1035.02 307.213 1041.4 318.767 1041.76 328.263C1042.34 343.632 1034.06 357.974 1020.46 365.154C1012.06 369.59 998.863 369.843 972.472 370.349C962.728 370.536 957.856 370.63 953.399 371.758C946.231 373.574 939.707 377.341 934.551 382.64C931.344 385.936 928.828 390.108 923.794 398.453C910.16 421.055 903.343 432.356 895.299 437.416C882.281 445.606 865.72 445.606 852.701 437.416C844.658 432.356 837.841 421.055 824.207 398.453C819.173 390.108 816.656 385.936 813.45 382.64C808.294 377.341 801.769 373.574 794.602 371.758C790.144 370.63 785.273 370.536 775.529 370.349C749.138 369.843 735.942 369.59 727.539 365.154C713.937 357.974 705.656 343.632 706.24 328.263C706.6 318.767 712.978 307.213 725.735 284.104C730.445 275.572 732.8 271.307 734.051 266.882C736.063 259.767 736.063 252.233 734.051 245.118C732.8 240.693 730.445 236.428 725.735 227.896C712.978 204.787 706.6 193.233 706.24 183.737C705.656 168.368 713.937 154.026 727.539 146.846C735.942 142.41 749.138 142.157 775.529 141.651C785.273 141.464 790.144 141.37 794.602 140.242C801.769 138.426 808.294 134.659 813.45 129.36C816.656 126.064 819.173 121.892 824.207 113.547Z" fill="#ECF5FF"/>
<rect x="795.5" y="177.5" width="156.983" height="156.983" rx="78.4917" stroke="#A5ADB6" stroke-width="21"/>
<rect x="3090" width="512" height="512" rx="130" fill="white"/>
<rect x="3301" y="112" width="25" height="289" rx="12.5" fill="#5C6776"/>
<rect x="3354" y="136" width="25" height="241" rx="12.5" fill="#FF4F4F"/>
<rect x="3250" y="190" width="25" height="133" rx="12.5" fill="#5C6776"/>
<rect x="3405" y="211" width="26" height="106" rx="13" fill="#ECECEC"/>
<rect x="3203" y="226" width="25" height="61" rx="12.5" fill="#5C6776"/>
<rect x="3458" y="226" width="25" height="61" rx="12.5" fill="#ECECEC"/>
<rect x="3162" y="233" width="25" height="47" rx="12.5" fill="#5C6776"/>
<rect x="3505" y="233" width="25" height="47" rx="12.5" fill="#ECECEC"/>
<rect x="2472" width="512" height="512" rx="130" fill="#00A0FF"/>
<g filter="url(#filter13_i_0_1)">
<rect x="2653" y="88" width="150" height="150" rx="75" fill="#B8E5FF"/>
<path d="M2831.96 416.637C2865.87 413.91 2893.34 384.417 2879.52 353.331C2871.27 334.791 2859.19 317.946 2843.97 303.756C2828.74 289.567 2810.66 278.311 2790.76 270.632C2770.86 262.952 2749.54 259 2728 259C2706.46 259 2685.14 262.952 2665.24 270.632C2645.34 278.311 2627.26 289.567 2612.03 303.756C2596.81 317.946 2584.73 334.791 2576.48 353.331C2562.66 384.417 2590.13 413.91 2624.04 416.637L2651.58 418.853C2702.45 422.944 2753.55 422.944 2804.42 418.853L2831.96 416.637Z" fill="#B8E5FF"/>
</g>
<g clip-path="url(#clip2_0_1)">
<rect y="605" width="512" height="512" rx="130" fill="#FFD742"/>
<g filter="url(#filter14_i_0_1)">
<rect x="101" y="724" width="309" height="15" rx="7.5" fill="#FFC100"/>
</g>
<g filter="url(#filter15_i_0_1)">
<rect x="101" y="826" width="309" height="15" rx="7.5" fill="#FFC100"/>
</g>
<g filter="url(#filter16_i_0_1)">
<rect x="101" y="928" width="309" height="15" rx="7.5" fill="#FFC100"/>
</g>
<path d="M118 943.488C118 937.976 119.751 932.607 123.001 928.156L231.771 779.184C243.754 762.772 268.246 762.772 280.229 779.184L388.999 928.156C392.249 932.607 394 937.976 394 943.488V1328.5C394 1342.86 382.359 1354.5 368 1354.5H144C129.641 1354.5 118 1342.86 118 1328.5V943.488Z" fill="url(#paint9_linear_0_1)"/>
<path d="M118 940.715C118 935.764 119.67 930.958 122.74 927.074L136.973 909.066C139.426 905.962 143.465 904.574 147.309 905.514L154.091 907.172C223.605 924.171 296.255 923.617 365.501 905.559C369.192 904.596 373.101 905.934 375.429 908.956L389.43 927.137C392.393 930.985 394 935.704 394 940.56V1145.95C394 1158.1 384.15 1167.95 372 1167.95H140C127.85 1167.95 118 1158.1 118 1145.95V940.715Z" fill="url(#paint10_linear_0_1)"/>
<path d="M240.667 767.825L245.732 761.302C250.937 754.599 261.063 754.599 266.268 761.302L271.333 767.825L287.846 789.65H224.154L240.667 767.825Z" fill="#545454"/>
</g>
<rect x="4944" width="512" height="512" rx="130" fill="#FF5968"/>
<g filter="url(#filter17_i_0_1)">
<path d="M5312.91 294.496C5312.91 372.128 5248.22 435.061 5168.43 435.061C5088.64 435.061 5023.95 372.128 5023.95 294.496C5023.95 216.863 5088.64 153.93 5168.43 153.93C5248.22 153.93 5312.91 216.863 5312.91 294.496ZM5100.52 294.496C5100.52 330.985 5130.92 360.565 5168.43 360.565C5205.93 360.565 5236.34 330.985 5236.34 294.496C5236.34 258.006 5205.93 228.426 5168.43 228.426C5130.92 228.426 5100.52 258.006 5100.52 294.496Z" fill="white"/>
<path d="M5260.02 157.674C5256.66 140.079 5254.98 131.282 5259.42 124.892C5263.87 118.502 5272.7 117.015 5290.36 114.041L5370.76 100.506C5376.28 99.5769 5381.61 103.282 5382.66 108.782C5389.57 144.967 5365.72 179.259 5329.4 185.375L5284.18 192.987C5274.86 194.556 5265.87 188.304 5264.1 179.023L5260.02 157.674Z" fill="#FFCCCC"/>
<path d="M5230.77 207.066C5230.77 167.749 5230.77 148.09 5242.24 134.426C5253.71 120.762 5273.3 117.317 5312.48 110.427L5312.48 289.085L5230.77 228.918L5230.77 207.066Z" fill="white"/>
</g>
<rect x="618" y="605" width="512" height="512" rx="130" fill="#3D3D3D"/>
<g filter="url(#filter18_i_0_1)">
<circle cx="871" cy="861" r="185" fill="#2F2F2F"/>
</g>
<circle cx="871" cy="861" r="173" stroke="black" stroke-width="24"/>
<g filter="url(#filter19_i_0_1)">
<circle cx="871" cy="861" r="166" stroke="url(#paint11_linear_0_1)" stroke-width="38"/>
</g>
<rect x="784" y="774" width="175" height="175" rx="87.5" stroke="#353535" stroke-width="21"/>
<g filter="url(#filter20_i_0_1)">
<rect x="1020" y="676" width="43" height="43" rx="21.5" fill="#FF5968"/>
</g>
<rect x="3708" width="512" height="512" rx="130" fill="url(#paint12_linear_0_1)"/>
<g filter="url(#filter21_b_0_1)">
<circle cx="4058.5" cy="206.5" r="89.5" fill="#FF6107"/>
</g>
<g filter="url(#filter22_i_0_1)">
<path d="M3779 281.733C3779 336.845 3820.5 375.318 3875.5 381.523C3934.48 391.117 3994.59 391.6 4053.72 382.953L4063.5 381.523C4109 376.352 4144 344.253 4144 298.278C4144 252.304 4105.17 215.034 4060.71 215.034C4056.89 163.546 4015.27 123 3964.5 123C3925.28 123 3891.52 147.197 3876.43 181.943H3876.5C3823.2 181.943 3779 226.621 3779 281.733Z" fill="url(#paint13_linear_0_1)"/>
</g>
<rect x="1236" y="605" width="512" height="512" rx="130" fill="#E1E1E1"/>
<g filter="url(#filter23_i_0_1)">
<rect x="1507" y="668" width="178" height="385" rx="89" fill="url(#paint14_linear_0_1)"/>
<rect x="1300" y="668" width="178" height="186" rx="52" fill="white"/>
<rect x="1300" y="867" width="178" height="186" rx="52" fill="white"/>
<rect x="1558" y="830" width="77" height="13" rx="6.5" fill="white"/>
<rect x="1351" y="755" width="77" height="13" rx="6.5" fill="black"/>
<rect x="1351" y="954" width="77" height="13" rx="6.5" fill="black"/>
<rect x="1383" y="799" width="77" height="13" rx="6.5" transform="rotate(-90 1383 799)" fill="black"/>
<rect x="1558" y="873" width="77" height="13" rx="6.5" fill="white"/>
</g>
<rect x="1854" y="605" width="512" height="512" rx="130" fill="#00A3FF"/>
<g filter="url(#filter24_i_0_1)">
<path d="M2281 860.5C2281 955.217 2204.22 1032 2109.5 1032C2014.78 1032 1938 955.217 1938 860.5C1938 765.783 2014.78 689 2109.5 689C2204.22 689 2281 765.783 2281 860.5ZM2008.39 860.5C2008.39 916.343 2053.66 961.612 2109.5 961.612C2165.34 961.612 2210.61 916.343 2210.61 860.5C2210.61 804.657 2165.34 759.388 2109.5 759.388C2053.66 759.388 2008.39 804.657 2008.39 860.5Z" fill="white"/>
<path d="M2276.77 898.357C2282.04 875.075 2282.39 850.949 2277.8 827.523L2208.73 841.058C2211.43 854.869 2211.22 869.093 2208.12 882.82L2276.77 898.357Z" fill="#FF3D3D"/>
<path d="M2145.42 692.804C2122.08 687.804 2097.95 687.732 2074.58 692.593L2088.91 761.506C2102.69 758.641 2116.92 758.683 2130.68 761.631L2145.42 692.804Z" fill="#FF3D3D"/>
<path d="M1941.85 824.383C1936.82 847.719 1936.72 871.847 1941.55 895.224L2010.48 880.972C2007.63 867.19 2007.69 852.965 2010.66 839.207L1941.85 824.383Z" fill="#FF3D3D"/>
<path d="M2075.34 1028.56C2098.73 1033.32 2122.86 1033.14 2146.18 1028.03L2131.12 959.273C2117.38 962.283 2103.15 962.389 2089.36 959.586L2075.34 1028.56Z" fill="#FF3D3D"/>
</g>
<rect x="2472" y="605" width="512" height="512" rx="130" fill="white" fill-opacity="0.59"/>
<g clip-path="url(#clip3_0_1)">
<mask id="mask0_0_1" style="mask-type:luminance" maskUnits="userSpaceOnUse" x="2535" y="668" width="180" height="180">
<path d="M2669.3 668H2580.7C2555.46 668 2535 688.462 2535 713.703V802.297C2535 827.538 2555.46 848 2580.7 848H2669.3C2694.54 848 2715 827.538 2715 802.297V713.703C2715 688.462 2694.54 668 2669.3 668Z" fill="white"/>
</mask>
<g mask="url(#mask0_0_1)">
<path d="M2669.3 668H2580.7C2555.46 668 2535 688.462 2535 713.703V802.297C2535 827.538 2555.46 848 2580.7 848H2669.3C2694.54 848 2715 827.538 2715 802.297V713.703C2715 688.462 2694.54 668 2669.3 668Z" fill="url(#paint15_linear_0_1)"/>
<path d="M2563.47 757.055C2568.73 752.541 2576.5 752.541 2581.77 757.055L2625.52 794.556C2632.71 800.716 2628.35 812.492 2618.88 812.492H2526.35C2516.88 812.492 2512.53 800.716 2519.71 794.556L2563.47 757.055Z" fill="url(#paint16_linear_0_1)"/>
<path d="M2574.86 798.978L2653.07 738.65C2660.06 733.257 2669.79 733.193 2676.86 738.493L2715.53 767.518C2717.41 768.927 2718.52 771.138 2718.52 773.485L2716.91 859.25H2515.31V791.541L2565.14 755.782L2560.47 759.702L2549.37 769.304L2542.18 776.284C2540.87 777.556 2539.67 778.938 2538.6 780.416L2537.07 782.511C2535.57 784.584 2534.49 786.94 2533.91 789.438L2533.64 790.632C2532.82 794.14 2533.24 797.82 2534.83 801.055L2534.93 801.258C2536.15 803.758 2538.05 805.864 2540.41 807.338C2542.77 808.814 2545.5 809.597 2548.29 809.597H2550.11C2552.85 809.597 2555.57 809.064 2558.12 808.029L2561.55 806.631C2566.31 804.692 2570.79 802.118 2574.86 798.978Z" fill="#E3F4FF"/>
<path d="M2595.82 717.395C2595.82 708.366 2588.5 701.047 2579.47 701.047C2570.44 701.047 2563.12 708.366 2563.12 717.395C2563.12 726.423 2570.44 733.742 2579.47 733.742C2588.5 733.742 2595.82 726.423 2595.82 717.395Z" fill="white"/>
</g>
</g>
<g clip-path="url(#clip4_0_1)">
<path d="M2669.3 875H2580.7C2555.46 875 2535 895.462 2535 920.703V1009.3C2535 1034.54 2555.46 1055 2580.7 1055H2669.3C2694.54 1055 2715 1034.54 2715 1009.3V920.703C2715 895.462 2694.54 875 2669.3 875Z" fill="url(#paint17_linear_0_1)"/>
<path d="M2658.22 979.062C2675.6 979.062 2689.69 964.975 2689.69 947.598C2689.69 930.22 2675.6 916.133 2658.22 916.133C2640.85 916.133 2626.76 930.22 2626.76 947.598C2626.76 964.975 2640.85 979.062 2658.22 979.062Z" fill="#FF6107"/>
<g filter="url(#filter25_i_0_1)">
<path d="M2559.96 974.047C2559.96 993.422 2574.55 1006.95 2593.89 1009.13C2614.62 1012.5 2635.75 1012.67 2656.54 1009.63L2659.98 1009.13C2675.98 1007.31 2688.28 996.026 2688.28 979.863C2688.28 963.701 2674.63 950.598 2659 950.598C2657.65 932.497 2643.03 918.242 2625.18 918.242C2611.39 918.242 2599.52 926.749 2594.21 938.964H2594.24C2575.5 938.964 2559.96 954.671 2559.96 974.047Z" fill="url(#paint18_linear_0_1)"/>
</g>
</g>
<g clip-path="url(#clip5_0_1)">
<path d="M2876.3 875H2787.7C2762.46 875 2742 895.462 2742 920.703V1009.3C2742 1034.54 2762.46 1055 2787.7 1055H2876.3C2901.54 1055 2922 1034.54 2922 1009.3V920.703C2922 895.462 2901.54 875 2876.3 875Z" fill="#A5ADB6"/>
<path d="M2814.49 914.919C2819.29 906.973 2821.68 903 2824.51 901.221C2829.09 898.342 2834.91 898.342 2839.49 901.221C2842.32 903 2844.71 906.973 2849.51 914.919C2851.28 917.853 2852.16 919.319 2853.29 920.478C2855.1 922.341 2857.39 923.665 2859.91 924.304C2861.48 924.7 2863.19 924.733 2866.62 924.799C2875.9 924.977 2880.54 925.066 2883.49 926.626C2888.27 929.15 2891.18 934.192 2890.98 939.595C2890.85 942.933 2888.61 946.995 2884.12 955.12C2882.47 958.119 2881.64 959.619 2881.2 961.174C2880.49 963.676 2880.49 966.324 2881.2 968.826C2881.64 970.381 2882.47 971.881 2884.12 974.88C2888.61 983.005 2890.85 987.067 2890.98 990.405C2891.18 995.808 2888.27 1000.85 2883.49 1003.37C2880.54 1004.93 2875.9 1005.02 2866.62 1005.2C2863.19 1005.27 2861.48 1005.3 2859.91 1005.7C2857.39 1006.33 2855.1 1007.66 2853.29 1009.52C2852.16 1010.68 2851.28 1012.15 2849.51 1015.08C2844.71 1023.03 2842.32 1027 2839.49 1028.78C2834.91 1031.66 2829.09 1031.66 2824.51 1028.78C2821.68 1027 2819.29 1023.03 2814.49 1015.08C2812.72 1012.15 2811.84 1010.68 2810.71 1009.52C2808.9 1007.66 2806.61 1006.33 2804.09 1005.7C2802.52 1005.3 2800.81 1005.27 2797.38 1005.2C2788.1 1005.02 2783.46 1004.93 2780.51 1003.37C2775.73 1000.85 2772.82 995.808 2773.02 990.405C2773.15 987.067 2775.39 983.005 2779.88 974.88C2781.53 971.881 2782.36 970.381 2782.8 968.826C2783.51 966.324 2783.51 963.676 2782.8 961.174C2782.36 959.619 2781.53 958.119 2779.88 955.12C2775.39 946.995 2773.15 942.933 2773.02 939.595C2772.82 934.192 2775.73 929.15 2780.51 926.626C2783.46 925.066 2788.1 924.977 2797.38 924.799C2800.81 924.733 2802.52 924.7 2804.09 924.304C2806.61 923.665 2808.9 922.341 2810.71 920.478C2811.84 919.319 2812.72 917.853 2814.49 914.919Z" fill="#ECF5FF"/>
<path d="M2859.59 964.997C2859.59 949.757 2847.24 937.402 2832 937.402C2816.76 937.402 2804.4 949.757 2804.4 964.997C2804.4 980.237 2816.76 992.592 2832 992.592C2847.24 992.592 2859.59 980.237 2859.59 964.997Z" stroke="#A5ADB6" stroke-width="8"/>
</g>
<g clip-path="url(#clip6_0_1)">
<path d="M2876.3 668H2787.7C2762.46 668 2742 688.462 2742 713.703V802.297C2742 827.538 2762.46 848 2787.7 848H2876.3C2901.54 848 2922 827.538 2922 802.297V713.703C2922 688.462 2901.54 668 2876.3 668Z" fill="white"/>
<g filter="url(#filter26_i_0_1)">
<path d="M2892.82 756.144C2892.82 746.055 2892.82 741.011 2890.73 737.214C2889.19 734.408 2886.88 732.099 2884.07 730.556C2880.28 728.469 2875.23 728.469 2865.15 728.469H2830.78C2821.74 728.469 2817.22 728.469 2813.82 730.339C2811.3 731.721 2809.24 733.789 2807.85 736.303C2805.98 739.704 2805.98 744.223 2805.98 753.261V773.989C2805.98 783.027 2805.98 787.546 2807.85 790.947C2809.24 793.461 2811.3 795.529 2813.82 796.911C2817.22 798.781 2821.74 798.781 2830.78 798.781H2853.92C2856.39 798.781 2857.63 798.781 2858.84 798.977C2859.74 799.124 2860.63 799.353 2861.49 799.66C2862.64 800.07 2863.72 800.668 2865.89 801.863L2877.43 808.226C2882.71 811.136 2885.35 812.591 2887.5 812.243C2889.07 811.989 2890.49 811.151 2891.48 809.895C2892.82 808.177 2892.82 805.164 2892.82 799.138V756.144Z" fill="#0FF66C"/>
</g>
<g filter="url(#filter27_i_0_1)">
<path d="M2771.18 735.753C2771.18 725.665 2771.18 720.62 2773.27 716.824C2774.81 714.017 2777.12 711.708 2779.93 710.165C2783.72 708.078 2788.77 708.078 2798.85 708.078H2833.22C2842.26 708.078 2846.78 708.078 2850.18 709.948C2852.7 711.33 2854.76 713.399 2856.15 715.913C2858.02 719.314 2858.02 723.833 2858.02 732.87V753.598C2858.02 762.636 2858.02 767.155 2856.15 770.556C2854.76 773.07 2852.7 775.139 2850.18 776.521C2846.78 778.391 2842.26 778.391 2833.22 778.391H2810.08C2807.61 778.391 2806.37 778.391 2805.16 778.587C2804.26 778.733 2803.37 778.962 2802.51 779.27C2801.36 779.68 2800.28 780.277 2798.11 781.472L2786.57 787.836C2781.29 790.745 2778.65 792.2 2776.5 791.852C2774.93 791.598 2773.51 790.76 2772.52 789.504C2771.18 787.786 2771.18 784.773 2771.18 778.747V735.753Z" fill="#0066FF"/>
</g>
</g>
<rect x="1824" y="1210" width="512" height="512" rx="130" fill="white"/>
<g filter="url(#filter28_di_0_1)">
<path d="M1934.04 1339.67C1935.23 1328.48 1944.67 1320 1955.91 1320H2169.65C2181.1 1320 2190.64 1328.78 2191.58 1340.19L2212.04 1588.19C2213.09 1601.01 2202.97 1612 2190.11 1612H1929.47C1916.4 1612 1906.21 1600.67 1907.59 1587.67L1934.04 1339.67Z" fill="url(#paint19_linear_0_1)"/>
</g>
<g filter="url(#filter29_di_0_1)">
<ellipse cx="2097" cy="1394.5" rx="80" ry="55.5" fill="#919191"/>
</g>
<g filter="url(#filter30_d_0_1)">
<path d="M2048.8 1535.3C2050.53 1541.57 2055.23 1544.7 2062.9 1544.7C2067.83 1544.7 2071.57 1543.03 2074.1 1539.7L2084.5 1545.7C2079.57 1552.83 2072.3 1556.4 2062.7 1556.4C2054.43 1556.4 2047.8 1553.9 2042.8 1548.9C2037.8 1543.9 2035.3 1537.6 2035.3 1530C2035.3 1522.47 2037.77 1516.2 2042.7 1511.2C2047.63 1506.13 2053.97 1503.6 2061.7 1503.6C2069.03 1503.6 2075.07 1506.13 2079.8 1511.2C2084.6 1516.27 2087 1522.53 2087 1530C2087 1531.67 2086.83 1533.43 2086.5 1535.3H2048.8ZM2048.6 1525.3H2074.1C2073.37 1521.9 2071.83 1519.37 2069.5 1517.7C2067.23 1516.03 2064.63 1515.2 2061.7 1515.2C2058.23 1515.2 2055.37 1516.1 2053.1 1517.9C2050.83 1519.63 2049.33 1522.1 2048.6 1525.3ZM2103.95 1519.2C2103.95 1520.53 2104.82 1521.63 2106.55 1522.5C2108.35 1523.3 2110.52 1524.03 2113.05 1524.7C2115.59 1525.3 2118.12 1526.1 2120.65 1527.1C2123.19 1528.03 2125.32 1529.63 2127.05 1531.9C2128.85 1534.17 2129.75 1537 2129.75 1540.4C2129.75 1545.53 2127.82 1549.5 2123.95 1552.3C2120.15 1555.03 2115.39 1556.4 2109.65 1556.4C2099.39 1556.4 2092.39 1552.43 2088.65 1544.5L2099.85 1538.2C2101.32 1542.53 2104.59 1544.7 2109.65 1544.7C2114.25 1544.7 2116.55 1543.27 2116.55 1540.4C2116.55 1539.07 2115.65 1538 2113.85 1537.2C2112.12 1536.33 2109.99 1535.57 2107.45 1534.9C2104.92 1534.23 2102.39 1533.4 2099.85 1532.4C2097.32 1531.4 2095.15 1529.83 2093.35 1527.7C2091.62 1525.5 2090.75 1522.77 2090.75 1519.5C2090.75 1514.57 2092.55 1510.7 2096.15 1507.9C2099.82 1505.03 2104.35 1503.6 2109.75 1503.6C2113.82 1503.6 2117.52 1504.53 2120.85 1506.4C2124.19 1508.2 2126.82 1510.8 2128.75 1514.2L2117.75 1520.2C2116.15 1516.8 2113.49 1515.1 2109.75 1515.1C2108.09 1515.1 2106.69 1515.47 2105.55 1516.2C2104.49 1516.93 2103.95 1517.93 2103.95 1519.2ZM2163.18 1517.4H2151.88V1538.2C2151.88 1539.93 2152.32 1541.2 2153.18 1542C2154.05 1542.8 2155.32 1543.27 2156.98 1543.4C2158.65 1543.47 2160.72 1543.43 2163.18 1543.3V1555C2154.32 1556 2148.05 1555.17 2144.38 1552.5C2140.78 1549.83 2138.98 1545.07 2138.98 1538.2V1517.4H2130.28V1505H2138.98V1494.9L2151.88 1491V1505H2163.18V1517.4ZM2179.62 1535.3C2181.35 1541.57 2186.05 1544.7 2193.72 1544.7C2198.65 1544.7 2202.38 1543.03 2204.92 1539.7L2215.32 1545.7C2210.38 1552.83 2203.12 1556.4 2193.52 1556.4C2185.25 1556.4 2178.62 1553.9 2173.62 1548.9C2168.62 1543.9 2166.12 1537.6 2166.12 1530C2166.12 1522.47 2168.58 1516.2 2173.52 1511.2C2178.45 1506.13 2184.78 1503.6 2192.52 1503.6C2199.85 1503.6 2205.88 1506.13 2210.62 1511.2C2215.42 1516.27 2217.82 1522.53 2217.82 1530C2217.82 1531.67 2217.65 1533.43 2217.32 1535.3H2179.62ZM2179.42 1525.3H2204.92C2204.18 1521.9 2202.65 1519.37 2200.32 1517.7C2198.05 1516.03 2195.45 1515.2 2192.52 1515.2C2189.05 1515.2 2186.18 1516.1 2183.92 1517.9C2181.65 1519.63 2180.15 1522.1 2179.42 1525.3ZM2237.72 1513.6C2238.92 1510.4 2240.89 1508 2243.62 1506.4C2246.42 1504.8 2249.52 1504 2252.92 1504V1518.4C2248.99 1517.93 2245.46 1518.73 2242.32 1520.8C2239.26 1522.87 2237.72 1526.3 2237.72 1531.1V1555H2224.82V1505H2237.72V1513.6Z" fill="black"/>
</g>
<rect x="3708" y="1210" width="512" height="512" rx="130" fill="url(#paint20_linear_0_1)"/>
<path d="M3923.41 1488.06H3841.38L3827 1521.5C3823.46 1529.73 3821.69 1535.88 3821.69 1539.94C3821.69 1543.17 3823.2 1546.03 3826.22 1548.53C3829.34 1550.93 3836.01 1552.49 3846.22 1553.22V1559H3779.5V1553.22C3788.35 1551.66 3794.08 1549.62 3796.69 1547.12C3802 1542.12 3807.89 1531.97 3814.34 1516.66L3888.88 1342.28H3894.34L3968.09 1518.53C3974.03 1532.7 3979.4 1541.92 3984.19 1546.19C3989.08 1550.35 3995.85 1552.7 4004.5 1553.22V1559H3920.91V1553.22C3929.34 1552.8 3935.02 1551.4 3937.94 1549C3940.96 1546.6 3942.47 1543.69 3942.47 1540.25C3942.47 1535.67 3940.39 1528.43 3936.22 1518.53L3923.41 1488.06ZM3919.03 1476.5L3883.09 1390.88L3846.22 1476.5H3919.03ZM4099.34 1538.38C4084.66 1549.73 4075.44 1556.29 4071.69 1558.06C4066.06 1560.67 4060.07 1561.97 4053.72 1561.97C4043.82 1561.97 4035.65 1558.58 4029.19 1551.81C4022.83 1545.04 4019.66 1536.14 4019.66 1525.09C4019.66 1518.11 4021.22 1512.07 4024.34 1506.97C4028.61 1499.89 4036.01 1493.22 4046.53 1486.97C4057.16 1480.72 4074.76 1473.11 4099.34 1464.16V1458.53C4099.34 1444.26 4097.05 1434.47 4092.47 1429.16C4087.99 1423.84 4081.43 1421.19 4072.78 1421.19C4066.22 1421.19 4061.01 1422.96 4057.16 1426.5C4053.2 1430.04 4051.22 1434.1 4051.22 1438.69L4051.53 1447.75C4051.53 1452.54 4050.28 1456.24 4047.78 1458.84C4045.39 1461.45 4042.21 1462.75 4038.25 1462.75C4034.4 1462.75 4031.22 1461.4 4028.72 1458.69C4026.32 1455.98 4025.12 1452.28 4025.12 1447.59C4025.12 1438.64 4029.71 1430.41 4038.88 1422.91C4048.04 1415.41 4060.91 1411.66 4077.47 1411.66C4090.18 1411.66 4100.59 1413.79 4108.72 1418.06C4114.86 1421.29 4119.4 1426.34 4122.31 1433.22C4124.19 1437.7 4125.12 1446.86 4125.12 1460.72V1509.31C4125.12 1522.96 4125.39 1531.34 4125.91 1534.47C4126.43 1537.49 4127.26 1539.52 4128.41 1540.56C4129.66 1541.6 4131.06 1542.12 4132.62 1542.12C4134.29 1542.12 4135.75 1541.76 4137 1541.03C4139.19 1539.68 4143.41 1535.88 4149.66 1529.62V1538.38C4137.99 1554 4126.84 1561.81 4116.22 1561.81C4111.11 1561.81 4107.05 1560.04 4104.03 1556.5C4101.01 1552.96 4099.45 1546.92 4099.34 1538.38ZM4099.34 1528.22V1473.69C4083.61 1479.94 4073.46 1484.36 4068.88 1486.97C4060.65 1491.55 4054.76 1496.34 4051.22 1501.34C4047.68 1506.34 4045.91 1511.81 4045.91 1517.75C4045.91 1525.25 4048.15 1531.5 4052.62 1536.5C4057.1 1541.4 4062.26 1543.84 4068.09 1543.84C4076.01 1543.84 4086.43 1538.64 4099.34 1528.22Z" fill="black"/>
<rect x="4326" y="1210" width="512" height="512" rx="130" fill="url(#paint21_linear_0_1)"/>
<path d="M4689.47 1473.31C4695.01 1470.01 4695.01 1461.99 4689.47 1458.69L4489.59 1339.86C4483.93 1336.49 4476.75 1340.57 4476.75 1347.16V1584.84C4476.75 1591.43 4483.93 1595.51 4489.59 1592.14L4689.47 1473.31Z" stroke="url(#paint22_linear_0_1)" stroke-width="35"/>
<path d="M4698.41 1488.35C4715.36 1478.27 4715.36 1453.73 4698.41 1443.65L4498.54 1324.81C4481.21 1314.51 4459.25 1327 4459.25 1347.16V1584.84C4459.25 1605 4481.21 1617.49 4498.54 1607.19L4698.41 1488.35Z" stroke="url(#paint23_linear_0_1)" stroke-width="35"/>
<path d="M4707.36 1428.61C4735.71 1445.47 4735.71 1486.53 4707.36 1503.39L4507.48 1622.23C4478.48 1639.47 4441.75 1618.57 4441.75 1584.84V1347.16C4441.75 1313.43 4478.48 1292.53 4507.48 1309.77L4707.36 1428.61Z" stroke="url(#paint24_linear_0_1)" stroke-width="35"/>
<g clip-path="url(#clip7_0_1)">
<rect x="2472" y="1210" width="512" height="512" rx="130" fill="white"/>
<rect x="2560" y="1317" width="246" height="53" fill="#DADADA"/>
<rect x="2560" y="1390" width="93" height="53" fill="#DADADA"/>
<path d="M2607 1578.83C2607 1573.02 2608.94 1567.38 2612.52 1562.81L2704.54 1445.2C2716.56 1429.85 2739.79 1429.85 2751.8 1445.2L2843.82 1562.81C2847.4 1567.38 2849.34 1573.02 2849.34 1578.83V1695.68C2849.34 1710.04 2837.7 1721.68 2823.34 1721.68H2633C2618.64 1721.68 2607 1710.04 2607 1695.68L2607 1578.83Z" fill="url(#paint25_linear_0_1)"/>
<path d="M2607 1579.11C2607 1574.42 2608.5 1569.86 2611.28 1566.08L2623.85 1548.98C2625.87 1546.24 2629.36 1545.01 2632.65 1545.87L2638.56 1547.42C2699.54 1563.45 2763.69 1562.93 2824.4 1545.91C2827.56 1545.03 2830.94 1546.21 2832.85 1548.88L2845.22 1566.15C2847.9 1569.88 2849.34 1574.37 2849.34 1578.96V1722.12H2607V1579.11Z" fill="url(#paint26_radial_0_1)"/>
<path d="M2714.71 1432.88L2718.18 1428.71C2723.38 1422.47 2732.97 1422.47 2738.16 1428.71L2741.63 1432.88L2756.13 1450.77H2700.21L2714.71 1432.88Z" fill="#545454"/>
</g>
<rect x="618" y="1210" width="512" height="512" rx="130" fill="#222222"/>
<g filter="url(#filter31_i_0_1)">
<path d="M727.368 1593.57C719.301 1590.22 712.849 1583.77 709.504 1575.7L715.97 1573.02C714.703 1569.97 714 1566.61 714 1563.07V1545.82H707V1511.3H714V1476.79H707V1442.28H714V1407.77H707V1373.26H714V1356C714 1352.46 714.703 1349.11 715.97 1346.05L709.504 1343.37C712.849 1335.3 719.301 1328.85 727.368 1325.5L730.049 1331.97C733.105 1330.7 736.462 1330 740 1330H756.761V1323H790.282V1330H823.803V1323H857.324V1330H890.845V1323H924.366V1330H957.887V1323H991.408V1330H1008.17C1011.71 1330 1015.06 1330.7 1018.12 1331.97L1020.8 1325.5C1028.87 1328.85 1035.32 1335.3 1038.66 1343.37L1032.2 1346.05C1033.47 1349.11 1034.17 1352.46 1034.17 1356V1373.26H1041.17V1407.77H1034.17V1442.28H1041.17V1476.79H1034.17V1511.3H1041.17V1545.82H1034.17V1563.07C1034.17 1566.61 1033.47 1569.97 1032.2 1573.02L1038.66 1575.7C1035.32 1583.77 1028.87 1590.22 1020.8 1593.57L1018.12 1587.1C1015.06 1588.37 1011.71 1589.07 1008.17 1589.07H991.408V1596.07H957.887V1589.07H924.366V1596.07H890.845V1589.07H857.324V1596.07H823.803V1589.07H790.282V1596.07H756.761V1589.07H740C736.462 1589.07 733.105 1588.37 730.049 1587.1L727.368 1593.57Z" fill="white" fill-opacity="0.3" stroke="white" stroke-width="14" stroke-dasharray="34 34"/>
<rect x="1029.23" y="1553.74" width="11.9346" height="77.2646" fill="white"/>
<rect x="999.398" y="1596.07" width="12.701" height="72.6022" transform="rotate(-90 999.398 1596.07)" fill="white"/>
</g>
<rect x="1236" y="1210" width="512" height="512" rx="130" fill="url(#paint27_radial_0_1)"/>
<g filter="url(#filter32_di_0_1)">
<path d="M1367.04 1339.67C1368.23 1328.48 1377.67 1320 1388.91 1320H1602.65C1614.1 1320 1623.64 1328.78 1624.58 1340.19L1645.04 1588.19C1646.09 1601.01 1635.97 1612 1623.11 1612H1362.47C1349.4 1612 1339.21 1600.67 1340.59 1587.67L1367.04 1339.67Z" fill="url(#paint28_linear_0_1)"/>
</g>
<g filter="url(#filter33_di_0_1)">
<ellipse cx="1530" cy="1394.5" rx="80" ry="55.5" fill="#919191"/>
</g>
<g filter="url(#filter34_d_0_1)">
<path d="M1481.8 1535.3C1483.53 1541.57 1488.23 1544.7 1495.9 1544.7C1500.83 1544.7 1504.57 1543.03 1507.1 1539.7L1517.5 1545.7C1512.57 1552.83 1505.3 1556.4 1495.7 1556.4C1487.43 1556.4 1480.8 1553.9 1475.8 1548.9C1470.8 1543.9 1468.3 1537.6 1468.3 1530C1468.3 1522.47 1470.77 1516.2 1475.7 1511.2C1480.63 1506.13 1486.97 1503.6 1494.7 1503.6C1502.03 1503.6 1508.07 1506.13 1512.8 1511.2C1517.6 1516.27 1520 1522.53 1520 1530C1520 1531.67 1519.83 1533.43 1519.5 1535.3H1481.8ZM1481.6 1525.3H1507.1C1506.37 1521.9 1504.83 1519.37 1502.5 1517.7C1500.23 1516.03 1497.63 1515.2 1494.7 1515.2C1491.23 1515.2 1488.37 1516.1 1486.1 1517.9C1483.83 1519.63 1482.33 1522.1 1481.6 1525.3ZM1536.95 1519.2C1536.95 1520.53 1537.82 1521.63 1539.55 1522.5C1541.35 1523.3 1543.52 1524.03 1546.05 1524.7C1548.59 1525.3 1551.12 1526.1 1553.65 1527.1C1556.19 1528.03 1558.32 1529.63 1560.05 1531.9C1561.85 1534.17 1562.75 1537 1562.75 1540.4C1562.75 1545.53 1560.82 1549.5 1556.95 1552.3C1553.15 1555.03 1548.39 1556.4 1542.65 1556.4C1532.39 1556.4 1525.39 1552.43 1521.65 1544.5L1532.85 1538.2C1534.32 1542.53 1537.59 1544.7 1542.65 1544.7C1547.25 1544.7 1549.55 1543.27 1549.55 1540.4C1549.55 1539.07 1548.65 1538 1546.85 1537.2C1545.12 1536.33 1542.99 1535.57 1540.45 1534.9C1537.92 1534.23 1535.39 1533.4 1532.85 1532.4C1530.32 1531.4 1528.15 1529.83 1526.35 1527.7C1524.62 1525.5 1523.75 1522.77 1523.75 1519.5C1523.75 1514.57 1525.55 1510.7 1529.15 1507.9C1532.82 1505.03 1537.35 1503.6 1542.75 1503.6C1546.82 1503.6 1550.52 1504.53 1553.85 1506.4C1557.19 1508.2 1559.82 1510.8 1561.75 1514.2L1550.75 1520.2C1549.15 1516.8 1546.49 1515.1 1542.75 1515.1C1541.09 1515.1 1539.69 1515.47 1538.55 1516.2C1537.49 1516.93 1536.95 1517.93 1536.95 1519.2ZM1596.18 1517.4H1584.88V1538.2C1584.88 1539.93 1585.32 1541.2 1586.18 1542C1587.05 1542.8 1588.32 1543.27 1589.98 1543.4C1591.65 1543.47 1593.72 1543.43 1596.18 1543.3V1555C1587.32 1556 1581.05 1555.17 1577.38 1552.5C1573.78 1549.83 1571.98 1545.07 1571.98 1538.2V1517.4H1563.28V1505H1571.98V1494.9L1584.88 1491V1505H1596.18V1517.4ZM1612.62 1535.3C1614.35 1541.57 1619.05 1544.7 1626.72 1544.7C1631.65 1544.7 1635.38 1543.03 1637.92 1539.7L1648.32 1545.7C1643.38 1552.83 1636.12 1556.4 1626.52 1556.4C1618.25 1556.4 1611.62 1553.9 1606.62 1548.9C1601.62 1543.9 1599.12 1537.6 1599.12 1530C1599.12 1522.47 1601.58 1516.2 1606.52 1511.2C1611.45 1506.13 1617.78 1503.6 1625.52 1503.6C1632.85 1503.6 1638.88 1506.13 1643.62 1511.2C1648.42 1516.27 1650.82 1522.53 1650.82 1530C1650.82 1531.67 1650.65 1533.43 1650.32 1535.3H1612.62ZM1612.42 1525.3H1637.92C1637.18 1521.9 1635.65 1519.37 1633.32 1517.7C1631.05 1516.03 1628.45 1515.2 1625.52 1515.2C1622.05 1515.2 1619.18 1516.1 1616.92 1517.9C1614.65 1519.63 1613.15 1522.1 1612.42 1525.3ZM1670.72 1513.6C1671.92 1510.4 1673.89 1508 1676.62 1506.4C1679.42 1504.8 1682.52 1504 1685.92 1504V1518.4C1681.99 1517.93 1678.46 1518.73 1675.32 1520.8C1672.26 1522.87 1670.72 1526.3 1670.72 1531.1V1555H1657.82V1505H1670.72V1513.6Z" fill="black"/>
</g>
<g clip-path="url(#clip8_0_1)">
<rect x="4944" y="1210" width="512" height="512" rx="130" fill="url(#paint29_linear_0_1)"/>
<rect x="5024" y="1328" width="351" height="21" rx="10.5" fill="url(#paint30_radial_0_1)"/>
<rect x="5025" y="1498" width="351" height="21" rx="10.5" fill="url(#paint31_radial_0_1)"/>
<rect x="5024" y="1413" width="351" height="21" rx="10.5" fill="url(#paint32_radial_0_1)"/>
<rect x="5025" y="1583" width="351" height="21" rx="10.5" fill="url(#paint33_radial_0_1)"/>
<rect x="4922" y="1502" width="557" height="306" fill="#727272" fill-opacity="0.38"/>
<rect x="4922" y="1502" width="557" height="306" fill="#727272" fill-opacity="0.38"/>
<g filter="url(#filter35_f_0_1)">
<rect x="4922" y="1480" width="557" height="22" fill="#FF6969"/>
</g>
<rect x="4922" y="1473" width="557" height="25" fill="#FF0000"/>
</g>
<g filter="url(#filter36_i_0_1)">
<rect y="1210" width="512" height="512" rx="130" fill="url(#paint34_radial_0_1)"/>
<rect x="12" y="1222" width="488" height="488" rx="118" stroke="url(#paint35_linear_0_1)" stroke-width="24"/>
<rect x="112" y="1229" width="1" height="477" fill="url(#paint36_linear_0_1)" fill-opacity="0.11"/>
<rect x="64" y="1229" width="1" height="477" fill="url(#paint37_linear_0_1)" fill-opacity="0.11"/>
<rect x="160" y="1229" width="1" height="477" fill="url(#paint38_linear_0_1)" fill-opacity="0.11"/>
<rect x="208" y="1229" width="1" height="477" fill="url(#paint39_linear_0_1)" fill-opacity="0.11"/>
<rect x="256" y="1229" width="1" height="477" fill="url(#paint40_linear_0_1)" fill-opacity="0.11"/>
<rect x="304" y="1229" width="1" height="477" fill="url(#paint41_linear_0_1)" fill-opacity="0.11"/>
<rect x="352" y="1229" width="1" height="477" fill="url(#paint42_linear_0_1)" fill-opacity="0.11"/>
<rect x="400" y="1229" width="1" height="477" fill="url(#paint43_linear_0_1)" fill-opacity="0.11"/>
<rect x="448" y="1229" width="1" height="477" fill="url(#paint44_linear_0_1)" fill-opacity="0.11"/>
<rect x="33" y="1610" width="1" height="447" transform="rotate(-90 33 1610)" fill="url(#paint45_linear_0_1)" fill-opacity="0.11"/>
<rect x="33" y="1658" width="1" height="447" transform="rotate(-90 33 1658)" fill="url(#paint46_linear_0_1)" fill-opacity="0.11"/>
<rect x="33" y="1562" width="1" height="447" transform="rotate(-90 33 1562)" fill="url(#paint47_linear_0_1)" fill-opacity="0.11"/>
<rect x="33" y="1514" width="1" height="447" transform="rotate(-90 33 1514)" fill="url(#paint48_linear_0_1)" fill-opacity="0.11"/>
<rect x="33" y="1466" width="1" height="447" transform="rotate(-90 33 1466)" fill="url(#paint49_linear_0_1)" fill-opacity="0.11"/>
<rect x="33" y="1418" width="1" height="447" transform="rotate(-90 33 1418)" fill="url(#paint50_linear_0_1)" fill-opacity="0.11"/>
<rect x="33" y="1370" width="1" height="447" transform="rotate(-90 33 1370)" fill="url(#paint51_linear_0_1)" fill-opacity="0.11"/>
<rect x="33" y="1322" width="1" height="447" transform="rotate(-90 33 1322)" fill="url(#paint52_linear_0_1)" fill-opacity="0.11"/>
<rect x="33" y="1274" width="1" height="447" transform="rotate(-90 33 1274)" fill="url(#paint53_linear_0_1)" fill-opacity="0.11"/>
<path d="M19 1472.36H122.226L178.978 1370L240.381 1561L322.252 1472.36H493" stroke="url(#paint54_radial_0_1)" stroke-width="13"/>
<rect x="304" y="1229" width="4" height="483" fill="url(#paint55_linear_0_1)"/>
</g>
<g clip-path="url(#clip9_0_1)">
<mask id="mask1_0_1" style="mask-type:luminance" maskUnits="userSpaceOnUse" x="1797" y="1814" width="512" height="512">
<path d="M2179 1814H1927C1855.2 1814 1797 1872.2 1797 1944V2196C1797 2267.8 1855.2 2326 1927 2326H2179C2250.8 2326 2309 2267.8 2309 2196V1944C2309 1872.2 2250.8 1814 2179 1814Z" fill="white"/>
</mask>
<g mask="url(#mask1_0_1)">
<path d="M2179 1814H1927C1855.2 1814 1797 1872.2 1797 1944V2196C1797 2267.8 1855.2 2326 1927 2326H2179C2250.8 2326 2309 2267.8 2309 2196V1944C2309 1872.2 2250.8 1814 2179 1814Z" fill="url(#paint56_linear_0_1)"/>
<path d="M1963.7 1920.8V1973.1C1963.7 1973.63 1963.5 1974.1 1963.1 1974.5C1962.77 1974.83 1962.33 1975 1961.8 1975H1955.5C1954.97 1975 1954.53 1974.83 1954.2 1974.5C1953.87 1974.1 1953.7 1973.63 1953.7 1973.1V1906.9C1953.7 1906.37 1953.87 1905.93 1954.2 1905.6C1954.53 1905.2 1954.97 1905 1955.5 1905H1963.6C1964.73 1905 1965.67 1905.5 1966.4 1906.5L2000.8 1958.6V1906.9C2000.8 1906.37 2000.97 1905.93 2001.3 1905.6C2001.63 1905.2 2002.07 1905 2002.6 1905H2008.8C2009.33 1905 2009.8 1905.2 2010.2 1905.6C2010.6 1905.93 2010.8 1906.37 2010.8 1906.9V1973.1C2010.8 1973.63 2010.6 1974.1 2010.2 1974.5C2009.8 1974.83 2009.33 1975 2008.8 1975H2002C2000.4 1975 1999.23 1974.4 1998.5 1973.2L1963.7 1920.8ZM2091.86 1940C2091.86 1945.2 2090.89 1950.03 2088.96 1954.5C2087.09 1958.9 2084.53 1962.73 2081.26 1966C2078.06 1969.2 2074.26 1971.73 2069.86 1973.6C2065.46 1975.4 2060.76 1976.3 2055.76 1976.3C2050.76 1976.3 2046.06 1975.4 2041.66 1973.6C2037.33 1971.73 2033.53 1969.2 2030.26 1966C2026.99 1962.73 2024.43 1958.9 2022.56 1954.5C2020.69 1950.03 2019.76 1945.2 2019.76 1940C2019.76 1934.8 2020.69 1930 2022.56 1925.6C2024.43 1921.13 2026.99 1917.3 2030.26 1914.1C2033.53 1910.83 2037.33 1908.3 2041.66 1906.5C2046.06 1904.63 2050.76 1903.7 2055.76 1903.7C2060.76 1903.7 2065.46 1904.63 2069.86 1906.5C2074.26 1908.3 2078.06 1910.83 2081.26 1914.1C2084.53 1917.3 2087.09 1921.13 2088.96 1925.6C2090.89 1930 2091.86 1934.8 2091.86 1940ZM2081.46 1940C2081.46 1936.13 2080.83 1932.57 2079.56 1929.3C2078.29 1925.97 2076.53 1923.1 2074.26 1920.7C2071.99 1918.23 2069.26 1916.3 2066.06 1914.9C2062.93 1913.5 2059.49 1912.8 2055.76 1912.8C2052.03 1912.8 2048.56 1913.5 2045.36 1914.9C2042.23 1916.3 2039.53 1918.23 2037.26 1920.7C2034.99 1923.1 2033.23 1925.97 2031.96 1929.3C2030.69 1932.57 2030.06 1936.13 2030.06 1940C2030.06 1943.87 2030.69 1947.47 2031.96 1950.8C2033.23 1954.07 2034.99 1956.93 2037.26 1959.4C2039.53 1961.8 2042.23 1963.7 2045.36 1965.1C2048.56 1966.5 2052.03 1967.2 2055.76 1967.2C2059.49 1967.2 2062.93 1966.5 2066.06 1965.1C2069.26 1963.7 2071.99 1961.8 2074.26 1959.4C2076.53 1956.93 2078.29 1954.07 2079.56 1950.8C2080.83 1947.47 2081.46 1943.87 2081.46 1940ZM2119.93 1975C2119.4 1975 2118.9 1974.87 2118.43 1974.6C2117.96 1974.27 2117.6 1973.8 2117.33 1973.2L2091.83 1907.5C2091.5 1906.77 2091.5 1906.17 2091.83 1905.7C2092.16 1905.23 2092.63 1905 2093.23 1905H2100.63C2101.56 1905 2102.23 1905.57 2102.63 1906.7L2124.73 1964.5H2125.13L2146.93 1906.7C2147.4 1905.57 2148.06 1905 2148.93 1905H2155.83C2156.43 1905 2156.86 1905.23 2157.13 1905.7C2157.46 1906.1 2157.5 1906.67 2157.23 1907.4L2131.73 1973.2C2131.2 1974.4 2130.36 1975 2129.23 1975H2119.93Z" fill="#FF3D3D"/>
<path d="M1921.2 2057.2C1921.2 2053.4 1923.1 2051.5 1926.9 2051.5H1931.1C1947.3 2051.5 1957.7 2044.8 1962.3 2031.4C1963.9 2027.8 1966.4 2026 1969.8 2026H1980C1981.6 2026 1982.9 2026.5 1983.9 2027.5C1984.9 2028.5 1985.4 2029.8 1985.4 2031.4V2230.3C1985.4 2231.9 1984.8 2233.3 1983.6 2234.5C1982.6 2235.5 1981.3 2236 1979.7 2236H1962.6C1961 2236 1959.6 2235.5 1958.4 2234.5C1957.4 2233.3 1956.9 2231.9 1956.9 2230.3V2075.5H1926.6C1925 2075.5 1923.7 2075.1 1922.7 2074.3C1921.7 2073.3 1921.2 2072 1921.2 2070.4V2057.2ZM2095.39 2239.9C2082.99 2239.9 2071.79 2238.3 2061.79 2235.1C2051.79 2231.9 2043.29 2227.5 2036.29 2221.9C2029.29 2216.3 2023.89 2209.7 2020.09 2202.1C2016.29 2194.3 2014.39 2186 2014.39 2177.2C2014.39 2164.6 2018.19 2153.5 2025.79 2143.9C2033.59 2134.3 2043.79 2127.5 2056.39 2123.5C2046.79 2119.7 2039.09 2113.8 2033.29 2105.8C2027.49 2097.6 2024.59 2088.2 2024.59 2077.6C2024.59 2069.4 2026.29 2061.9 2029.69 2055.1C2033.29 2048.3 2038.19 2042.5 2044.39 2037.7C2050.79 2032.7 2058.29 2028.9 2066.89 2026.3C2075.69 2023.5 2085.19 2022.1 2095.39 2022.1C2105.59 2022.1 2114.99 2023.5 2123.59 2026.3C2132.19 2028.9 2139.59 2032.7 2145.79 2037.7C2152.19 2042.5 2157.09 2048.3 2160.49 2055.1C2164.09 2061.9 2165.89 2069.4 2165.89 2077.6C2165.89 2088.2 2162.99 2097.6 2157.19 2105.8C2151.39 2113.8 2143.69 2119.7 2134.09 2123.5C2146.69 2127.5 2156.79 2134.3 2164.39 2143.9C2172.19 2153.5 2176.09 2164.6 2176.09 2177.2C2176.09 2186 2174.19 2194.3 2170.39 2202.1C2166.59 2209.7 2161.19 2216.3 2154.19 2221.9C2147.19 2227.5 2138.69 2231.9 2128.69 2235.1C2118.89 2238.3 2107.79 2239.9 2095.39 2239.9ZM2095.39 2113C2101.79 2113 2107.59 2112.1 2112.79 2110.3C2118.19 2108.5 2122.69 2106.1 2126.29 2103.1C2130.09 2099.9 2132.99 2096.2 2134.99 2092C2136.99 2087.8 2137.99 2083.4 2137.99 2078.8C2137.99 2074.2 2136.99 2069.9 2134.99 2065.9C2132.99 2061.7 2130.09 2058.1 2126.29 2055.1C2122.69 2051.9 2118.19 2049.4 2112.79 2047.6C2107.59 2045.8 2101.79 2044.9 2095.39 2044.9C2088.99 2044.9 2083.09 2045.8 2077.69 2047.6C2072.49 2049.4 2067.99 2051.9 2064.19 2055.1C2060.59 2058.1 2057.79 2061.7 2055.79 2065.9C2053.79 2069.9 2052.79 2074.2 2052.79 2078.8C2052.79 2083.4 2053.79 2087.8 2055.79 2092C2057.79 2096.2 2060.59 2099.9 2064.19 2103.1C2067.99 2106.1 2072.49 2108.5 2077.69 2110.3C2083.09 2112.1 2088.99 2113 2095.39 2113ZM2095.39 2136.7C2087.59 2136.7 2080.59 2137.8 2074.39 2140C2068.19 2142 2062.89 2144.8 2058.49 2148.4C2054.09 2152 2050.69 2156.2 2048.29 2161C2045.89 2165.8 2044.69 2170.9 2044.69 2176.3C2044.69 2181.7 2045.89 2186.8 2048.29 2191.6C2050.69 2196.4 2054.09 2200.6 2058.49 2204.2C2062.89 2207.8 2068.19 2210.7 2074.39 2212.9C2080.59 2214.9 2087.59 2215.9 2095.39 2215.9C2103.19 2215.9 2110.19 2214.9 2116.39 2212.9C2122.59 2210.7 2127.79 2207.8 2131.99 2204.2C2136.39 2200.6 2139.79 2196.4 2142.19 2191.6C2144.59 2186.8 2145.79 2181.7 2145.79 2176.3C2145.79 2170.9 2144.59 2165.8 2142.19 2161C2139.79 2156.2 2136.39 2152 2131.99 2148.4C2127.79 2144.8 2122.59 2142 2116.39 2140C2110.19 2137.8 2103.19 2136.7 2095.39 2136.7Z" fill="black"/>
</g>
</g>
<defs>
<filter id="filter0_i_0_1" x="1854" y="-7" width="516" height="519" filterUnits="userSpaceOnUse" color-interpolation-filters="sRGB">
<feFlood flood-opacity="0" result="BackgroundImageFix"/>
<feBlend mode="normal" in="SourceGraphic" in2="BackgroundImageFix" result="shape"/>
<feColorMatrix in="SourceAlpha" type="matrix" values="0 0 0 0 0 0 0 0 0 0 0 0 0 0 0 0 0 0 127 0" result="hardAlpha"/>
<feOffset dx="4" dy="-7"/>
<feGaussianBlur stdDeviation="81.45"/>
<feComposite in2="hardAlpha" operator="arithmetic" k2="-1" k3="1"/>
<feColorMatrix type="matrix" values="0 0 0 0 0 0 0 0 0 0 0 0 0 0 0 0 0 0 1 0"/>
<feBlend mode="normal" in2="shape" result="effect1_innerShadow_0_1"/>
</filter>
<filter id="filter1_i_0_1" x="4406" y="126" width="370" height="274.001" filterUnits="userSpaceOnUse" color-interpolation-filters="sRGB">
<feFlood flood-opacity="0" result="BackgroundImageFix"/>
<feBlend mode="normal" in="SourceGraphic" in2="BackgroundImageFix" result="shape"/>
<feColorMatrix in="SourceAlpha" type="matrix" values="0 0 0 0 0 0 0 0 0 0 0 0 0 0 0 0 0 0 127 0" result="hardAlpha"/>
<feOffset dx="18" dy="15"/>
<feGaussianBlur stdDeviation="40"/>
<feComposite in2="hardAlpha" operator="arithmetic" k2="-1" k3="1"/>
<feColorMatrix type="matrix" values="0 0 0 0 1 0 0 0 0 1 0 0 0 0 1 0 0 0 0.18 0"/>
<feBlend mode="normal" in2="shape" result="effect1_innerShadow_0_1"/>
</filter>
<filter id="filter2_b_0_1" x="4373" y="93" width="284" height="130.232" filterUnits="userSpaceOnUse" color-interpolation-filters="sRGB">
<feFlood flood-opacity="0" result="BackgroundImageFix"/>
<feGaussianBlur in="BackgroundImageFix" stdDeviation="16.5"/>
<feComposite in2="SourceAlpha" operator="in" result="effect1_backgroundBlur_0_1"/>
<feBlend mode="normal" in="SourceGraphic" in2="effect1_backgroundBlur_0_1" result="shape"/>
</filter>
<filter id="filter3_b_0_1" x="4373" y="127.249" width="418" height="290.752" filterUnits="userSpaceOnUse" color-interpolation-filters="sRGB">
<feFlood flood-opacity="0" result="BackgroundImageFix"/>
<feGaussianBlur in="BackgroundImageFix" stdDeviation="16.5"/>
<feComposite in2="SourceAlpha" operator="in" result="effect1_backgroundBlur_0_1"/>
<feBlend mode="normal" in="SourceGraphic" in2="effect1_backgroundBlur_0_1" result="shape"/>
</filter>
<filter id="filter4_i_0_1" x="1418" y="172" width="249" height="252.435" filterUnits="userSpaceOnUse" color-interpolation-filters="sRGB">
<feFlood flood-opacity="0" result="BackgroundImageFix"/>
<feBlend mode="normal" in="SourceGraphic" in2="BackgroundImageFix" result="shape"/>
<feColorMatrix in="SourceAlpha" type="matrix" values="0 0 0 0 0 0 0 0 0 0 0 0 0 0 0 0 0 0 127 0" result="hardAlpha"/>
<feOffset dx="2" dy="14"/>
<feGaussianBlur stdDeviation="18.55"/>
<feComposite in2="hardAlpha" operator="arithmetic" k2="-1" k3="1"/>
<feColorMatrix type="matrix" values="0 0 0 0 1 0 0 0 0 1 0 0 0 0 1 0 0 0 1 0"/>
<feBlend mode="normal" in2="shape" result="effect1_innerShadow_0_1"/>
</filter>
<filter id="filter5_i_0_1" x="1318" y="114" width="248" height="249.435" filterUnits="userSpaceOnUse" color-interpolation-filters="sRGB">
<feFlood flood-opacity="0" result="BackgroundImageFix"/>
<feBlend mode="normal" in="SourceGraphic" in2="BackgroundImageFix" result="shape"/>
<feColorMatrix in="SourceAlpha" type="matrix" values="0 0 0 0 0 0 0 0 0 0 0 0 0 0 0 0 0 0 127 0" result="hardAlpha"/>
<feOffset dx="-1" dy="11"/>
<feGaussianBlur stdDeviation="15.2"/>
<feComposite in2="hardAlpha" operator="arithmetic" k2="-1" k3="1"/>
<feColorMatrix type="matrix" values="0 0 0 0 1 0 0 0 0 1 0 0 0 0 1 0 0 0 1 0"/>
<feBlend mode="normal" in2="shape" result="effect1_innerShadow_0_1"/>
</filter>
<filter id="filter6_i_0_1" x="4442.08" y="718" width="287.831" height="290" filterUnits="userSpaceOnUse" color-interpolation-filters="sRGB">
<feFlood flood-opacity="0" result="BackgroundImageFix"/>
<feBlend mode="normal" in="SourceGraphic" in2="BackgroundImageFix" result="shape"/>
<feColorMatrix in="SourceAlpha" type="matrix" values="0 0 0 0 0 0 0 0 0 0 0 0 0 0 0 0 0 0 127 0" result="hardAlpha"/>
<feOffset dx="8" dy="4"/>
<feGaussianBlur stdDeviation="14.2"/>
<feComposite in2="hardAlpha" operator="arithmetic" k2="-1" k3="1"/>
<feColorMatrix type="matrix" values="0 0 0 0 1 0 0 0 0 1 0 0 0 0 1 0 0 0 1 0"/>
<feBlend mode="normal" in2="shape" result="effect1_innerShadow_0_1"/>
</filter>
<filter id="filter7_i_0_1" x="5029.51" y="693" width="357.923" height="342" filterUnits="userSpaceOnUse" color-interpolation-filters="sRGB">
<feFlood flood-opacity="0" result="BackgroundImageFix"/>
<feBlend mode="normal" in="SourceGraphic" in2="BackgroundImageFix" result="shape"/>
<feColorMatrix in="SourceAlpha" type="matrix" values="0 0 0 0 0 0 0 0 0 0 0 0 0 0 0 0 0 0 127 0" result="hardAlpha"/>
<feOffset dx="17" dy="5"/>
<feGaussianBlur stdDeviation="37"/>
<feComposite in2="hardAlpha" operator="arithmetic" k2="-1" k3="1"/>
<feColorMatrix type="matrix" values="0 0 0 0 1 0 0 0 0 1 0 0 0 0 1 0 0 0 1 0"/>
<feBlend mode="normal" in2="shape" result="effect1_innerShadow_0_1"/>
</filter>
<filter id="filter8_di_0_1" x="3673" y="649" width="518.008" height="471" filterUnits="userSpaceOnUse" color-interpolation-filters="sRGB">
<feFlood flood-opacity="0" result="BackgroundImageFix"/>
<feColorMatrix in="SourceAlpha" type="matrix" values="0 0 0 0 0 0 0 0 0 0 0 0 0 0 0 0 0 0 127 0" result="hardAlpha"/>
<feOffset dx="9" dy="11"/>
<feGaussianBlur stdDeviation="62.5"/>
<feComposite in2="hardAlpha" operator="out"/>
<feColorMatrix type="matrix" values="0 0 0 0 0 0 0 0 0 0 0 0 0 0 0 0 0 0 0.1 0"/>
<feBlend mode="normal" in2="BackgroundImageFix" result="effect1_dropShadow_0_1"/>
<feBlend mode="normal" in="SourceGraphic" in2="effect1_dropShadow_0_1" result="shape"/>
<feColorMatrix in="SourceAlpha" type="matrix" values="0 0 0 0 0 0 0 0 0 0 0 0 0 0 0 0 0 0 127 0" result="hardAlpha"/>
<feOffset dx="15" dy="9"/>
<feGaussianBlur stdDeviation="120.95"/>
<feComposite in2="hardAlpha" operator="arithmetic" k2="-1" k3="1"/>
<feColorMatrix type="matrix" values="0 0 0 0 1 0 0 0 0 1 0 0 0 0 1 0 0 0 1 0"/>
<feBlend mode="normal" in2="shape" result="effect2_innerShadow_0_1"/>
</filter>
<filter id="filter9_di_0_1" x="3708" y="654" width="565" height="466" filterUnits="userSpaceOnUse" color-interpolation-filters="sRGB">
<feFlood flood-opacity="0" result="BackgroundImageFix"/>
<feColorMatrix in="SourceAlpha" type="matrix" values="0 0 0 0 0 0 0 0 0 0 0 0 0 0 0 0 0 0 127 0" result="hardAlpha"/>
<feOffset dx="9" dy="11"/>
<feGaussianBlur stdDeviation="62.5"/>
<feComposite in2="hardAlpha" operator="out"/>
<feColorMatrix type="matrix" values="0 0 0 0 0 0 0 0 0 0 0 0 0 0 0 0 0 0 0.1 0"/>
<feBlend mode="normal" in2="BackgroundImageFix" result="effect1_dropShadow_0_1"/>
<feBlend mode="normal" in="SourceGraphic" in2="effect1_dropShadow_0_1" result="shape"/>
<feColorMatrix in="SourceAlpha" type="matrix" values="0 0 0 0 0 0 0 0 0 0 0 0 0 0 0 0 0 0 127 0" result="hardAlpha"/>
<feOffset dx="15" dy="9"/>
<feGaussianBlur stdDeviation="120.95"/>
<feComposite in2="hardAlpha" operator="arithmetic" k2="-1" k3="1"/>
<feColorMatrix type="matrix" values="0 0 0 0 1 0 0 0 0 1 0 0 0 0 1 0 0 0 1 0"/>
<feBlend mode="normal" in2="shape" result="effect2_innerShadow_0_1"/>
</filter>
<filter id="filter10_di_0_1" x="3673" y="624" width="600" height="405.784" filterUnits="userSpaceOnUse" color-interpolation-filters="sRGB">
<feFlood flood-opacity="0" result="BackgroundImageFix"/>
<feColorMatrix in="SourceAlpha" type="matrix" values="0 0 0 0 0 0 0 0 0 0 0 0 0 0 0 0 0 0 127 0" result="hardAlpha"/>
<feOffset dx="9" dy="11"/>
<feGaussianBlur stdDeviation="62.5"/>
<feComposite in2="hardAlpha" operator="out"/>
<feColorMatrix type="matrix" values="0 0 0 0 0 0 0 0 0 0 0 0 0 0 0 0 0 0 0.1 0"/>
<feBlend mode="normal" in2="BackgroundImageFix" result="effect1_dropShadow_0_1"/>
<feBlend mode="normal" in="SourceGraphic" in2="effect1_dropShadow_0_1" result="shape"/>
<feColorMatrix in="SourceAlpha" type="matrix" values="0 0 0 0 0 0 0 0 0 0 0 0 0 0 0 0 0 0 127 0" result="hardAlpha"/>
<feOffset dx="15" dy="9"/>
<feGaussianBlur stdDeviation="120.95"/>
<feComposite in2="hardAlpha" operator="arithmetic" k2="-1" k3="1"/>
<feColorMatrix type="matrix" values="0 0 0 0 1 0 0 0 0 1 0 0 0 0 1 0 0 0 1 0"/>
<feBlend mode="normal" in2="shape" result="effect2_innerShadow_0_1"/>
</filter>
<filter id="filter11_d_0_1" x="3235.02" y="673" width="234.21" height="234.696" filterUnits="userSpaceOnUse" color-interpolation-filters="sRGB">
<feFlood flood-opacity="0" result="BackgroundImageFix"/>
<feColorMatrix in="SourceAlpha" type="matrix" values="0 0 0 0 0 0 0 0 0 0 0 0 0 0 0 0 0 0 127 0" result="hardAlpha"/>
<feOffset dx="7" dy="19"/>
<feGaussianBlur stdDeviation="23.5"/>
<feComposite in2="hardAlpha" operator="out"/>
<feColorMatrix type="matrix" values="0 0 0 0 0 0 0 0 0 0 0 0 0 0 0 0 0 0 0.05 0"/>
<feBlend mode="normal" in2="BackgroundImageFix" result="effect1_dropShadow_0_1"/>
<feBlend mode="normal" in="SourceGraphic" in2="effect1_dropShadow_0_1" result="shape"/>
</filter>
<filter id="filter12_d_0_1" x="3137.79" y="804.932" width="431.414" height="297.136" filterUnits="userSpaceOnUse" color-interpolation-filters="sRGB">
<feFlood flood-opacity="0" result="BackgroundImageFix"/>
<feColorMatrix in="SourceAlpha" type="matrix" values="0 0 0 0 0 0 0 0 0 0 0 0 0 0 0 0 0 0 127 0" result="hardAlpha"/>
<feOffset dx="7" dy="19"/>
<feGaussianBlur stdDeviation="23.5"/>
<feComposite in2="hardAlpha" operator="out"/>
<feColorMatrix type="matrix" values="0 0 0 0 0 0 0 0 0 0 0 0 0 0 0 0 0 0 0.05 0"/>
<feBlend mode="normal" in2="BackgroundImageFix" result="effect1_dropShadow_0_1"/>
<feBlend mode="normal" in="SourceGraphic" in2="effect1_dropShadow_0_1" result="shape"/>
</filter>
<filter id="filter13_i_0_1" x="2572.83" y="88" width="344.339" height="348.922" filterUnits="userSpaceOnUse" color-interpolation-filters="sRGB">
<feFlood flood-opacity="0" result="BackgroundImageFix"/>
<feBlend mode="normal" in="SourceGraphic" in2="BackgroundImageFix" result="shape"/>
<feColorMatrix in="SourceAlpha" type="matrix" values="0 0 0 0 0 0 0 0 0 0 0 0 0 0 0 0 0 0 127 0" result="hardAlpha"/>
<feOffset dx="34" dy="15"/>
<feGaussianBlur stdDeviation="41.4"/>
<feComposite in2="hardAlpha" operator="arithmetic" k2="-1" k3="1"/>
<feColorMatrix type="matrix" values="0 0 0 0 1 0 0 0 0 1 0 0 0 0 1 0 0 0 1 0"/>
<feBlend mode="normal" in2="shape" result="effect1_innerShadow_0_1"/>
</filter>
<filter id="filter14_i_0_1" x="101" y="724" width="312" height="17" filterUnits="userSpaceOnUse" color-interpolation-filters="sRGB">
<feFlood flood-opacity="0" result="BackgroundImageFix"/>
<feBlend mode="normal" in="SourceGraphic" in2="BackgroundImageFix" result="shape"/>
<feColorMatrix in="SourceAlpha" type="matrix" values="0 0 0 0 0 0 0 0 0 0 0 0 0 0 0 0 0 0 127 0" result="hardAlpha"/>
<feOffset dx="3" dy="2"/>
<feGaussianBlur stdDeviation="17.5"/>
<feComposite in2="hardAlpha" operator="arithmetic" k2="-1" k3="1"/>
<feColorMatrix type="matrix" values="0 0 0 0 1 0 0 0 0 1 0 0 0 0 1 0 0 0 1 0"/>
<feBlend mode="normal" in2="shape" result="effect1_innerShadow_0_1"/>
</filter>
<filter id="filter15_i_0_1" x="101" y="826" width="312" height="17" filterUnits="userSpaceOnUse" color-interpolation-filters="sRGB">
<feFlood flood-opacity="0" result="BackgroundImageFix"/>
<feBlend mode="normal" in="SourceGraphic" in2="BackgroundImageFix" result="shape"/>
<feColorMatrix in="SourceAlpha" type="matrix" values="0 0 0 0 0 0 0 0 0 0 0 0 0 0 0 0 0 0 127 0" result="hardAlpha"/>
<feOffset dx="3" dy="2"/>
<feGaussianBlur stdDeviation="17.5"/>
<feComposite in2="hardAlpha" operator="arithmetic" k2="-1" k3="1"/>
<feColorMatrix type="matrix" values="0 0 0 0 1 0 0 0 0 1 0 0 0 0 1 0 0 0 1 0"/>
<feBlend mode="normal" in2="shape" result="effect1_innerShadow_0_1"/>
</filter>
<filter id="filter16_i_0_1" x="101" y="928" width="312" height="17" filterUnits="userSpaceOnUse" color-interpolation-filters="sRGB">
<feFlood flood-opacity="0" result="BackgroundImageFix"/>
<feBlend mode="normal" in="SourceGraphic" in2="BackgroundImageFix" result="shape"/>
<feColorMatrix in="SourceAlpha" type="matrix" values="0 0 0 0 0 0 0 0 0 0 0 0 0 0 0 0 0 0 127 0" result="hardAlpha"/>
<feOffset dx="3" dy="2"/>
<feGaussianBlur stdDeviation="17.5"/>
<feComposite in2="hardAlpha" operator="arithmetic" k2="-1" k3="1"/>
<feColorMatrix type="matrix" values="0 0 0 0 1 0 0 0 0 1 0 0 0 0 1 0 0 0 1 0"/>
<feBlend mode="normal" in2="shape" result="effect1_innerShadow_0_1"/>
</filter>
<filter id="filter17_i_0_1" x="5023.95" y="100.364" width="368.899" height="342.697" filterUnits="userSpaceOnUse" color-interpolation-filters="sRGB">
<feFlood flood-opacity="0" result="BackgroundImageFix"/>
<feBlend mode="normal" in="SourceGraphic" in2="BackgroundImageFix" result="shape"/>
<feColorMatrix in="SourceAlpha" type="matrix" values="0 0 0 0 0 0 0 0 0 0 0 0 0 0 0 0 0 0 127 0" result="hardAlpha"/>
<feOffset dx="9" dy="8"/>
<feGaussianBlur stdDeviation="14"/>
<feComposite in2="hardAlpha" operator="arithmetic" k2="-1" k3="1"/>
<feColorMatrix type="matrix" values="0 0 0 0 1 0 0 0 0 1 0 0 0 0 1 0 0 0 0.25 0"/>
<feBlend mode="normal" in2="shape" result="effect1_innerShadow_0_1"/>
</filter>
<filter id="filter18_i_0_1" x="684" y="676" width="372" height="391" filterUnits="userSpaceOnUse" color-interpolation-filters="sRGB">
<feFlood flood-opacity="0" result="BackgroundImageFix"/>
<feBlend mode="normal" in="SourceGraphic" in2="BackgroundImageFix" result="shape"/>
<feColorMatrix in="SourceAlpha" type="matrix" values="0 0 0 0 0 0 0 0 0 0 0 0 0 0 0 0 0 0 127 0" result="hardAlpha"/>
<feOffset dx="-2" dy="21"/>
<feGaussianBlur stdDeviation="24.5"/>
<feComposite in2="hardAlpha" operator="arithmetic" k2="-1" k3="1"/>
<feColorMatrix type="matrix" values="0 0 0 0 1 0 0 0 0 1 0 0 0 0 1 0 0 0 1 0"/>
<feBlend mode="normal" in2="shape" result="effect1_innerShadow_0_1"/>
</filter>
<filter id="filter19_i_0_1" x="682" y="676" width="374" height="383" filterUnits="userSpaceOnUse" color-interpolation-filters="sRGB">
<feFlood flood-opacity="0" result="BackgroundImageFix"/>
<feBlend mode="normal" in="SourceGraphic" in2="BackgroundImageFix" result="shape"/>
<feColorMatrix in="SourceAlpha" type="matrix" values="0 0 0 0 0 0 0 0 0 0 0 0 0 0 0 0 0 0 127 0" result="hardAlpha"/>
<feOffset dx="-4" dy="13"/>
<feGaussianBlur stdDeviation="24.5"/>
<feComposite in2="hardAlpha" operator="arithmetic" k2="-1" k3="1"/>
<feColorMatrix type="matrix" values="0 0 0 0 1 0 0 0 0 1 0 0 0 0 1 0 0 0 1 0"/>
<feBlend mode="normal" in2="shape" result="effect1_innerShadow_0_1"/>
</filter>
<filter id="filter20_i_0_1" x="1020" y="676" width="55" height="47" filterUnits="userSpaceOnUse" color-interpolation-filters="sRGB">
<feFlood flood-opacity="0" result="BackgroundImageFix"/>
<feBlend mode="normal" in="SourceGraphic" in2="BackgroundImageFix" result="shape"/>
<feColorMatrix in="SourceAlpha" type="matrix" values="0 0 0 0 0 0 0 0 0 0 0 0 0 0 0 0 0 0 127 0" result="hardAlpha"/>
<feOffset dx="14" dy="4"/>
<feGaussianBlur stdDeviation="6"/>
<feComposite in2="hardAlpha" operator="arithmetic" k2="-1" k3="1"/>
<feColorMatrix type="matrix" values="0 0 0 0 1 0 0 0 0 1 0 0 0 0 1 0 0 0 0.25 0"/>
<feBlend mode="normal" in2="shape" result="effect1_innerShadow_0_1"/>
</filter>
<filter id="filter21_b_0_1" x="3936" y="84" width="245" height="245" filterUnits="userSpaceOnUse" color-interpolation-filters="sRGB">
<feFlood flood-opacity="0" result="BackgroundImageFix"/>
<feGaussianBlur in="BackgroundImageFix" stdDeviation="16.5"/>
<feComposite in2="SourceAlpha" operator="in" result="effect1_backgroundBlur_0_1"/>
<feBlend mode="normal" in="SourceGraphic" in2="effect1_backgroundBlur_0_1" result="shape"/>
</filter>
<filter id="filter22_i_0_1" x="3779" y="123" width="402" height="267.097" filterUnits="userSpaceOnUse" color-interpolation-filters="sRGB">
<feFlood flood-opacity="0" result="BackgroundImageFix"/>
<feBlend mode="normal" in="SourceGraphic" in2="BackgroundImageFix" result="shape"/>
<feColorMatrix in="SourceAlpha" type="matrix" values="0 0 0 0 0 0 0 0 0 0 0 0 0 0 0 0 0 0 127 0" result="hardAlpha"/>
<feOffset dx="37" dy="1"/>
<feGaussianBlur stdDeviation="41"/>
<feComposite in2="hardAlpha" operator="arithmetic" k2="-1" k3="1"/>
<feColorMatrix type="matrix" values="0 0 0 0 1 0 0 0 0 1 0 0 0 0 1 0 0 0 1 0"/>
<feBlend mode="normal" in2="shape" result="effect1_innerShadow_0_1"/>
</filter>
<filter id="filter23_i_0_1" x="1300" y="668" width="390" height="387" filterUnits="userSpaceOnUse" color-interpolation-filters="sRGB">
<feFlood flood-opacity="0" result="BackgroundImageFix"/>
<feBlend mode="normal" in="SourceGraphic" in2="BackgroundImageFix" result="shape"/>
<feColorMatrix in="SourceAlpha" type="matrix" values="0 0 0 0 0 0 0 0 0 0 0 0 0 0 0 0 0 0 127 0" result="hardAlpha"/>
<feOffset dx="5" dy="2"/>
<feGaussianBlur stdDeviation="10.8"/>
<feComposite in2="hardAlpha" operator="arithmetic" k2="-1" k3="1"/>
<feColorMatrix type="matrix" values="0 0 0 0 1 0 0 0 0 1 0 0 0 0 1 0 0 0 1 0"/>
<feBlend mode="normal" in2="shape" result="effect1_innerShadow_0_1"/>
</filter>
<filter id="filter24_i_0_1" x="1938" y="689" width="349" height="347" filterUnits="userSpaceOnUse" color-interpolation-filters="sRGB">
<feFlood flood-opacity="0" result="BackgroundImageFix"/>
<feBlend mode="normal" in="SourceGraphic" in2="BackgroundImageFix" result="shape"/>
<feColorMatrix in="SourceAlpha" type="matrix" values="0 0 0 0 0 0 0 0 0 0 0 0 0 0 0 0 0 0 127 0" result="hardAlpha"/>
<feOffset dx="6" dy="4"/>
<feGaussianBlur stdDeviation="38"/>
<feComposite in2="hardAlpha" operator="arithmetic" k2="-1" k3="1"/>
<feColorMatrix type="matrix" values="0 0 0 0 1 0 0 0 0 1 0 0 0 0 1 0 0 0 1 0"/>
<feBlend mode="normal" in2="shape" result="effect1_innerShadow_0_1"/>
</filter>
<filter id="filter25_i_0_1" x="2559.96" y="918.242" width="165.32" height="94.5498" filterUnits="userSpaceOnUse" color-interpolation-filters="sRGB">
<feFlood flood-opacity="0" result="BackgroundImageFix"/>
<feBlend mode="normal" in="SourceGraphic" in2="BackgroundImageFix" result="shape"/>
<feColorMatrix in="SourceAlpha" type="matrix" values="0 0 0 0 0 0 0 0 0 0 0 0 0 0 0 0 0 0 127 0" result="hardAlpha"/>
<feOffset dx="37" dy="1"/>
<feGaussianBlur stdDeviation="41"/>
<feComposite in2="hardAlpha" operator="arithmetic" k2="-1" k3="1"/>
<feColorMatrix type="matrix" values="0 0 0 0 1 0 0 0 0 1 0 0 0 0 1 0 0 0 1 0"/>
<feBlend mode="normal" in2="shape" result="effect1_innerShadow_0_1"/>
</filter>
<filter id="filter26_i_0_1" x="2804.98" y="728.469" width="87.8359" height="88.8248" filterUnits="userSpaceOnUse" color-interpolation-filters="sRGB">
<feFlood flood-opacity="0" result="BackgroundImageFix"/>
<feBlend mode="normal" in="SourceGraphic" in2="BackgroundImageFix" result="shape"/>
<feColorMatrix in="SourceAlpha" type="matrix" values="0 0 0 0 0 0 0 0 0 0 0 0 0 0 0 0 0 0 127 0" result="hardAlpha"/>
<feOffset dx="-1" dy="5"/>
<feGaussianBlur stdDeviation="5.65"/>
<feComposite in2="hardAlpha" operator="arithmetic" k2="-1" k3="1"/>
<feColorMatrix type="matrix" values="0 0 0 0 1 0 0 0 0 1 0 0 0 0 1 0 0 0 1 0"/>
<feBlend mode="normal" in2="shape" result="effect1_innerShadow_0_1"/>
</filter>
<filter id="filter27_i_0_1" x="2770.18" y="708.078" width="87.8359" height="88.8248" filterUnits="userSpaceOnUse" color-interpolation-filters="sRGB">
<feFlood flood-opacity="0" result="BackgroundImageFix"/>
<feBlend mode="normal" in="SourceGraphic" in2="BackgroundImageFix" result="shape"/>
<feColorMatrix in="SourceAlpha" type="matrix" values="0 0 0 0 0 0 0 0 0 0 0 0 0 0 0 0 0 0 127 0" result="hardAlpha"/>
<feOffset dx="-1" dy="5"/>
<feGaussianBlur stdDeviation="6.65"/>
<feComposite in2="hardAlpha" operator="arithmetic" k2="-1" k3="1"/>
<feColorMatrix type="matrix" values="0 0 0 0 1 0 0 0 0 1 0 0 0 0 1 0 0 0 1 0"/>
<feBlend mode="normal" in2="shape" result="effect1_innerShadow_0_1"/>
</filter>
<filter id="filter28_di_0_1" x="1893.47" y="1306" width="350.644" height="338" filterUnits="userSpaceOnUse" color-interpolation-filters="sRGB">
<feFlood flood-opacity="0" result="BackgroundImageFix"/>
<feColorMatrix in="SourceAlpha" type="matrix" values="0 0 0 0 0 0 0 0 0 0 0 0 0 0 0 0 0 0 127 0" result="hardAlpha"/>
<feOffset dx="9" dy="9"/>
<feGaussianBlur stdDeviation="11.5"/>
<feComposite in2="hardAlpha" operator="out"/>
<feColorMatrix type="matrix" values="0 0 0 0 0 0 0 0 0 0 0 0 0 0 0 0 0 0 0.13 0"/>
<feBlend mode="normal" in2="BackgroundImageFix" result="effect1_dropShadow_0_1"/>
<feBlend mode="normal" in="SourceGraphic" in2="effect1_dropShadow_0_1" result="shape"/>
<feColorMatrix in="SourceAlpha" type="matrix" values="0 0 0 0 0 0 0 0 0 0 0 0 0 0 0 0 0 0 127 0" result="hardAlpha"/>
<feOffset dx="9" dy="4"/>
<feGaussianBlur stdDeviation="6.05"/>
<feComposite in2="hardAlpha" operator="arithmetic" k2="-1" k3="1"/>
<feColorMatrix type="matrix" values="0 0 0 0 1 0 0 0 0 1 0 0 0 0 1 0 0 0 1 0"/>
<feBlend mode="normal" in2="shape" result="effect2_innerShadow_0_1"/>
</filter>
<filter id="filter29_di_0_1" x="2016" y="1339" width="168" height="120" filterUnits="userSpaceOnUse" color-interpolation-filters="sRGB">
<feFlood flood-opacity="0" result="BackgroundImageFix"/>
<feColorMatrix in="SourceAlpha" type="matrix" values="0 0 0 0 0 0 0 0 0 0 0 0 0 0 0 0 0 0 127 0" result="hardAlpha"/>
<feOffset dx="-1" dy="9"/>
<feComposite in2="hardAlpha" operator="out"/>
<feColorMatrix type="matrix" values="0 0 0 0 0.530094 0 0 0 0 0.530094 0 0 0 0 0.530094 0 0 0 1 0"/>
<feBlend mode="normal" in2="BackgroundImageFix" result="effect1_dropShadow_0_1"/>
<feBlend mode="normal" in="SourceGraphic" in2="effect1_dropShadow_0_1" result="shape"/>
<feColorMatrix in="SourceAlpha" type="matrix" values="0 0 0 0 0 0 0 0 0 0 0 0 0 0 0 0 0 0 127 0" result="hardAlpha"/>
<feOffset dx="7" dy="4"/>
<feGaussianBlur stdDeviation="9.9"/>
<feComposite in2="hardAlpha" operator="arithmetic" k2="-1" k3="1"/>
<feColorMatrix type="matrix" values="0 0 0 0 1 0 0 0 0 1 0 0 0 0 1 0 0 0 1 0"/>
<feBlend mode="normal" in2="shape" result="effect2_innerShadow_0_1"/>
</filter>
<filter id="filter30_d_0_1" x="2021.3" y="1477" width="263.622" height="111.5" filterUnits="userSpaceOnUse" color-interpolation-filters="sRGB">
<feFlood flood-opacity="0" result="BackgroundImageFix"/>
<feColorMatrix in="SourceAlpha" type="matrix" values="0 0 0 0 0 0 0 0 0 0 0 0 0 0 0 0 0 0 127 0" result="hardAlpha"/>
<feOffset dx="9" dy="9"/>
<feGaussianBlur stdDeviation="11.5"/>
<feComposite in2="hardAlpha" operator="out"/>
<feColorMatrix type="matrix" values="0 0 0 0 0 0 0 0 0 0 0 0 0 0 0 0 0 0 0.13 0"/>
<feBlend mode="normal" in2="BackgroundImageFix" result="effect1_dropShadow_0_1"/>
<feBlend mode="normal" in="SourceGraphic" in2="effect1_dropShadow_0_1" result="shape"/>
</filter>
<filter id="filter31_i_0_1" x="707" y="1323" width="373" height="317" filterUnits="userSpaceOnUse" color-interpolation-filters="sRGB">
<feFlood flood-opacity="0" result="BackgroundImageFix"/>
<feBlend mode="normal" in="SourceGraphic" in2="BackgroundImageFix" result="shape"/>
<feColorMatrix in="SourceAlpha" type="matrix" values="0 0 0 0 0 0 0 0 0 0 0 0 0 0 0 0 0 0 127 0" result="hardAlpha"/>
<feOffset dx="8" dy="9"/>
<feGaussianBlur stdDeviation="13.05"/>
<feComposite in2="hardAlpha" operator="arithmetic" k2="-1" k3="1"/>
<feColorMatrix type="matrix" values="0 0 0 0 1 0 0 0 0 1 0 0 0 0 1 0 0 0 1 0"/>
<feBlend mode="normal" in2="shape" result="effect1_innerShadow_0_1"/>
</filter>
<filter id="filter32_di_0_1" x="1326.47" y="1306" width="350.644" height="338" filterUnits="userSpaceOnUse" color-interpolation-filters="sRGB">
<feFlood flood-opacity="0" result="BackgroundImageFix"/>
<feColorMatrix in="SourceAlpha" type="matrix" values="0 0 0 0 0 0 0 0 0 0 0 0 0 0 0 0 0 0 127 0" result="hardAlpha"/>
<feOffset dx="9" dy="9"/>
<feGaussianBlur stdDeviation="11.5"/>
<feComposite in2="hardAlpha" operator="out"/>
<feColorMatrix type="matrix" values="0 0 0 0 0 0 0 0 0 0 0 0 0 0 0 0 0 0 0.13 0"/>
<feBlend mode="normal" in2="BackgroundImageFix" result="effect1_dropShadow_0_1"/>
<feBlend mode="normal" in="SourceGraphic" in2="effect1_dropShadow_0_1" result="shape"/>
<feColorMatrix in="SourceAlpha" type="matrix" values="0 0 0 0 0 0 0 0 0 0 0 0 0 0 0 0 0 0 127 0" result="hardAlpha"/>
<feOffset dx="9" dy="4"/>
<feGaussianBlur stdDeviation="6.05"/>
<feComposite in2="hardAlpha" operator="arithmetic" k2="-1" k3="1"/>
<feColorMatrix type="matrix" values="0 0 0 0 1 0 0 0 0 1 0 0 0 0 1 0 0 0 1 0"/>
<feBlend mode="normal" in2="shape" result="effect2_innerShadow_0_1"/>
</filter>
<filter id="filter33_di_0_1" x="1449" y="1339" width="168" height="120" filterUnits="userSpaceOnUse" color-interpolation-filters="sRGB">
<feFlood flood-opacity="0" result="BackgroundImageFix"/>
<feColorMatrix in="SourceAlpha" type="matrix" values="0 0 0 0 0 0 0 0 0 0 0 0 0 0 0 0 0 0 127 0" result="hardAlpha"/>
<feOffset dx="-1" dy="9"/>
<feComposite in2="hardAlpha" operator="out"/>
<feColorMatrix type="matrix" values="0 0 0 0 0.530094 0 0 0 0 0.530094 0 0 0 0 0.530094 0 0 0 1 0"/>
<feBlend mode="normal" in2="BackgroundImageFix" result="effect1_dropShadow_0_1"/>
<feBlend mode="normal" in="SourceGraphic" in2="effect1_dropShadow_0_1" result="shape"/>
<feColorMatrix in="SourceAlpha" type="matrix" values="0 0 0 0 0 0 0 0 0 0 0 0 0 0 0 0 0 0 127 0" result="hardAlpha"/>
<feOffset dx="7" dy="4"/>
<feGaussianBlur stdDeviation="9.9"/>
<feComposite in2="hardAlpha" operator="arithmetic" k2="-1" k3="1"/>
<feColorMatrix type="matrix" values="0 0 0 0 1 0 0 0 0 1 0 0 0 0 1 0 0 0 1 0"/>
<feBlend mode="normal" in2="shape" result="effect2_innerShadow_0_1"/>
</filter>
<filter id="filter34_d_0_1" x="1454.3" y="1477" width="263.622" height="111.5" filterUnits="userSpaceOnUse" color-interpolation-filters="sRGB">
<feFlood flood-opacity="0" result="BackgroundImageFix"/>
<feColorMatrix in="SourceAlpha" type="matrix" values="0 0 0 0 0 0 0 0 0 0 0 0 0 0 0 0 0 0 127 0" result="hardAlpha"/>
<feOffset dx="9" dy="9"/>
<feGaussianBlur stdDeviation="11.5"/>
<feComposite in2="hardAlpha" operator="out"/>
<feColorMatrix type="matrix" values="0 0 0 0 0 0 0 0 0 0 0 0 0 0 0 0 0 0 0.13 0"/>
<feBlend mode="normal" in2="BackgroundImageFix" result="effect1_dropShadow_0_1"/>
<feBlend mode="normal" in="SourceGraphic" in2="effect1_dropShadow_0_1" result="shape"/>
</filter>
<filter id="filter35_f_0_1" x="4870" y="1428" width="661" height="126" filterUnits="userSpaceOnUse" color-interpolation-filters="sRGB">
<feFlood flood-opacity="0" result="BackgroundImageFix"/>
<feBlend mode="normal" in="SourceGraphic" in2="BackgroundImageFix" result="shape"/>
<feGaussianBlur stdDeviation="26" result="effect1_foregroundBlur_0_1"/>
</filter>
<filter id="filter36_i_0_1" x="0" y="1210" width="574" height="559" filterUnits="userSpaceOnUse" color-interpolation-filters="sRGB">
<feFlood flood-opacity="0" result="BackgroundImageFix"/>
<feBlend mode="normal" in="SourceGraphic" in2="BackgroundImageFix" result="shape"/>
<feColorMatrix in="SourceAlpha" type="matrix" values="0 0 0 0 0 0 0 0 0 0 0 0 0 0 0 0 0 0 127 0" result="hardAlpha"/>
<feOffset dx="62" dy="47"/>
<feGaussianBlur stdDeviation="87.9"/>
<feComposite in2="hardAlpha" operator="arithmetic" k2="-1" k3="1"/>
<feColorMatrix type="matrix" values="0 0 0 0 0 0 0 0 0 0 0 0 0 0 0 0 0 0 0.25 0"/>
<feBlend mode="normal" in2="shape" result="effect1_innerShadow_0_1"/>
</filter>
<radialGradient id="paint0_radial_0_1" cx="0" cy="0" r="1" gradientUnits="userSpaceOnUse" gradientTransform="translate(2081.25 236.75) rotate(61.0757) scale(469.861)">
<stop stop-color="#4B4B4B"/>
<stop offset="0.595067" stop-color="#3E3E3E"/>
<stop offset="1" stop-color="#353535"/>
</radialGradient>
<linearGradient id="paint1_linear_0_1" x1="2110" y1="0" x2="2407.5" y2="619.5" gradientUnits="userSpaceOnUse">
<stop stop-color="#D2D2D2"/>
<stop offset="1" stop-color="#414141"/>
</linearGradient>
<linearGradient id="paint2_linear_0_1" x1="256" y1="7.62939e-06" x2="512" y2="339" gradientUnits="userSpaceOnUse">
<stop stop-color="#00A4FF"/>
<stop offset="1" stop-color="#8ED7FF"/>
</linearGradient>
<linearGradient id="paint3_linear_0_1" x1="46" y1="231" x2="165.07" y2="345.176" gradientUnits="userSpaceOnUse">
<stop stop-color="#E0F4FF"/>
<stop offset="0.987349" stop-color="#ACDAFC" stop-opacity="0.9"/>
</linearGradient>
<linearGradient id="paint4_linear_0_1" x1="5752" y1="7.62939e-06" x2="6008" y2="339" gradientUnits="userSpaceOnUse">
<stop stop-color="#00A4FF"/>
<stop offset="1" stop-color="#8ED7FF"/>
</linearGradient>
<linearGradient id="paint5_linear_0_1" x1="5542" y1="231" x2="5661.07" y2="345.176" gradientUnits="userSpaceOnUse">
<stop stop-color="#E0F4FF"/>
<stop offset="0.987349" stop-color="#ACDAFC" stop-opacity="0.9"/>
</linearGradient>
<linearGradient id="paint6_linear_0_1" x1="3346" y1="1210" x2="3484" y2="1714" gradientUnits="userSpaceOnUse">
<stop stop-color="#60EC66"/>
<stop offset="1" stop-color="#2CC433"/>
</linearGradient>
<linearGradient id="paint7_linear_0_1" x1="109.652" y1="0" x2="109.652" y2="1" gradientUnits="userSpaceOnUse">
<stop stop-color="white"/>
<stop offset="1" stop-color="white"/>
</linearGradient>
<linearGradient id="paint8_linear_0_1" x1="3346" y1="1314.3" x2="3345" y2="1314.3" gradientUnits="userSpaceOnUse">
<stop stop-color="white"/>
<stop offset="1" stop-color="white"/>
</linearGradient>
<linearGradient id="paint9_linear_0_1" x1="256" y1="884.744" x2="256" y2="1354.5" gradientUnits="userSpaceOnUse">
<stop stop-color="#FFEEAF"/>
<stop offset="1" stop-color="white"/>
</linearGradient>
<linearGradient id="paint10_linear_0_1" x1="256" y1="933.071" x2="13.108" y2="1185.66" gradientUnits="userSpaceOnUse">
<stop stop-color="#545454"/>
<stop offset="1" stop-color="#545454" stop-opacity="0.74"/>
</linearGradient>
<linearGradient id="paint11_linear_0_1" x1="775.516" y1="659.887" x2="977.226" y2="1061.52" gradientUnits="userSpaceOnUse">
<stop stop-color="#555555"/>
<stop offset="1" stop-color="#9D9D9D"/>
</linearGradient>
<linearGradient id="paint12_linear_0_1" x1="3964" y1="0" x2="3964" y2="512" gradientUnits="userSpaceOnUse">
<stop stop-color="#00A0FB"/>
<stop offset="1" stop-color="#00A0FB"/>
</linearGradient>
<linearGradient id="paint13_linear_0_1" x1="3992.5" y1="241.92" x2="4284.42" y2="806.719" gradientUnits="userSpaceOnUse">
<stop stop-color="#D9F1FF"/>
<stop offset="1" stop-color="#00A0FB"/>
</linearGradient>
<linearGradient id="paint14_linear_0_1" x1="1596" y1="668" x2="1685" y2="952.5" gradientUnits="userSpaceOnUse">
<stop stop-color="#EE6A19"/>
<stop offset="1" stop-color="#FF6100"/>
</linearGradient>
<linearGradient id="paint15_linear_0_1" x1="2625" y1="668" x2="2715" y2="787.18" gradientUnits="userSpaceOnUse">
<stop stop-color="#00A4FF"/>
<stop offset="1" stop-color="#8ED7FF"/>
</linearGradient>
<linearGradient id="paint16_linear_0_1" x1="2551.17" y1="749.211" x2="2593.03" y2="789.351" gradientUnits="userSpaceOnUse">
<stop stop-color="#E0F4FF"/>
<stop offset="0.987349" stop-color="#ACDAFC" stop-opacity="0.9"/>
</linearGradient>
<linearGradient id="paint17_linear_0_1" x1="2625" y1="875" x2="2625" y2="1055" gradientUnits="userSpaceOnUse">
<stop stop-color="#00A0FB"/>
<stop offset="1" stop-color="#00A0FB"/>
</linearGradient>
<linearGradient id="paint18_linear_0_1" x1="2635.02" y1="960.05" x2="2737.65" y2="1158.61" gradientUnits="userSpaceOnUse">
<stop stop-color="#D9F1FF"/>
<stop offset="1" stop-color="#00A0FB"/>
</linearGradient>
<linearGradient id="paint19_linear_0_1" x1="2059.5" y1="1320" x2="1834.5" y2="1635.5" gradientUnits="userSpaceOnUse">
<stop stop-color="#DCDCDC"/>
<stop offset="1" stop-color="#424242"/>
</linearGradient>
<linearGradient id="paint20_linear_0_1" x1="3964" y1="1210" x2="4190.5" y2="1753.5" gradientUnits="userSpaceOnUse">
<stop stop-color="#B6B6B6"/>
<stop offset="1" stop-color="#888888"/>
</linearGradient>
<linearGradient id="paint21_linear_0_1" x1="4582" y1="1210" x2="4808.5" y2="1753.5" gradientUnits="userSpaceOnUse">
<stop stop-color="white"/>
<stop offset="1" stop-color="#CECECE"/>
</linearGradient>
<linearGradient id="paint22_linear_0_1" x1="4736" y1="1466" x2="4367" y2="1466" gradientUnits="userSpaceOnUse">
<stop stop-color="#FF3D3D"/>
<stop offset="1" stop-color="#FFA2A2"/>
</linearGradient>
<linearGradient id="paint23_linear_0_1" x1="4736" y1="1466" x2="4367" y2="1466" gradientUnits="userSpaceOnUse">
<stop stop-color="#FF3D3D"/>
<stop offset="1" stop-color="#FFA2A2"/>
</linearGradient>
<linearGradient id="paint24_linear_0_1" x1="4736" y1="1466" x2="4367" y2="1466" gradientUnits="userSpaceOnUse">
<stop stop-color="#FFC100"/>
<stop offset="1" stop-color="#FFC100" stop-opacity="0"/>
</linearGradient>
<linearGradient id="paint25_linear_0_1" x1="2728.17" y1="1528.68" x2="2728.17" y2="1913.59" gradientUnits="userSpaceOnUse">
<stop stop-color="#FFEFB6"/>
<stop offset="1" stop-color="white"/>
</linearGradient>
<radialGradient id="paint26_radial_0_1" cx="0" cy="0" r="1" gradientUnits="userSpaceOnUse" gradientTransform="translate(2607.52 1676.57) rotate(139.056) scale(159.732 164.357)">
<stop stop-color="#545454"/>
<stop offset="1" stop-color="#131313"/>
</radialGradient>
<radialGradient id="paint27_radial_0_1" cx="0" cy="0" r="1" gradientUnits="userSpaceOnUse" gradientTransform="translate(1492 1466) rotate(90) scale(256 390.184)">
<stop stop-color="#AFAFAF"/>
<stop offset="1" stop-color="#7A7A7A"/>
</radialGradient>
<linearGradient id="paint28_linear_0_1" x1="1492.5" y1="1320" x2="1267.5" y2="1635.5" gradientUnits="userSpaceOnUse">
<stop stop-color="#DCDCDC"/>
<stop offset="1" stop-color="#424242"/>
</linearGradient>
<linearGradient id="paint29_linear_0_1" x1="5200" y1="1210" x2="5437.5" y2="1833" gradientUnits="userSpaceOnUse">
<stop stop-color="#D8D8D8"/>
<stop offset="1" stop-color="#464646"/>
</linearGradient>
<radialGradient id="paint30_radial_0_1" cx="0" cy="0" r="1" gradientUnits="userSpaceOnUse" gradientTransform="translate(5199.5 1338.5) rotate(90) scale(10.5 175.5)">
<stop stop-color="#555555"/>
<stop offset="1" stop-color="#6F6F6F"/>
</radialGradient>
<radialGradient id="paint31_radial_0_1" cx="0" cy="0" r="1" gradientUnits="userSpaceOnUse" gradientTransform="translate(5200.5 1508.5) rotate(90) scale(10.5 175.5)">
<stop stop-color="#555555"/>
<stop offset="1" stop-color="#6F6F6F"/>
</radialGradient>
<radialGradient id="paint32_radial_0_1" cx="0" cy="0" r="1" gradientUnits="userSpaceOnUse" gradientTransform="translate(5199.5 1423.5) rotate(90) scale(10.5 175.5)">
<stop stop-color="#555555"/>
<stop offset="1" stop-color="#6F6F6F"/>
</radialGradient>
<radialGradient id="paint33_radial_0_1" cx="0" cy="0" r="1" gradientUnits="userSpaceOnUse" gradientTransform="translate(5200.5 1593.5) rotate(90) scale(10.5 175.5)">
<stop stop-color="#555555"/>
<stop offset="1" stop-color="#6F6F6F"/>
</radialGradient>
<radialGradient id="paint34_radial_0_1" cx="0" cy="0" r="1" gradientUnits="userSpaceOnUse" gradientTransform="translate(256 1466) rotate(90) scale(256)">
<stop stop-color="#157319"/>
<stop offset="1" stop-color="#0A440C"/>
</radialGradient>
<linearGradient id="paint35_linear_0_1" x1="256" y1="1210" x2="528.5" y2="2017.5" gradientUnits="userSpaceOnUse">
<stop stop-color="#555555"/>
<stop offset="1" stop-color="#969696"/>
</linearGradient>
<linearGradient id="paint36_linear_0_1" x1="112.5" y1="1229" x2="112.5" y2="1706" gradientUnits="userSpaceOnUse">
<stop stop-color="#4DB651"/>
<stop offset="1" stop-color="#4DB651" stop-opacity="0"/>
</linearGradient>
<linearGradient id="paint37_linear_0_1" x1="64.5" y1="1229" x2="64.5" y2="1706" gradientUnits="userSpaceOnUse">
<stop stop-color="#4DB651"/>
<stop offset="1" stop-color="#4DB651" stop-opacity="0"/>
</linearGradient>
<linearGradient id="paint38_linear_0_1" x1="160.5" y1="1229" x2="160.5" y2="1706" gradientUnits="userSpaceOnUse">
<stop stop-color="#4DB651"/>
<stop offset="1" stop-color="#4DB651" stop-opacity="0"/>
</linearGradient>
<linearGradient id="paint39_linear_0_1" x1="208.5" y1="1229" x2="208.5" y2="1706" gradientUnits="userSpaceOnUse">
<stop stop-color="#4DB651"/>
<stop offset="1" stop-color="#4DB651" stop-opacity="0"/>
</linearGradient>
<linearGradient id="paint40_linear_0_1" x1="256.5" y1="1229" x2="256.5" y2="1706" gradientUnits="userSpaceOnUse">
<stop stop-color="#4DB651"/>
<stop offset="1" stop-color="#4DB651" stop-opacity="0"/>
</linearGradient>
<linearGradient id="paint41_linear_0_1" x1="304.5" y1="1229" x2="304.5" y2="1706" gradientUnits="userSpaceOnUse">
<stop stop-color="#4DB651"/>
<stop offset="1" stop-color="#4DB651" stop-opacity="0"/>
</linearGradient>
<linearGradient id="paint42_linear_0_1" x1="352.5" y1="1229" x2="352.5" y2="1706" gradientUnits="userSpaceOnUse">
<stop stop-color="#4DB651"/>
<stop offset="1" stop-color="#4DB651" stop-opacity="0"/>
</linearGradient>
<linearGradient id="paint43_linear_0_1" x1="400.5" y1="1229" x2="400.5" y2="1706" gradientUnits="userSpaceOnUse">
<stop stop-color="#4DB651"/>
<stop offset="1" stop-color="#4DB651" stop-opacity="0"/>
</linearGradient>
<linearGradient id="paint44_linear_0_1" x1="448.5" y1="1229" x2="448.5" y2="1706" gradientUnits="userSpaceOnUse">
<stop stop-color="#4DB651"/>
<stop offset="1" stop-color="#4DB651" stop-opacity="0"/>
</linearGradient>
<linearGradient id="paint45_linear_0_1" x1="33.5" y1="1610" x2="33.5" y2="2057" gradientUnits="userSpaceOnUse">
<stop stop-color="#4DB651"/>
<stop offset="1" stop-color="#4DB651" stop-opacity="0"/>
</linearGradient>
<linearGradient id="paint46_linear_0_1" x1="33.5" y1="1658" x2="33.5" y2="2105" gradientUnits="userSpaceOnUse">
<stop stop-color="#4DB651"/>
<stop offset="1" stop-color="#4DB651" stop-opacity="0"/>
</linearGradient>
<linearGradient id="paint47_linear_0_1" x1="33.5" y1="1562" x2="33.5" y2="2009" gradientUnits="userSpaceOnUse">
<stop stop-color="#4DB651"/>
<stop offset="1" stop-color="#4DB651" stop-opacity="0"/>
</linearGradient>
<linearGradient id="paint48_linear_0_1" x1="33.5" y1="1514" x2="33.5" y2="1961" gradientUnits="userSpaceOnUse">
<stop stop-color="#4DB651"/>
<stop offset="1" stop-color="#4DB651" stop-opacity="0"/>
</linearGradient>
<linearGradient id="paint49_linear_0_1" x1="33.5" y1="1466" x2="33.5" y2="1913" gradientUnits="userSpaceOnUse">
<stop stop-color="#4DB651"/>
<stop offset="1" stop-color="#4DB651" stop-opacity="0"/>
</linearGradient>
<linearGradient id="paint50_linear_0_1" x1="33.5" y1="1418" x2="33.5" y2="1865" gradientUnits="userSpaceOnUse">
<stop stop-color="#4DB651"/>
<stop offset="1" stop-color="#4DB651" stop-opacity="0"/>
</linearGradient>
<linearGradient id="paint51_linear_0_1" x1="33.5" y1="1370" x2="33.5" y2="1817" gradientUnits="userSpaceOnUse">
<stop stop-color="#4DB651"/>
<stop offset="1" stop-color="#4DB651" stop-opacity="0"/>
</linearGradient>
<linearGradient id="paint52_linear_0_1" x1="33.5" y1="1322" x2="33.5" y2="1769" gradientUnits="userSpaceOnUse">
<stop stop-color="#4DB651"/>
<stop offset="1" stop-color="#4DB651" stop-opacity="0"/>
</linearGradient>
<linearGradient id="paint53_linear_0_1" x1="33.5" y1="1274" x2="33.5" y2="1721" gradientUnits="userSpaceOnUse">
<stop stop-color="#4DB651"/>
<stop offset="1" stop-color="#4DB651" stop-opacity="0"/>
</linearGradient>
<radialGradient id="paint54_radial_0_1" cx="0" cy="0" r="1" gradientUnits="userSpaceOnUse" gradientTransform="translate(43 1604) rotate(-33.4778) scale(261.959 2025.34)">
<stop offset="0.36419" stop-color="#1B401D"/>
<stop offset="1" stop-color="#B0FFB3"/>
</radialGradient>
<linearGradient id="paint55_linear_0_1" x1="306" y1="1229" x2="195.905" y2="1724.26" gradientUnits="userSpaceOnUse">
<stop stop-color="#21ACFF"/>
<stop offset="1" stop-color="#002FD6"/>
</linearGradient>
<linearGradient id="paint56_linear_0_1" x1="2053" y1="1814" x2="2279.5" y2="2357.5" gradientUnits="userSpaceOnUse">
<stop stop-color="white"/>
<stop offset="1" stop-color="#CECECE"/>
</linearGradient>
<clipPath id="clip0_0_1">
<rect width="512" height="512" rx="130" fill="white"/>
</clipPath>
<clipPath id="clip1_0_1">
<rect x="5496" width="512" height="512" rx="130" fill="white"/>
</clipPath>
<clipPath id="clip2_0_1">
<rect y="605" width="512" height="512" rx="130" fill="white"/>
</clipPath>
<clipPath id="clip3_0_1">
<rect width="180" height="180" fill="white" transform="translate(2535 668)"/>
</clipPath>
<clipPath id="clip4_0_1">
<rect width="180" height="180" fill="white" transform="translate(2535 875)"/>
</clipPath>
<clipPath id="clip5_0_1">
<rect width="180" height="180" fill="white" transform="translate(2742 875)"/>
</clipPath>
<clipPath id="clip6_0_1">
<rect width="180" height="180" fill="white" transform="translate(2742 668)"/>
</clipPath>
<clipPath id="clip7_0_1">
<rect x="2472" y="1210" width="512" height="512" rx="130" fill="white"/>
</clipPath>
<clipPath id="clip8_0_1">
<rect x="4944" y="1210" width="512" height="512" rx="130" fill="white"/>
</clipPath>
<clipPath id="clip9_0_1">
<rect width="512" height="512" fill="white" transform="translate(1797 1814)"/>
</clipPath>
</defs>
</svg>
