<svg width="542" height="512" viewBox="0 0 542 512" fill="none" xmlns="http://www.w3.org/2000/svg">
<rect width="512" height="512" rx="130" fill="url(#paint0_linear_1_35)"/>
<g filter="url(#filter0_d_1_35)">
<rect x="73.5525" y="111" width="367.598" height="289" rx="28" fill="#7CCEFF"/>
<path d="M242.63 234.842C248.614 230.214 251.606 227.901 254.864 226.883C258.553 225.73 262.506 225.73 266.195 226.883C269.453 227.901 272.445 230.214 278.429 234.842L395.698 325.528C423.171 346.773 436.907 357.396 439.162 366.529C441.695 376.79 438.008 387.587 429.726 394.155C422.356 400 404.991 400 370.262 400H137.271C106.401 400 90.9652 400 84.4138 394.804C77.0523 388.966 73.7745 379.369 76.0264 370.248C78.0305 362.13 90.2408 352.687 114.661 333.802L242.63 234.842Z" fill="url(#paint1_linear_1_35)"/>
<path d="M242.126 276.209C248.103 280.821 251.091 283.126 254.344 284.141C258.027 285.289 261.973 285.289 265.656 284.141C268.909 283.126 271.897 280.821 277.874 276.209L395.441 185.5C422.981 164.252 436.751 153.628 439.014 144.493C441.557 134.228 437.873 123.424 429.589 116.85C422.217 111 404.825 111 370.041 111H136.408C105.489 111 90.0291 111 83.476 116.2C76.1128 122.043 72.8386 131.647 75.0989 140.771C77.1106 148.891 89.3505 158.335 113.83 177.223L242.126 276.209Z" fill="url(#paint2_linear_1_35)"/>
</g>
<defs>
<filter id="filter0_d_1_35" x="21.1525" y="65.6" width="520.398" height="441.8" filterUnits="userSpaceOnUse" color-interpolation-filters="sRGB">
<feFlood flood-opacity="0" result="BackgroundImageFix"/>
<feColorMatrix in="SourceAlpha" type="matrix" values="0 0 0 0 0 0 0 0 0 0 0 0 0 0 0 0 0 0 127 0" result="hardAlpha"/>
<feOffset dx="24" dy="31"/>
<feGaussianBlur stdDeviation="38.2"/>
<feComposite in2="hardAlpha" operator="out"/>
<feColorMatrix type="matrix" values="0 0 0 0 0.211765 0 0 0 0 0.639216 0 0 0 0 0.905882 0 0 0 1 0"/>
<feBlend mode="normal" in2="BackgroundImageFix" result="effect1_dropShadow_1_35"/>
<feBlend mode="normal" in="SourceGraphic" in2="effect1_dropShadow_1_35" result="shape"/>
</filter>
<linearGradient id="paint0_linear_1_35" x1="256" y1="0" x2="434" y2="493" gradientUnits="userSpaceOnUse">
<stop stop-color="#249FFF"/>
<stop offset="1" stop-color="#43BAFF"/>
</linearGradient>
<linearGradient id="paint1_linear_1_35" x1="225" y1="311" x2="141.5" y2="446" gradientUnits="userSpaceOnUse">
<stop stop-color="#A9DFFF"/>
<stop offset="1" stop-color="#72C9FF"/>
</linearGradient>
<linearGradient id="paint2_linear_1_35" x1="260" y1="290" x2="260" y2="111" gradientUnits="userSpaceOnUse">
<stop stop-color="#75CAFF"/>
<stop offset="1" stop-color="#D9F2FF"/>
</linearGradient>
</defs>
</svg>
