<svg width="512" height="512" viewBox="0 0 512 512" fill="none" xmlns="http://www.w3.org/2000/svg">
<rect width="512" height="512" rx="130" fill="#00E05E"/>
<g filter="url(#filter0_i_0_22)">
<path d="M99.1932 295.648C86.2452 248.095 79.7711 224.318 92.0785 208.212C104.386 192.105 129.028 192.105 178.313 192.105H332.564C382.717 192.105 407.794 192.105 420.093 208.52C432.393 224.935 425.35 249.002 411.264 297.136L391.102 366.031C382.793 394.425 378.638 408.622 367.709 416.811C356.78 425 341.988 425 312.403 425H197.072C166.938 425 151.871 425 140.849 416.578C129.827 408.156 125.869 393.618 117.952 364.543L99.1932 295.648Z" fill="#ACFFCF"/>
<rect x="179.242" y="100.5" width="153.428" height="201.455" rx="76.7141" stroke="#ACFFCF" stroke-width="25"/>
</g>
<defs>
<filter id="filter0_i_0_22" x="85.5071" y="88" width="357.923" height="342" filterUnits="userSpaceOnUse" color-interpolation-filters="sRGB">
<feFlood flood-opacity="0" result="BackgroundImageFix"/>
<feBlend mode="normal" in="SourceGraphic" in2="BackgroundImageFix" result="shape"/>
<feColorMatrix in="SourceAlpha" type="matrix" values="0 0 0 0 0 0 0 0 0 0 0 0 0 0 0 0 0 0 127 0" result="hardAlpha"/>
<feOffset dx="17" dy="5"/>
<feGaussianBlur stdDeviation="37"/>
<feComposite in2="hardAlpha" operator="arithmetic" k2="-1" k3="1"/>
<feColorMatrix type="matrix" values="0 0 0 0 1 0 0 0 0 1 0 0 0 0 1 0 0 0 1 0"/>
<feBlend mode="normal" in2="shape" result="effect1_innerShadow_0_22"/>
</filter>
</defs>
</svg>
