<svg width="512" height="512" viewBox="0 0 512 512" fill="none" xmlns="http://www.w3.org/2000/svg">
<rect width="512" height="512" rx="130" fill="#E1E1E1"/>
<g filter="url(#filter0_i_1_84)">
<rect x="268" y="265" width="183" height="183" rx="91.5" fill="url(#paint0_linear_1_84)"/>
</g>
<rect x="61" y="65" width="183" height="183" rx="52" fill="white"/>
<rect x="268" y="65" width="183" height="183" rx="52" fill="white"/>
<rect x="61" y="265" width="183" height="183" rx="52" fill="white"/>
<rect x="321" y="329" width="77" height="13" rx="6.5" fill="white"/>
<rect x="319" y="152" width="77" height="13" rx="6.5" fill="black"/>
<rect x="112" y="152" width="77" height="13" rx="6.5" fill="black"/>
<rect x="144" y="196" width="77" height="13" rx="6.5" transform="rotate(-90 144 196)" fill="black"/>
<rect x="119.334" y="381.782" width="77" height="13" rx="6.5" transform="rotate(-45 119.334 381.782)" fill="black"/>
<rect x="173.075" y="390.267" width="77" height="13" rx="6.5" transform="rotate(-135 173.075 390.267)" fill="black"/>
<rect x="321" y="364" width="77" height="13" rx="6.5" fill="white"/>
<defs>
<filter id="filter0_i_1_84" x="268" y="263" width="200" height="185" filterUnits="userSpaceOnUse" color-interpolation-filters="sRGB">
<feFlood flood-opacity="0" result="BackgroundImageFix"/>
<feBlend mode="normal" in="SourceGraphic" in2="BackgroundImageFix" result="shape"/>
<feColorMatrix in="SourceAlpha" type="matrix" values="0 0 0 0 0 0 0 0 0 0 0 0 0 0 0 0 0 0 127 0" result="hardAlpha"/>
<feOffset dx="17" dy="-2"/>
<feGaussianBlur stdDeviation="23.5"/>
<feComposite in2="hardAlpha" operator="arithmetic" k2="-1" k3="1"/>
<feColorMatrix type="matrix" values="0 0 0 0 1 0 0 0 0 1 0 0 0 0 1 0 0 0 1 0"/>
<feBlend mode="normal" in2="shape" result="effect1_innerShadow_1_84"/>
</filter>
<linearGradient id="paint0_linear_1_84" x1="359.5" y1="265" x2="380.533" y2="410.422" gradientUnits="userSpaceOnUse">
<stop stop-color="#EE6A19"/>
<stop offset="1" stop-color="#FF6100"/>
</linearGradient>
</defs>
</svg>
