<svg width="512" height="512" viewBox="0 0 512 512" fill="none" xmlns="http://www.w3.org/2000/svg">
<rect width="512" height="512" rx="130" fill="url(#paint0_linear_0_126)"/>
<path d="M215.406 278.062H133.375L119 311.5C115.458 319.729 113.688 325.875 113.688 329.938C113.688 333.167 115.198 336.031 118.219 338.531C121.344 340.927 128.01 342.49 138.219 343.219V349H71.5V343.219C80.3542 341.656 86.0833 339.625 88.6875 337.125C94 332.125 99.8854 321.969 106.344 306.656L180.875 132.281H186.344L260.094 308.531C266.031 322.698 271.396 331.917 276.188 336.188C281.083 340.354 287.854 342.698 296.5 343.219V349H212.906V343.219C221.344 342.802 227.021 341.396 229.938 339C232.958 336.604 234.469 333.688 234.469 330.25C234.469 325.667 232.385 318.427 228.219 308.531L215.406 278.062ZM211.031 266.5L175.094 180.875L138.219 266.5H211.031ZM391.344 328.375C376.656 339.729 367.438 346.292 363.688 348.062C358.062 350.667 352.073 351.969 345.719 351.969C335.823 351.969 327.646 348.583 321.188 341.812C314.833 335.042 311.656 326.135 311.656 315.094C311.656 308.115 313.219 302.073 316.344 296.969C320.615 289.885 328.01 283.219 338.531 276.969C349.156 270.719 366.76 263.115 391.344 254.156V248.531C391.344 234.26 389.052 224.469 384.469 219.156C379.99 213.844 373.427 211.188 364.781 211.188C358.219 211.188 353.01 212.958 349.156 216.5C345.198 220.042 343.219 224.104 343.219 228.688L343.531 237.75C343.531 242.542 342.281 246.24 339.781 248.844C337.385 251.448 334.208 252.75 330.25 252.75C326.396 252.75 323.219 251.396 320.719 248.688C318.323 245.979 317.125 242.281 317.125 237.594C317.125 228.635 321.708 220.406 330.875 212.906C340.042 205.406 352.906 201.656 369.469 201.656C382.177 201.656 392.594 203.792 400.719 208.062C406.865 211.292 411.396 216.344 414.312 223.219C416.188 227.698 417.125 236.865 417.125 250.719V299.312C417.125 312.958 417.385 321.344 417.906 324.469C418.427 327.49 419.26 329.521 420.406 330.562C421.656 331.604 423.062 332.125 424.625 332.125C426.292 332.125 427.75 331.76 429 331.031C431.188 329.677 435.406 325.875 441.656 319.625V328.375C429.99 344 418.844 351.812 408.219 351.812C403.115 351.812 399.052 350.042 396.031 346.5C393.01 342.958 391.448 336.917 391.344 328.375ZM391.344 318.219V263.688C375.615 269.938 365.458 274.365 360.875 276.969C352.646 281.552 346.76 286.344 343.219 291.344C339.677 296.344 337.906 301.812 337.906 307.75C337.906 315.25 340.146 321.5 344.625 326.5C349.104 331.396 354.26 333.844 360.094 333.844C368.01 333.844 378.427 328.635 391.344 318.219Z" fill="black"/>
<defs>
<linearGradient id="paint0_linear_0_126" x1="256" y1="-6.75023e-06" x2="482.5" y2="543.5" gradientUnits="userSpaceOnUse">
<stop stop-color="#B6B6B6"/>
<stop offset="1" stop-color="#888888"/>
</linearGradient>
</defs>
</svg>
