<svg width="512" height="512" viewBox="0 0 512 512" fill="none" xmlns="http://www.w3.org/2000/svg">
<rect width="512" height="512" rx="130" fill="url(#paint0_linear_1_137)"/>
<path d="M295.512 291.496C316.232 279.994 329.989 272.304 338.814 265.542C347.271 259.061 347.13 256.466 347.111 256.114C347.11 256.101 347.11 256.092 347.11 256.085C347.11 256.078 347.11 256.068 347.111 256.056C347.13 255.704 347.271 253.109 338.814 246.628C329.989 239.866 316.232 232.176 295.512 220.674L232.191 185.527C212.485 174.588 199.441 167.401 189.567 163.692C180.198 160.173 178.095 161.512 177.734 161.741C177.721 161.749 177.71 161.756 177.702 161.761C177.693 161.766 177.682 161.772 177.669 161.779C177.293 161.983 175.102 163.173 173.632 173.072C172.082 183.505 172.036 198.399 172.036 220.937V291.233C172.036 313.771 172.082 328.665 173.632 339.098C175.102 348.997 177.293 350.186 177.669 350.391C177.682 350.398 177.693 350.404 177.702 350.409C177.71 350.414 177.721 350.421 177.734 350.429C178.095 350.658 180.198 351.997 189.567 348.478C199.441 344.769 212.485 337.582 232.191 326.643L295.512 291.496Z" stroke="url(#paint1_linear_1_137)" stroke-width="35"/>
<path d="M277.476 329.09C314.926 309.377 341.212 295.489 358.38 282.944C375.559 270.391 378.898 262.537 378.898 256.085C378.898 249.633 375.559 241.779 358.38 229.226C341.212 216.681 314.926 202.792 277.476 183.08L264.613 176.31C231.339 158.796 208.139 146.637 190.262 140.373C172.598 134.183 164.745 135.437 159.39 138.671C154.034 141.904 149.266 148.268 146.516 166.782C143.733 185.52 143.687 211.713 143.687 249.314V262.855C143.687 300.457 143.733 326.65 146.516 345.388C149.266 363.902 154.034 370.266 159.39 373.499C164.745 376.733 172.598 377.987 190.262 371.797C208.139 365.533 231.339 353.374 264.613 335.86L277.476 329.09Z" stroke="url(#paint2_linear_1_137)" stroke-width="35"/>
<path d="M409.474 257.176C409.474 274.26 398.839 286.078 387.121 295.119C375.728 303.91 359.255 313.122 339.604 324.112L338.346 324.815L238.332 380.753L237.09 381.447C218.27 391.974 202.425 400.838 189.411 405.773C175.941 410.882 160.798 413.641 146.471 405.239C132.145 396.836 127.161 382.273 125.044 368.023C123 354.256 123 336.1 123.001 314.536L123.001 313.113V201.239L123.001 199.816C123 178.252 123 160.096 125.044 146.329C127.161 132.079 132.145 117.515 146.471 109.113C160.798 100.711 175.941 103.47 189.411 108.578C202.425 113.514 218.27 122.377 237.09 132.904L238.332 133.599L338.346 189.536L339.603 190.239C359.254 201.229 375.728 210.442 387.121 219.232C398.839 228.273 409.474 240.092 409.474 257.176Z" stroke="url(#paint3_linear_1_137)" stroke-width="35"/>
<defs>
<linearGradient id="paint0_linear_1_137" x1="256" y1="-6.75023e-06" x2="482.5" y2="543.5" gradientUnits="userSpaceOnUse">
<stop stop-color="white"/>
<stop offset="1" stop-color="#E2E1E1"/>
</linearGradient>
<linearGradient id="paint1_linear_1_137" x1="395.364" y1="256.085" x2="74.2597" y2="256.085" gradientUnits="userSpaceOnUse">
<stop stop-color="#E7E03B"/>
<stop offset="1" stop-color="#82F013"/>
</linearGradient>
<linearGradient id="paint2_linear_1_137" x1="453.746" y1="256.085" x2="17" y2="256.085" gradientUnits="userSpaceOnUse">
<stop stop-color="#3BE784"/>
<stop offset="1" stop-color="#13F06F"/>
</linearGradient>
<linearGradient id="paint3_linear_1_137" x1="423.432" y1="257.176" x2="46.1913" y2="257.176" gradientUnits="userSpaceOnUse">
<stop stop-color="#00A3FF"/>
<stop offset="1" stop-color="#B0E3FF"/>
</linearGradient>
</defs>
</svg>
