<svg width="512" height="512" viewBox="0 0 512 512" fill="none" xmlns="http://www.w3.org/2000/svg">
<g clip-path="url(#clip0_1_81)">
<rect width="512" height="512" rx="130" fill="url(#paint0_linear_1_81)"/>
<g filter="url(#filter0_bi_1_81)">
<circle cx="350.5" cy="206.5" r="89.5" fill="#FF6B18"/>
</g>
<g filter="url(#filter1_d_1_81)">
<path d="M73 278.896C73 334.412 114.5 373.167 169.5 379.417C228.479 389.081 288.597 389.567 347.724 380.857L357.5 379.417C403 374.208 438 341.874 438 295.562C438 249.251 399.172 211.708 354.713 211.708C350.885 159.843 309.272 119 258.5 119C219.278 119 185.521 143.374 170.428 178.375H170.5C117.205 178.375 73 223.38 73 278.896Z" fill="url(#paint1_linear_1_81)"/>
</g>
</g>
<defs>
<filter id="filter0_bi_1_81" x="228" y="84" width="245" height="245" filterUnits="userSpaceOnUse" color-interpolation-filters="sRGB">
<feFlood flood-opacity="0" result="BackgroundImageFix"/>
<feGaussianBlur in="BackgroundImageFix" stdDeviation="16.5"/>
<feComposite in2="SourceAlpha" operator="in" result="effect1_backgroundBlur_1_81"/>
<feBlend mode="normal" in="SourceGraphic" in2="effect1_backgroundBlur_1_81" result="shape"/>
<feColorMatrix in="SourceAlpha" type="matrix" values="0 0 0 0 0 0 0 0 0 0 0 0 0 0 0 0 0 0 127 0" result="hardAlpha"/>
<feOffset dx="2" dy="4"/>
<feGaussianBlur stdDeviation="16.9"/>
<feComposite in2="hardAlpha" operator="arithmetic" k2="-1" k3="1"/>
<feColorMatrix type="matrix" values="0 0 0 0 1 0 0 0 0 1 0 0 0 0 1 0 0 0 1 0"/>
<feBlend mode="normal" in2="shape" result="effect2_innerShadow_1_81"/>
</filter>
<filter id="filter1_d_1_81" x="-13.8" y="50.2" width="552.6" height="455.646" filterUnits="userSpaceOnUse" color-interpolation-filters="sRGB">
<feFlood flood-opacity="0" result="BackgroundImageFix"/>
<feColorMatrix in="SourceAlpha" type="matrix" values="0 0 0 0 0 0 0 0 0 0 0 0 0 0 0 0 0 0 127 0" result="hardAlpha"/>
<feOffset dx="7" dy="25"/>
<feGaussianBlur stdDeviation="46.9"/>
<feComposite in2="hardAlpha" operator="out"/>
<feColorMatrix type="matrix" values="0 0 0 0 0 0 0 0 0 0 0 0 0 0 0 0 0 0 0.13 0"/>
<feBlend mode="normal" in2="BackgroundImageFix" result="effect1_dropShadow_1_81"/>
<feBlend mode="normal" in="SourceGraphic" in2="effect1_dropShadow_1_81" result="shape"/>
</filter>
<linearGradient id="paint0_linear_1_81" x1="256" y1="0" x2="432.5" y2="512" gradientUnits="userSpaceOnUse">
<stop stop-color="#239FFF"/>
<stop offset="1" stop-color="#44BBFF"/>
</linearGradient>
<linearGradient id="paint1_linear_1_81" x1="261" y1="231.5" x2="321.5" y2="474" gradientUnits="userSpaceOnUse">
<stop stop-color="#D9F1FF"/>
<stop offset="1" stop-color="#3AB3FF"/>
</linearGradient>
<clipPath id="clip0_1_81">
<rect width="512" height="512" rx="130" fill="white"/>
</clipPath>
</defs>
</svg>
