<svg width="512" height="512" viewBox="0 0 512 512" fill="none" xmlns="http://www.w3.org/2000/svg">
<rect width="512" height="512" rx="130" fill="url(#paint0_radial_1_172)"/>
<g filter="url(#filter0_di_1_172)">
<path d="M131.038 129.667C132.23 118.483 141.667 110 152.914 110H366.654C378.103 110 387.639 118.781 388.58 130.191L409.036 378.191C410.094 391.011 399.974 402 387.111 402H126.47C113.397 402 103.208 390.667 104.594 377.667L131.038 129.667Z" fill="url(#paint1_linear_1_172)"/>
</g>
<g filter="url(#filter1_di_1_172)">
<ellipse cx="294" cy="184.5" rx="80" ry="55.5" fill="#919191"/>
</g>
<g filter="url(#filter2_d_1_172)">
<path d="M245.8 325.3C247.533 331.567 252.233 334.7 259.9 334.7C264.833 334.7 268.567 333.033 271.1 329.7L281.5 335.7C276.567 342.833 269.3 346.4 259.7 346.4C251.433 346.4 244.8 343.9 239.8 338.9C234.8 333.9 232.3 327.6 232.3 320C232.3 312.467 234.767 306.2 239.7 301.2C244.633 296.133 250.967 293.6 258.7 293.6C266.033 293.6 272.067 296.133 276.8 301.2C281.6 306.267 284 312.533 284 320C284 321.667 283.833 323.433 283.5 325.3H245.8ZM245.6 315.3H271.1C270.367 311.9 268.833 309.367 266.5 307.7C264.233 306.033 261.633 305.2 258.7 305.2C255.233 305.2 252.367 306.1 250.1 307.9C247.833 309.633 246.333 312.1 245.6 315.3ZM300.952 309.2C300.952 310.533 301.819 311.633 303.552 312.5C305.352 313.3 307.519 314.033 310.052 314.7C312.586 315.3 315.119 316.1 317.652 317.1C320.186 318.033 322.319 319.633 324.052 321.9C325.852 324.167 326.752 327 326.752 330.4C326.752 335.533 324.819 339.5 320.952 342.3C317.152 345.033 312.386 346.4 306.652 346.4C296.386 346.4 289.386 342.433 285.652 334.5L296.852 328.2C298.319 332.533 301.586 334.7 306.652 334.7C311.252 334.7 313.552 333.267 313.552 330.4C313.552 329.067 312.652 328 310.852 327.2C309.119 326.333 306.986 325.567 304.452 324.9C301.919 324.233 299.386 323.4 296.852 322.4C294.319 321.4 292.152 319.833 290.352 317.7C288.619 315.5 287.752 312.767 287.752 309.5C287.752 304.567 289.552 300.7 293.152 297.9C296.819 295.033 301.352 293.6 306.752 293.6C310.819 293.6 314.519 294.533 317.852 296.4C321.186 298.2 323.819 300.8 325.752 304.2L314.752 310.2C313.152 306.8 310.486 305.1 306.752 305.1C305.086 305.1 303.686 305.467 302.552 306.2C301.486 306.933 300.952 307.933 300.952 309.2ZM360.184 307.4H348.884V328.2C348.884 329.933 349.317 331.2 350.184 332C351.05 332.8 352.317 333.267 353.984 333.4C355.65 333.467 357.717 333.433 360.184 333.3V345C351.317 346 345.05 345.167 341.384 342.5C337.784 339.833 335.984 335.067 335.984 328.2V307.4H327.284V295H335.984V284.9L348.884 281V295H360.184V307.4ZM376.616 325.3C378.35 331.567 383.05 334.7 390.716 334.7C395.65 334.7 399.383 333.033 401.916 329.7L412.316 335.7C407.383 342.833 400.116 346.4 390.516 346.4C382.25 346.4 375.616 343.9 370.616 338.9C365.616 333.9 363.116 327.6 363.116 320C363.116 312.467 365.583 306.2 370.516 301.2C375.45 296.133 381.783 293.6 389.516 293.6C396.85 293.6 402.883 296.133 407.616 301.2C412.416 306.267 414.816 312.533 414.816 320C414.816 321.667 414.65 323.433 414.316 325.3H376.616ZM376.416 315.3H401.916C401.183 311.9 399.65 309.367 397.316 307.7C395.05 306.033 392.45 305.2 389.516 305.2C386.05 305.2 383.183 306.1 380.916 307.9C378.65 309.633 377.15 312.1 376.416 315.3ZM434.722 303.6C435.922 300.4 437.889 298 440.622 296.4C443.422 294.8 446.522 294 449.922 294V308.4C445.989 307.933 442.455 308.733 439.322 310.8C436.255 312.867 434.722 316.3 434.722 321.1V345H421.822V295H434.722V303.6Z" fill="black"/>
</g>
<defs>
<filter id="filter0_di_1_172" x="100.268" y="88.8" width="389.044" height="376.4" filterUnits="userSpaceOnUse" color-interpolation-filters="sRGB">
<feFlood flood-opacity="0" result="BackgroundImageFix"/>
<feColorMatrix in="SourceAlpha" type="matrix" values="0 0 0 0 0 0 0 0 0 0 0 0 0 0 0 0 0 0 127 0" result="hardAlpha"/>
<feOffset dx="38" dy="21"/>
<feGaussianBlur stdDeviation="21.1"/>
<feComposite in2="hardAlpha" operator="out"/>
<feColorMatrix type="matrix" values="0 0 0 0 0 0 0 0 0 0 0 0 0 0 0 0 0 0 0.22 0"/>
<feBlend mode="normal" in2="BackgroundImageFix" result="effect1_dropShadow_1_172"/>
<feBlend mode="normal" in="SourceGraphic" in2="effect1_dropShadow_1_172" result="shape"/>
<feColorMatrix in="SourceAlpha" type="matrix" values="0 0 0 0 0 0 0 0 0 0 0 0 0 0 0 0 0 0 127 0" result="hardAlpha"/>
<feOffset dx="9" dy="4"/>
<feGaussianBlur stdDeviation="6.05"/>
<feComposite in2="hardAlpha" operator="arithmetic" k2="-1" k3="1"/>
<feColorMatrix type="matrix" values="0 0 0 0 1 0 0 0 0 1 0 0 0 0 1 0 0 0 1 0"/>
<feBlend mode="normal" in2="shape" result="effect2_innerShadow_1_172"/>
</filter>
<filter id="filter1_di_1_172" x="213" y="129" width="168" height="120" filterUnits="userSpaceOnUse" color-interpolation-filters="sRGB">
<feFlood flood-opacity="0" result="BackgroundImageFix"/>
<feColorMatrix in="SourceAlpha" type="matrix" values="0 0 0 0 0 0 0 0 0 0 0 0 0 0 0 0 0 0 127 0" result="hardAlpha"/>
<feOffset dx="-1" dy="9"/>
<feComposite in2="hardAlpha" operator="out"/>
<feColorMatrix type="matrix" values="0 0 0 0 0.530094 0 0 0 0 0.530094 0 0 0 0 0.530094 0 0 0 1 0"/>
<feBlend mode="normal" in2="BackgroundImageFix" result="effect1_dropShadow_1_172"/>
<feBlend mode="normal" in="SourceGraphic" in2="effect1_dropShadow_1_172" result="shape"/>
<feColorMatrix in="SourceAlpha" type="matrix" values="0 0 0 0 0 0 0 0 0 0 0 0 0 0 0 0 0 0 127 0" result="hardAlpha"/>
<feOffset dx="7" dy="4"/>
<feGaussianBlur stdDeviation="9.9"/>
<feComposite in2="hardAlpha" operator="arithmetic" k2="-1" k3="1"/>
<feColorMatrix type="matrix" values="0 0 0 0 1 0 0 0 0 1 0 0 0 0 1 0 0 0 1 0"/>
<feBlend mode="normal" in2="shape" result="effect2_innerShadow_1_172"/>
</filter>
<filter id="filter2_d_1_172" x="218.3" y="267" width="263.622" height="111.5" filterUnits="userSpaceOnUse" color-interpolation-filters="sRGB">
<feFlood flood-opacity="0" result="BackgroundImageFix"/>
<feColorMatrix in="SourceAlpha" type="matrix" values="0 0 0 0 0 0 0 0 0 0 0 0 0 0 0 0 0 0 127 0" result="hardAlpha"/>
<feOffset dx="9" dy="9"/>
<feGaussianBlur stdDeviation="11.5"/>
<feComposite in2="hardAlpha" operator="out"/>
<feColorMatrix type="matrix" values="0 0 0 0 0 0 0 0 0 0 0 0 0 0 0 0 0 0 0.13 0"/>
<feBlend mode="normal" in2="BackgroundImageFix" result="effect1_dropShadow_1_172"/>
<feBlend mode="normal" in="SourceGraphic" in2="effect1_dropShadow_1_172" result="shape"/>
</filter>
<radialGradient id="paint0_radial_1_172" cx="0" cy="0" r="1" gradientUnits="userSpaceOnUse" gradientTransform="translate(256 256) rotate(90) scale(256 390.184)">
<stop stop-color="#AFAFAF"/>
<stop offset="1" stop-color="#7A7A7A"/>
</radialGradient>
<linearGradient id="paint1_linear_1_172" x1="256.5" y1="110" x2="31.5" y2="425.5" gradientUnits="userSpaceOnUse">
<stop stop-color="#DCDCDC"/>
<stop offset="1" stop-color="#424242"/>
</linearGradient>
</defs>
</svg>
