<svg width="512" height="512" viewBox="0 0 512 512" fill="none" xmlns="http://www.w3.org/2000/svg">
<g clip-path="url(#clip0_1_147)">
<rect width="512" height="512" rx="130" fill="url(#paint0_linear_1_147)"/>
<path d="M124.2 243.2C124.2 239.4 126.1 237.5 129.9 237.5H134.1C150.3 237.5 160.7 230.8 165.3 217.4C166.9 213.8 169.4 212 172.8 212H183C184.6 212 185.9 212.5 186.9 213.5C187.9 214.5 188.4 215.8 188.4 217.4V416.3C188.4 417.9 187.8 419.3 186.6 420.5C185.6 421.5 184.3 422 182.7 422H165.6C164 422 162.6 421.5 161.4 420.5C160.4 419.3 159.9 417.9 159.9 416.3V261.5H129.6C128 261.5 126.7 261.1 125.7 260.3C124.7 259.3 124.2 258 124.2 256.4V243.2ZM298.392 425.9C285.992 425.9 274.792 424.3 264.792 421.1C254.792 417.9 246.292 413.5 239.292 407.9C232.292 402.3 226.892 395.7 223.092 388.1C219.292 380.3 217.392 372 217.392 363.2C217.392 350.6 221.192 339.5 228.792 329.9C236.592 320.3 246.792 313.5 259.392 309.5C249.792 305.7 242.092 299.8 236.292 291.8C230.492 283.6 227.592 274.2 227.592 263.6C227.592 255.4 229.292 247.9 232.692 241.1C236.292 234.3 241.192 228.5 247.392 223.7C253.792 218.7 261.292 214.9 269.892 212.3C278.692 209.5 288.192 208.1 298.392 208.1C308.592 208.1 317.992 209.5 326.592 212.3C335.192 214.9 342.592 218.7 348.792 223.7C355.192 228.5 360.092 234.3 363.492 241.1C367.092 247.9 368.892 255.4 368.892 263.6C368.892 274.2 365.992 283.6 360.192 291.8C354.392 299.8 346.692 305.7 337.092 309.5C349.692 313.5 359.792 320.3 367.392 329.9C375.192 339.5 379.092 350.6 379.092 363.2C379.092 372 377.192 380.3 373.392 388.1C369.592 395.7 364.192 402.3 357.192 407.9C350.192 413.5 341.692 417.9 331.692 421.1C321.892 424.3 310.792 425.9 298.392 425.9ZM298.392 299C304.792 299 310.592 298.1 315.792 296.3C321.192 294.5 325.692 292.1 329.292 289.1C333.092 285.9 335.992 282.2 337.992 278C339.992 273.8 340.992 269.4 340.992 264.8C340.992 260.2 339.992 255.9 337.992 251.9C335.992 247.7 333.092 244.1 329.292 241.1C325.692 237.9 321.192 235.4 315.792 233.6C310.592 231.8 304.792 230.9 298.392 230.9C291.992 230.9 286.092 231.8 280.692 233.6C275.492 235.4 270.992 237.9 267.192 241.1C263.592 244.1 260.792 247.7 258.792 251.9C256.792 255.9 255.792 260.2 255.792 264.8C255.792 269.4 256.792 273.8 258.792 278C260.792 282.2 263.592 285.9 267.192 289.1C270.992 292.1 275.492 294.5 280.692 296.3C286.092 298.1 291.992 299 298.392 299ZM298.392 322.7C290.592 322.7 283.592 323.8 277.392 326C271.192 328 265.892 330.8 261.492 334.4C257.092 338 253.692 342.2 251.292 347C248.892 351.8 247.692 356.9 247.692 362.3C247.692 367.7 248.892 372.8 251.292 377.6C253.692 382.4 257.092 386.6 261.492 390.2C265.892 393.8 271.192 396.7 277.392 398.9C283.592 400.9 290.592 401.9 298.392 401.9C306.192 401.9 313.192 400.9 319.392 398.9C325.592 396.7 330.792 393.8 334.992 390.2C339.392 386.6 342.792 382.4 345.192 377.6C347.592 372.8 348.792 367.7 348.792 362.3C348.792 356.9 347.592 351.8 345.192 347C342.792 342.2 339.392 338 334.992 334.4C330.792 330.8 325.592 328 319.392 326C313.192 323.8 306.192 322.7 298.392 322.7Z" fill="black"/>
<path d="M166.7 74.8V127.1C166.7 127.633 166.5 128.1 166.1 128.5C165.767 128.833 165.333 129 164.8 129H158.5C157.967 129 157.533 128.833 157.2 128.5C156.867 128.1 156.7 127.633 156.7 127.1V60.9C156.7 60.3667 156.867 59.9333 157.2 59.6C157.533 59.2 157.967 59 158.5 59H166.6C167.733 59 168.667 59.5 169.4 60.5L203.8 112.6V60.9C203.8 60.3667 203.967 59.9333 204.3 59.6C204.633 59.2 205.067 59 205.6 59H211.8C212.333 59 212.8 59.2 213.2 59.6C213.6 59.9333 213.8 60.3667 213.8 60.9V127.1C213.8 127.633 213.6 128.1 213.2 128.5C212.8 128.833 212.333 129 211.8 129H205C203.4 129 202.233 128.4 201.5 127.2L166.7 74.8ZM294.861 94C294.861 99.2 293.894 104.033 291.961 108.5C290.094 112.9 287.528 116.733 284.261 120C281.061 123.2 277.261 125.733 272.861 127.6C268.461 129.4 263.761 130.3 258.761 130.3C253.761 130.3 249.061 129.4 244.661 127.6C240.328 125.733 236.528 123.2 233.261 120C229.994 116.733 227.428 112.9 225.561 108.5C223.694 104.033 222.761 99.2 222.761 94C222.761 88.8 223.694 84 225.561 79.6C227.428 75.1333 229.994 71.3 233.261 68.1C236.528 64.8333 240.328 62.3 244.661 60.5C249.061 58.6333 253.761 57.7 258.761 57.7C263.761 57.7 268.461 58.6333 272.861 60.5C277.261 62.3 281.061 64.8333 284.261 68.1C287.528 71.3 290.094 75.1333 291.961 79.6C293.894 84 294.861 88.8 294.861 94ZM284.461 94C284.461 90.1333 283.828 86.5667 282.561 83.3C281.294 79.9667 279.528 77.1 277.261 74.7C274.994 72.2333 272.261 70.3 269.061 68.9C265.928 67.5 262.494 66.8 258.761 66.8C255.028 66.8 251.561 67.5 248.361 68.9C245.228 70.3 242.528 72.2333 240.261 74.7C237.994 77.1 236.228 79.9667 234.961 83.3C233.694 86.5667 233.061 90.1333 233.061 94C233.061 97.8667 233.694 101.467 234.961 104.8C236.228 108.067 237.994 110.933 240.261 113.4C242.528 115.8 245.228 117.7 248.361 119.1C251.561 120.5 255.028 121.2 258.761 121.2C262.494 121.2 265.928 120.5 269.061 119.1C272.261 117.7 274.994 115.8 277.261 113.4C279.528 110.933 281.294 108.067 282.561 104.8C283.828 101.467 284.461 97.8667 284.461 94ZM322.928 129C322.395 129 321.895 128.867 321.428 128.6C320.961 128.267 320.595 127.8 320.328 127.2L294.828 61.5C294.495 60.7667 294.495 60.1667 294.828 59.7C295.161 59.2333 295.628 59 296.228 59H303.628C304.561 59 305.228 59.5667 305.628 60.7L327.728 118.5H328.128L349.928 60.7C350.395 59.5667 351.061 59 351.928 59H358.828C359.428 59 359.861 59.2333 360.128 59.7C360.461 60.1 360.495 60.6667 360.228 61.4L334.728 127.2C334.195 128.4 333.361 129 332.228 129H322.928Z" fill="#FF0B0B"/>
</g>
<defs>
<linearGradient id="paint0_linear_1_147" x1="256" y1="-1.30832e-05" x2="695" y2="884" gradientUnits="userSpaceOnUse">
<stop stop-color="white"/>
<stop offset="1" stop-color="#CECECE"/>
</linearGradient>
<clipPath id="clip0_1_147">
<rect width="512" height="512" rx="130" fill="white"/>
</clipPath>
</defs>
</svg>
