<svg width="512" height="512" viewBox="0 0 512 512" fill="none" xmlns="http://www.w3.org/2000/svg">
<rect width="512" height="512" rx="130" fill="#00A0FF"/>
<g filter="url(#filter0_i_0_53)">
<rect x="181" y="88" width="150" height="150" rx="75" fill="#B8E5FF"/>
<path d="M359.961 416.637C393.871 413.91 421.336 384.417 407.516 353.331C399.274 334.791 387.194 317.946 371.966 303.756C356.737 289.567 338.657 278.311 318.76 270.632C298.863 262.952 277.537 259 256 259C234.463 259 213.137 262.952 193.24 270.632C173.343 278.311 155.263 289.567 140.034 303.756C124.806 317.946 112.726 334.791 104.484 353.331C90.6642 384.417 118.129 413.91 152.04 416.637L179.584 418.853C230.446 422.944 281.554 422.944 332.416 418.853L359.961 416.637Z" fill="#B8E5FF"/>
</g>
<defs>
<filter id="filter0_i_0_53" x="100.831" y="88" width="344.339" height="348.922" filterUnits="userSpaceOnUse" color-interpolation-filters="sRGB">
<feFlood flood-opacity="0" result="BackgroundImageFix"/>
<feBlend mode="normal" in="SourceGraphic" in2="BackgroundImageFix" result="shape"/>
<feColorMatrix in="SourceAlpha" type="matrix" values="0 0 0 0 0 0 0 0 0 0 0 0 0 0 0 0 0 0 127 0" result="hardAlpha"/>
<feOffset dx="34" dy="15"/>
<feGaussianBlur stdDeviation="41.4"/>
<feComposite in2="hardAlpha" operator="arithmetic" k2="-1" k3="1"/>
<feColorMatrix type="matrix" values="0 0 0 0 1 0 0 0 0 1 0 0 0 0 1 0 0 0 1 0"/>
<feBlend mode="normal" in2="shape" result="effect1_innerShadow_0_53"/>
</filter>
</defs>
</svg>
