<svg width="512" height="512" viewBox="0 0 512 512" fill="none" xmlns="http://www.w3.org/2000/svg">
<rect width="512" height="512" rx="130" fill="url(#paint0_linear_1_267)"/>
<g clip-path="url(#clip0_1_267)">
<path fill-rule="evenodd" clip-rule="evenodd" d="M400.654 321.811C400.654 330.519 396.71 339.142 389.048 347.187C381.386 355.232 370.156 362.543 355.998 368.7C341.841 374.858 325.033 379.742 306.535 383.075C288.038 386.407 268.212 388.122 248.19 388.122C228.168 388.122 208.343 386.407 189.845 383.075C171.347 379.742 154.54 374.858 140.382 368.7C126.225 362.543 114.994 355.232 107.332 347.187C99.6701 339.142 95.7266 330.519 95.7266 321.811C95.7266 313.103 99.6701 304.48 107.332 296.435C114.994 288.39 126.225 281.08 140.382 274.922C154.54 268.764 171.347 263.88 189.845 260.548C208.343 257.215 228.168 255.5 248.19 255.5C268.212 255.5 288.038 257.215 306.535 260.548C325.033 263.88 341.841 268.764 355.998 274.922C370.156 281.08 381.386 288.39 389.048 296.435C396.71 304.48 400.654 313.103 400.654 321.811Z" fill="url(#paint1_radial_1_267)"/>
<path fill-rule="evenodd" clip-rule="evenodd" d="M141.669 159.159C141.669 159.159 165.683 208.679 221.863 207.282C339.594 204.329 360.239 142.914 363.193 134.053C366.146 125.192 370.666 126.534 371.71 134.723C410.108 483.253 105.238 333.713 94.4109 274.351C154.961 256.629 140.192 222.662 140.192 222.662L141.669 159.159Z" fill="url(#paint2_radial_1_267)" stroke="#2E3436" stroke-width="6.58333" stroke-miterlimit="10"/>
<path fill-rule="evenodd" clip-rule="evenodd" d="M186.476 306.177C242.774 317.437 271.444 306.996 288.223 294.04C283.792 288.317 276.224 282.041 276.224 282.041C276.224 282.041 295.884 287.504 302.807 296.44C309.71 305.35 305.37 310.84 303.563 322.241C299.541 312.227 292.035 308.472 291.018 304.494C275.928 325.353 238.333 324.487 186.476 306.177Z" fill="url(#paint3_linear_1_267)"/>
<path opacity="0.185393" fill-rule="evenodd" clip-rule="evenodd" d="M363.843 153.945C359.148 161.688 352.093 170.93 341.391 179.79C319.404 197.994 282.49 214.563 222.083 216.079C186.792 216.956 163.999 199.921 150.029 184.751L148.984 222.083C150.121 225.582 152.455 233.7 148.462 244.796C144.165 256.737 130.463 268.951 106.952 278.213C109.044 282.574 111.092 286.931 117.395 293.094C125.983 301.489 137.922 310.538 152.117 318.678C180.508 334.96 217.293 347.861 251.584 348.44C285.875 349.019 317.224 338.126 338.78 306.669C358.653 277.67 369.544 228.575 363.843 153.945Z" stroke="url(#paint4_linear_1_267)" stroke-width="6.58333" stroke-miterlimit="10"/>
<path fill-rule="evenodd" clip-rule="evenodd" d="M202.958 233.738C202.959 238.2 202.081 242.617 200.374 246.74C198.668 250.862 196.166 254.607 193.012 257.762C189.858 260.917 186.113 263.42 181.991 265.127C177.87 266.835 173.452 267.714 168.991 267.714C164.529 267.714 160.112 266.835 155.99 265.127C151.869 263.42 148.124 260.917 144.969 257.762C141.815 254.607 139.313 250.862 137.607 246.74C135.9 242.617 135.023 238.2 135.024 233.738C135.023 229.277 135.9 224.859 137.607 220.737C139.313 216.615 141.815 212.87 144.969 209.715C148.124 206.56 151.869 204.057 155.99 202.349C160.112 200.642 164.529 199.763 168.991 199.763C173.452 199.763 177.87 200.642 181.991 202.349C186.113 204.057 189.858 206.56 193.012 209.715C196.166 212.87 198.668 216.615 200.374 220.737C202.081 224.859 202.959 229.277 202.958 233.738Z" fill="url(#paint5_radial_1_267)" stroke="#888A85" stroke-width="6.58333" stroke-miterlimit="10"/>
<path fill-rule="evenodd" clip-rule="evenodd" d="M135.294 246.536C143.2 257.495 147.69 270.235 147.778 281.954C147.865 293.673 143.542 303.411 135.76 309.025C127.978 314.64 117.373 315.671 106.28 311.892C95.1869 308.113 84.5133 299.833 76.6073 288.874C68.7014 277.916 64.2107 265.175 64.1232 253.456C64.0358 241.737 68.3587 232 76.141 226.385C83.9233 220.771 94.5274 219.74 105.621 223.519C116.714 227.298 127.388 235.577 135.294 246.536Z" fill="url(#paint6_radial_1_267)" stroke="black" stroke-width="6.58333" stroke-miterlimit="10"/>
<path fill-rule="evenodd" clip-rule="evenodd" d="M193.288 238.77C193.288 240.919 192.866 243.046 192.044 245.031C191.223 247.015 190.018 248.819 188.499 250.338C186.981 251.857 185.178 253.062 183.193 253.884C181.208 254.707 179.081 255.13 176.933 255.13C174.785 255.13 172.658 254.707 170.674 253.884C168.689 253.062 166.886 251.857 165.367 250.338C163.849 248.819 162.644 247.015 161.822 245.031C161.001 243.046 160.578 240.919 160.579 238.77C160.578 236.622 161.001 234.495 161.822 232.51C162.644 230.526 163.849 228.722 165.367 227.203C166.886 225.684 168.689 224.479 170.674 223.657C172.658 222.834 174.785 222.411 176.933 222.411C179.081 222.411 181.208 222.834 183.193 223.657C185.178 224.479 186.981 225.684 188.499 227.203C190.018 228.722 191.223 230.526 192.044 232.51C192.866 234.495 193.288 236.622 193.288 238.77Z" fill="#2E3436" stroke="black" stroke-width="6.58333" stroke-miterlimit="10"/>
<path opacity="0.280899" fill-rule="evenodd" clip-rule="evenodd" d="M79.1037 233.849C73.7661 237.847 70.953 244.611 71.2065 253.79C71.46 262.968 75.0823 274.206 82.5172 284.133C89.952 294.06 99.7177 300.696 108.455 303.521C117.192 306.346 124.474 305.549 129.811 301.551C135.149 297.553 137.972 290.466 137.761 281.245C137.55 272.024 134.025 261.015 126.607 251.11C119.188 241.205 109.615 234.727 100.826 231.931C92.0362 229.135 84.4412 229.851 79.1037 233.849Z" stroke="url(#paint7_linear_1_267)" stroke-width="6.58333" stroke-miterlimit="10"/>
<path fill-rule="evenodd" clip-rule="evenodd" d="M103.735 249.245C103.736 251.573 103.354 253.877 102.612 256.028C101.87 258.179 100.782 260.133 99.4109 261.779C98.0395 263.425 96.4113 264.731 94.6193 265.622C92.8273 266.512 90.9066 266.971 88.967 266.971C87.0273 266.971 85.1066 266.512 83.3146 265.622C81.5226 264.731 79.8944 263.425 78.523 261.779C77.1516 260.133 76.0639 258.179 75.3219 256.028C74.5799 253.877 74.1983 251.573 74.1987 249.245C74.1983 246.917 74.5799 244.612 75.3219 242.462C76.0639 240.311 77.1516 238.357 78.523 236.711C79.8944 235.065 81.5226 233.759 83.3146 232.868C85.1066 231.977 87.0273 231.519 88.967 231.519C90.9066 231.519 92.8273 231.977 94.6193 232.868C96.4113 233.759 98.0395 235.065 99.4109 236.711C100.782 238.357 101.87 240.311 102.612 242.462C103.354 244.612 103.736 246.917 103.735 249.245Z" fill="white"/>
<path fill-rule="evenodd" clip-rule="evenodd" d="M181.965 231.222C181.965 234.225 180.773 237.105 178.649 239.228C176.526 241.352 173.646 242.544 170.643 242.544C167.64 242.544 164.76 241.352 162.637 239.228C160.514 237.105 159.321 234.225 159.321 231.222C159.321 228.219 160.514 225.339 162.637 223.216C164.76 221.093 167.64 219.9 170.643 219.9C173.646 219.9 176.526 221.093 178.649 223.216C180.773 225.339 181.965 228.219 181.965 231.222Z" fill="white"/>
<path fill-rule="evenodd" clip-rule="evenodd" d="M279.014 237.43C279.015 242.668 277.985 247.854 275.981 252.693C273.978 257.532 271.041 261.928 267.338 265.632C263.636 269.336 259.239 272.274 254.401 274.278C249.563 276.283 244.377 277.315 239.14 277.315C233.902 277.315 228.717 276.283 223.878 274.278C219.04 272.274 214.644 269.336 210.941 265.632C207.238 261.928 204.301 257.532 202.298 252.693C200.295 247.854 199.264 242.668 199.265 237.43C199.264 232.193 200.295 227.007 202.298 222.168C204.301 217.329 207.238 212.932 210.941 209.229C214.644 205.525 219.04 202.587 223.878 200.582C228.717 198.578 233.902 197.546 239.14 197.546C244.377 197.546 249.563 198.578 254.401 200.582C259.239 202.587 263.636 205.525 267.338 209.229C271.041 212.932 273.978 217.329 275.981 222.168C277.985 227.007 279.015 232.193 279.014 237.43Z" fill="url(#paint8_radial_1_267)" stroke="#888A85" stroke-width="6.58333" stroke-miterlimit="10"/>
<path fill-rule="evenodd" clip-rule="evenodd" d="M267.663 243.338C267.663 245.859 267.167 248.356 266.203 250.686C265.238 253.016 263.824 255.133 262.041 256.917C260.259 258.7 258.142 260.115 255.812 261.08C253.482 262.045 250.986 262.542 248.464 262.542C245.942 262.542 243.445 262.045 241.115 261.08C238.786 260.115 236.669 258.7 234.886 256.917C233.103 255.133 231.689 253.016 230.725 250.686C229.76 248.356 229.264 245.859 229.265 243.338C229.264 240.816 229.76 238.319 230.725 235.989C231.689 233.659 233.103 231.542 234.886 229.758C236.669 227.975 238.786 226.56 241.115 225.595C243.445 224.63 245.942 224.133 248.464 224.133C250.986 224.133 253.482 224.63 255.812 225.595C258.142 226.56 260.259 227.975 262.041 229.758C263.824 231.542 265.238 233.659 266.203 235.989C267.167 238.319 267.663 240.816 267.663 243.338Z" fill="#2E3436" stroke="black" stroke-width="6.58333" stroke-miterlimit="10"/>
<path fill-rule="evenodd" clip-rule="evenodd" d="M254.371 234.477C254.371 238.002 252.971 241.383 250.478 243.875C247.985 246.368 244.605 247.768 241.079 247.768C237.554 247.768 234.174 246.368 231.681 243.875C229.188 241.383 227.788 238.002 227.788 234.477C227.788 230.952 229.188 227.571 231.681 225.078C234.174 222.586 237.554 221.185 241.079 221.185C244.605 221.185 247.985 222.586 250.478 225.078C252.971 227.571 254.371 230.952 254.371 234.477Z" fill="white"/>
<path d="M360.655 356.506L368.391 341.094C339.599 320.036 286.527 304.719 286.527 304.719C277.327 300.436 274.425 308.7 280.796 314.071C280.796 314.071 326.186 346.6 360.655 356.506Z" fill="url(#paint9_linear_1_267)" stroke="#673907" stroke-width="6.58334" stroke-linecap="round"/>
<path d="M397.565 370.716L401.707 361.544L369.563 340.959L367 340.74L365.892 337.193C361.223 340.118 354.44 350.98 356.24 357.086L359.711 355.773L361.592 357.59L397.565 370.716Z" fill="url(#paint10_linear_1_267)" stroke="#888A85" stroke-width="6.58334" stroke-linecap="round"/>
<path d="M376.734 353.326L398.075 362.485" stroke="white" stroke-width="6.58334" stroke-linecap="round" stroke-linejoin="round"/>
<path d="M444.279 409.663C434.255 375.65 430.697 348.643 404.513 351.051C383.412 352.99 381.939 383.228 403.745 391.568C424.751 399.603 444.279 409.663 444.279 409.663Z" fill="url(#paint11_radial_1_267)"/>
<path opacity="0.527778" d="M406.084 353.805C407.191 353.478 408.351 353.373 409.498 353.495C410.646 353.617 411.758 353.963 412.771 354.515C413.785 355.067 414.679 355.813 415.404 356.71C416.129 357.608 416.67 358.64 416.996 359.746C417.323 360.853 417.428 362.013 417.305 363.16C417.183 364.308 416.836 365.42 416.284 366.433C415.732 367.446 414.986 368.341 414.088 369.065C413.19 369.79 412.158 370.331 411.052 370.657C409.945 370.983 408.785 371.088 407.638 370.967C406.49 370.845 405.378 370.498 404.365 369.946C403.352 369.394 402.457 368.648 401.732 367.751C401.007 366.853 400.466 365.822 400.14 364.715C399.813 363.608 399.708 362.448 399.831 361.301C399.953 360.153 400.3 359.041 400.852 358.028C401.404 357.015 402.15 356.121 403.048 355.396C403.946 354.671 404.978 354.131 406.084 353.805Z" fill="white"/>
<path d="M367.779 341.303C368.526 341.082 369.308 341.011 370.083 341.094C370.857 341.176 371.607 341.41 372.291 341.782C372.975 342.154 373.578 342.658 374.068 343.263C374.557 343.869 374.922 344.565 375.142 345.312C375.362 346.059 375.433 346.842 375.35 347.616C375.268 348.39 375.034 349.14 374.661 349.824C374.289 350.507 373.785 351.111 373.179 351.6C372.574 352.089 371.877 352.454 371.131 352.674C370.384 352.894 369.601 352.965 368.827 352.883C368.053 352.801 367.302 352.567 366.619 352.194C365.935 351.822 365.331 351.319 364.842 350.713C364.353 350.107 363.988 349.411 363.768 348.665C363.548 347.918 363.477 347.135 363.559 346.361C363.642 345.587 363.876 344.836 364.248 344.153C364.621 343.469 365.124 342.866 365.73 342.377C366.336 341.888 367.032 341.523 367.779 341.303Z" fill="white"/>
<path opacity="0.427778" d="M431.697 389.314C431.697 389.314 428.433 377.103 421.23 370.748C418.681 368.5 421.892 365.188 424.297 368.096C429.491 374.379 431.697 389.314 431.697 389.314Z" fill="url(#paint12_linear_1_267)"/>
<path fill-rule="evenodd" clip-rule="evenodd" d="M247.171 320.132C259.681 321.328 270.978 317.858 275.675 316.172C276.496 311.532 280.157 302.628 292.768 302.041L288.338 294.288C288.338 294.288 271.908 305.549 254.371 308.872L247.171 320.132Z" fill="url(#paint13_linear_1_267)"/>
</g>
<defs>
<linearGradient id="paint0_linear_1_267" x1="256" y1="-4.63426e-06" x2="411.5" y2="495" gradientUnits="userSpaceOnUse">
<stop stop-color="white"/>
<stop offset="1" stop-color="#EDEDED"/>
</linearGradient>
<radialGradient id="paint1_radial_1_267" cx="0" cy="0" r="1" gradientUnits="userSpaceOnUse" gradientTransform="translate(248.19 321.811) scale(152.464 66.3113)">
<stop/>
<stop offset="1" stop-opacity="0"/>
</radialGradient>
<radialGradient id="paint2_radial_1_267" cx="0" cy="0" r="1" gradientUnits="userSpaceOnUse" gradientTransform="translate(193.325 241.298) scale(284.782 208.304)">
<stop stop-color="#857C63"/>
<stop offset="1" stop-color="#221F19"/>
</radialGradient>
<linearGradient id="paint3_linear_1_267" x1="293.207" y1="292.503" x2="200.167" y2="310.964" gradientUnits="userSpaceOnUse">
<stop/>
<stop offset="1" stop-opacity="0"/>
</linearGradient>
<linearGradient id="paint4_linear_1_267" x1="180.051" y1="214.654" x2="385.195" y2="447.526" gradientUnits="userSpaceOnUse">
<stop stop-color="white"/>
<stop offset="1" stop-color="white" stop-opacity="0"/>
</linearGradient>
<radialGradient id="paint5_radial_1_267" cx="0" cy="0" r="1" gradientUnits="userSpaceOnUse" gradientTransform="translate(168.991 209.836) scale(49.4765 49.4765)">
<stop stop-color="white"/>
<stop offset="1" stop-color="#B9B9B0"/>
</radialGradient>
<radialGradient id="paint6_radial_1_267" cx="0" cy="0" r="1" gradientUnits="userSpaceOnUse" gradientTransform="translate(92.3748 249.953) rotate(-30) scale(37.1663 43.3792)">
<stop stop-color="#5B676B"/>
<stop offset="1" stop-color="#141718"/>
</radialGradient>
<linearGradient id="paint7_linear_1_267" x1="86.558" y1="240.856" x2="125.52" y2="297.341" gradientUnits="userSpaceOnUse">
<stop stop-color="white"/>
<stop offset="1" stop-color="white" stop-opacity="0"/>
</linearGradient>
<radialGradient id="paint8_radial_1_267" cx="0" cy="0" r="1" gradientUnits="userSpaceOnUse" gradientTransform="translate(239.14 209.371) scale(58.0811 58.0811)">
<stop stop-color="white"/>
<stop offset="1" stop-color="#B9B9B0"/>
</radialGradient>
<linearGradient id="paint9_linear_1_267" x1="342.041" y1="322.786" x2="324.694" y2="360.688" gradientUnits="userSpaceOnUse">
<stop stop-color="#6E3D09"/>
<stop offset="0.242424" stop-color="#EA8113"/>
<stop offset="0.621212" stop-color="#5C3307"/>
<stop offset="1" stop-color="#E07C12"/>
</linearGradient>
<linearGradient id="paint10_linear_1_267" x1="379.235" y1="363.952" x2="386.864" y2="348.555" gradientUnits="userSpaceOnUse">
<stop stop-color="#BDBDBD"/>
<stop offset="0.333333" stop-color="#E2E2E2"/>
<stop offset="0.666667" stop-color="#A3A3A3"/>
<stop offset="1" stop-color="#DDDDDD"/>
</linearGradient>
<radialGradient id="paint11_radial_1_267" cx="0" cy="0" r="1" gradientUnits="userSpaceOnUse" gradientTransform="translate(398.266 372.902) rotate(-106.422) scale(40.4699 39.4364)">
<stop stop-color="#696969"/>
<stop offset="1"/>
</radialGradient>
<linearGradient id="paint12_linear_1_267" x1="422.224" y1="364.818" x2="432.002" y2="382.93" gradientUnits="userSpaceOnUse">
<stop stop-color="white"/>
<stop offset="1" stop-color="white" stop-opacity="0"/>
</linearGradient>
<linearGradient id="paint13_linear_1_267" x1="273.57" y1="310.164" x2="258.248" y2="313.856" gradientUnits="userSpaceOnUse">
<stop/>
<stop offset="1" stop-opacity="0"/>
</linearGradient>
<clipPath id="clip0_1_267">
<rect width="401" height="401" fill="white" transform="translate(55 55)"/>
</clipPath>
</defs>
</svg>
