<svg width="512" height="512" viewBox="0 0 512 512" fill="none" xmlns="http://www.w3.org/2000/svg">
<g clip-path="url(#clip0_1_248)">
<rect width="512" height="512" rx="130" fill="url(#paint0_linear_1_248)"/>
<g filter="url(#filter0_d_1_248)">
<path fill-rule="evenodd" clip-rule="evenodd" d="M107.117 397.443C107.117 397.443 102.107 402.457 100.782 406.527C99.8561 409.37 99.4946 413.61 101.166 416.144C102.392 418.003 104 419.884 106.349 419.884C208.486 419.898 321.44 420.038 400.912 420.241C403.603 420.247 408.706 419.809 410.798 417.035C412.931 414.207 412.878 407.902 411.374 404.745C409.791 401.421 402.352 399.937 402.352 399.937L107.117 397.443Z" fill="#CB5600"/>
<path fill-rule="evenodd" clip-rule="evenodd" d="M144.752 297.464C140.085 297.464 135.241 300.8 133.889 304.954L101.282 405.166C99.9302 409.32 102.593 412.672 107.259 412.672H407.951C411.507 412.672 413.545 410.128 412.515 406.963L378.727 303.173C377.697 300.008 374.014 297.464 370.459 297.464H144.752Z" fill="#FF8800"/>
<path fill-rule="evenodd" clip-rule="evenodd" d="M256.174 91.0061C248.418 90.9337 243.855 91.4686 239.28 94.6591C237.192 96.1153 235.542 99.5741 234.556 102.065L154.954 345.867C154.954 345.867 156.81 356.884 168.071 366.899C175.662 373.65 190.059 378.652 199.104 380.471C222.317 385.139 240.933 386.253 261.985 385.958C283.609 385.654 305.213 381.71 326.005 376.19C357.015 367.957 358.003 344.854 358.003 344.854L276.128 97.5316C275.791 96.5131 274.971 95.7621 274.321 95.1904C269.457 90.9132 262.087 91.0613 256.174 91.0061Z" fill="url(#paint1_linear_1_248)"/>
<path fill-rule="evenodd" clip-rule="evenodd" d="M256.174 91.0061C248.418 90.9337 243.855 91.4686 239.28 94.6591C237.192 96.1153 235.542 99.5741 234.556 102.065L154.954 345.867C154.954 345.867 158.454 366.954 186.625 377.232C206.124 384.347 226.251 385.291 257.57 385.601C292.449 385.948 306.657 382.772 329.455 375.392C340.186 371.918 345.749 367.401 350.838 362.393C358.198 355.15 358.003 344.854 358.003 344.854L276.128 97.5316C275.575 96.5981 274.971 95.7621 274.321 95.1904C269.457 90.9132 262.087 91.0613 256.174 91.0061Z" fill="#FF8800"/>
<path fill-rule="evenodd" clip-rule="evenodd" d="M184.017 256.868L165.817 312.609C187.89 329.869 220.284 340.77 256.389 340.77C292.656 340.77 325.168 329.772 347.247 312.376L328.921 257C312.05 269.489 285.903 277.507 256.55 277.507C227.099 277.507 200.882 269.427 184.017 256.868Z" fill="white"/>
<path fill-rule="evenodd" clip-rule="evenodd" d="M289.228 137.133C280.639 139.808 268.902 141.467 255.942 141.467C243.192 141.467 231.617 139.864 223.066 137.266L203.864 196.095C216.772 202.363 235.672 206.324 256.747 206.324C277.405 206.324 295.99 202.531 308.878 196.477L289.228 137.133Z" fill="white"/>
<path opacity="0.106383" fill-rule="evenodd" clip-rule="evenodd" d="M245.538 100.826C248.03 101.259 250.14 104.279 249.881 106.619C240.715 189.378 229.936 279.361 221.377 359.254C221.377 359.254 220.423 364.797 218.119 366.055C208.411 371.357 194.541 367.942 184.456 363.284C177.574 360.105 171.207 354.244 168.982 347.416C166.679 340.346 170.543 332.659 172.511 325.502C192.593 252.478 219.084 172.084 238.479 105.234C239.217 102.693 242.75 100.341 245.538 100.826Z" fill="white"/>
<path d="M270.283 93.3721C270.284 93.6411 269.922 93.9075 269.22 94.1561C268.517 94.4047 267.487 94.6306 266.188 94.8209C264.889 95.0112 263.346 95.1622 261.649 95.2651C259.951 95.3681 258.131 95.4211 256.294 95.4211C254.456 95.4211 252.637 95.3681 250.939 95.2651C249.241 95.1622 247.699 95.0112 246.4 94.8209C245.101 94.6306 244.071 94.4047 243.368 94.1561C242.665 93.9075 242.304 93.6411 242.305 93.3721C242.304 93.103 242.665 92.8366 243.368 92.588C244.071 92.3394 245.101 92.1135 246.4 91.9232C247.699 91.7329 249.241 91.582 250.939 91.479C252.637 91.376 254.456 91.323 256.294 91.323C258.131 91.323 259.951 91.376 261.649 91.479C263.346 91.582 264.889 91.7329 266.188 91.9232C267.487 92.1135 268.517 92.3394 269.22 92.588C269.922 92.8366 270.284 93.103 270.283 93.3721Z" fill="#CB5C00"/>
<g filter="url(#filter1_f_1_248)">
<path fill-rule="evenodd" clip-rule="evenodd" d="M153.322 334.163C153.322 334.163 147.998 337.724 147.27 342.241C146.039 349.883 155.38 360.486 160.505 366.576C166.021 373.128 177.275 377.746 185.542 380.952C198.441 385.953 212.624 387.798 226.516 389.25C239.869 390.647 256.11 390.116 269.515 389.25C283.327 388.359 301.457 387.175 307.907 386.044C322.484 383.49 333.834 379.498 344.514 372.865C349.065 370.037 355.202 364.348 358.135 360.056C360.372 356.782 364.547 350.036 364.728 346.163C364.83 343.982 358.702 339.488 358.702 339.488C358.702 339.488 355.47 359.765 325.409 371.735C308.105 378.625 289.082 380.648 270.283 381.648C252.112 382.614 229.523 381.943 211.694 378.546C198.489 376.03 187.586 371.422 175.586 365.722C163.015 359.751 156.581 344.107 154.049 337.899C152.141 333.221 153.322 334.163 153.322 334.163Z" fill="#EE6900"/>
</g>
</g>
</g>
<defs>
<filter id="filter0_d_1_248" x="45.2" y="42.2" width="472.382" height="488.841" filterUnits="userSpaceOnUse" color-interpolation-filters="sRGB">
<feFlood flood-opacity="0" result="BackgroundImageFix"/>
<feColorMatrix in="SourceAlpha" type="matrix" values="0 0 0 0 0 0 0 0 0 0 0 0 0 0 0 0 0 0 127 0" result="hardAlpha"/>
<feOffset dx="25" dy="31"/>
<feGaussianBlur stdDeviation="39.9"/>
<feComposite in2="hardAlpha" operator="out"/>
<feColorMatrix type="matrix" values="0 0 0 0 0 0 0 0 0 0 0 0 0 0 0 0 0 0 0.04 0"/>
<feBlend mode="normal" in2="BackgroundImageFix" result="effect1_dropShadow_1_248"/>
<feBlend mode="normal" in="SourceGraphic" in2="effect1_dropShadow_1_248" result="shape"/>
</filter>
<filter id="filter1_f_1_248" x="137.22" y="324.146" width="237.448" height="75.9024" filterUnits="userSpaceOnUse" color-interpolation-filters="sRGB">
<feFlood flood-opacity="0" result="BackgroundImageFix"/>
<feBlend mode="normal" in="SourceGraphic" in2="BackgroundImageFix" result="shape"/>
<feGaussianBlur stdDeviation="4.96943" result="effect1_foregroundBlur_1_248"/>
</filter>
<linearGradient id="paint0_linear_1_248" x1="256" y1="-4.63426e-06" x2="411.5" y2="495" gradientUnits="userSpaceOnUse">
<stop stop-color="white"/>
<stop offset="1" stop-color="#DDDDDD"/>
</linearGradient>
<linearGradient id="paint1_linear_1_248" x1="192.572" y1="219.36" x2="208.913" y2="223.464" gradientUnits="userSpaceOnUse">
<stop stop-color="#9B4400"/>
<stop offset="1" stop-color="#E56300"/>
</linearGradient>
<clipPath id="clip0_1_248">
<rect width="512" height="512" rx="130" fill="white"/>
</clipPath>
</defs>
</svg>
