<svg width="512" height="512" viewBox="0 0 512 512" fill="none" xmlns="http://www.w3.org/2000/svg">
<rect width="512" height="512" rx="130" fill="url(#paint0_linear_1_28)"/>
<g filter="url(#filter0_i_1_28)">
<rect x="195.5" y="111.5" width="120" height="199" rx="60" stroke="url(#paint1_linear_1_28)" stroke-width="25"/>
<path d="M99.4609 308.009C84.6057 259.496 77.1781 235.239 89.4702 218.619C101.762 202 127.131 202 177.867 202H331.687C383.418 202 409.283 202 421.559 218.964C433.834 235.927 425.749 260.496 409.577 309.634L394.109 356.634C385.159 383.832 380.683 397.43 369.926 405.215C359.168 413 344.852 413 316.219 413H192.259C163.033 413 148.42 413 137.554 404.963C126.688 396.927 122.41 382.954 113.853 355.009L99.4609 308.009Z" fill="url(#paint2_linear_1_28)"/>
</g>
<g filter="url(#filter1_i_1_28)">
<ellipse cx="43.6502" cy="42.2019" rx="43.6502" ry="42.2019" transform="matrix(-0.999949 0.010117 -0.0109823 -0.99994 347.061 313.399)" fill="url(#paint3_linear_1_28)"/>
</g>
<g filter="url(#filter2_i_1_28)">
<rect width="80.4786" height="79.2644" rx="21" transform="matrix(0.999997 0.00227654 0.0278502 0.999612 164.829 233.587)" fill="url(#paint4_linear_1_28)"/>
</g>
<g filter="url(#filter3_i_1_28)">
<path d="M259.215 379.692C258.692 385.493 252.291 388.772 247.214 385.839L194.58 355.437C189.09 352.266 189.267 344.331 194.891 341.451L252.947 311.713C258.572 308.833 265.203 313.28 264.638 319.552L259.215 379.692Z" fill="url(#paint5_linear_1_28)"/>
</g>
<defs>
<filter id="filter0_i_1_28" x="83.2834" y="96" width="344.219" height="317" filterUnits="userSpaceOnUse" color-interpolation-filters="sRGB">
<feFlood flood-opacity="0" result="BackgroundImageFix"/>
<feBlend mode="normal" in="SourceGraphic" in2="BackgroundImageFix" result="shape"/>
<feColorMatrix in="SourceAlpha" type="matrix" values="0 0 0 0 0 0 0 0 0 0 0 0 0 0 0 0 0 0 127 0" result="hardAlpha"/>
<feOffset dy="-3"/>
<feGaussianBlur stdDeviation="4.35"/>
<feComposite in2="hardAlpha" operator="arithmetic" k2="-1" k3="1"/>
<feColorMatrix type="matrix" values="0 0 0 0 0.258824 0 0 0 0 0.733333 0 0 0 0 1 0 0 0 1 0"/>
<feBlend mode="normal" in2="shape" result="effect1_innerShadow_1_28"/>
</filter>
<filter id="filter1_i_1_28" x="259.299" y="229.439" width="92.301" height="88.4035" filterUnits="userSpaceOnUse" color-interpolation-filters="sRGB">
<feFlood flood-opacity="0" result="BackgroundImageFix"/>
<feBlend mode="normal" in="SourceGraphic" in2="BackgroundImageFix" result="shape"/>
<feColorMatrix in="SourceAlpha" type="matrix" values="0 0 0 0 0 0 0 0 0 0 0 0 0 0 0 0 0 0 127 0" result="hardAlpha"/>
<feOffset dx="5" dy="4"/>
<feGaussianBlur stdDeviation="5.55"/>
<feComposite in2="hardAlpha" operator="arithmetic" k2="-1" k3="1"/>
<feColorMatrix type="matrix" values="0 0 0 0 1 0 0 0 0 1 0 0 0 0 1 0 0 0 1 0"/>
<feBlend mode="normal" in2="shape" result="effect1_innerShadow_1_28"/>
</filter>
<filter id="filter2_i_1_28" x="165.405" y="233.635" width="86.5328" height="83.3213" filterUnits="userSpaceOnUse" color-interpolation-filters="sRGB">
<feFlood flood-opacity="0" result="BackgroundImageFix"/>
<feBlend mode="normal" in="SourceGraphic" in2="BackgroundImageFix" result="shape"/>
<feColorMatrix in="SourceAlpha" type="matrix" values="0 0 0 0 0 0 0 0 0 0 0 0 0 0 0 0 0 0 127 0" result="hardAlpha"/>
<feOffset dx="5" dy="4"/>
<feGaussianBlur stdDeviation="5.55"/>
<feComposite in2="hardAlpha" operator="arithmetic" k2="-1" k3="1"/>
<feColorMatrix type="matrix" values="0 0 0 0 1 0 0 0 0 1 0 0 0 0 1 0 0 0 1 0"/>
<feBlend mode="normal" in2="shape" result="effect1_innerShadow_1_28"/>
</filter>
<filter id="filter3_i_1_28" x="190.566" y="310.817" width="79.106" height="80.1152" filterUnits="userSpaceOnUse" color-interpolation-filters="sRGB">
<feFlood flood-opacity="0" result="BackgroundImageFix"/>
<feBlend mode="normal" in="SourceGraphic" in2="BackgroundImageFix" result="shape"/>
<feColorMatrix in="SourceAlpha" type="matrix" values="0 0 0 0 0 0 0 0 0 0 0 0 0 0 0 0 0 0 127 0" result="hardAlpha"/>
<feOffset dx="5" dy="4"/>
<feGaussianBlur stdDeviation="5.55"/>
<feComposite in2="hardAlpha" operator="arithmetic" k2="-1" k3="1"/>
<feColorMatrix type="matrix" values="0 0 0 0 1 0 0 0 0 1 0 0 0 0 1 0 0 0 1 0"/>
<feBlend mode="normal" in2="shape" result="effect1_innerShadow_1_28"/>
</filter>
<linearGradient id="paint0_linear_1_28" x1="256" y1="0" x2="561" y2="636" gradientUnits="userSpaceOnUse">
<stop stop-color="#00A3FF"/>
<stop offset="1" stop-color="#62C6FF"/>
</linearGradient>
<linearGradient id="paint1_linear_1_28" x1="255.5" y1="99" x2="350.282" y2="485.682" gradientUnits="userSpaceOnUse">
<stop stop-color="white"/>
<stop offset="1" stop-color="white" stop-opacity="0"/>
</linearGradient>
<linearGradient id="paint2_linear_1_28" x1="256" y1="202" x2="436.157" y2="566.866" gradientUnits="userSpaceOnUse">
<stop offset="0.291667" stop-color="white"/>
<stop offset="1" stop-color="#38B8FF"/>
</linearGradient>
<linearGradient id="paint3_linear_1_28" x1="43.6502" y1="0" x2="43.6502" y2="84.4038" gradientUnits="userSpaceOnUse">
<stop stop-color="#00A0FB"/>
<stop offset="1" stop-color="#82D2FF"/>
</linearGradient>
<linearGradient id="paint4_linear_1_28" x1="8.04786" y1="-23.2839" x2="79.0024" y2="80.2758" gradientUnits="userSpaceOnUse">
<stop stop-color="#FF0000"/>
<stop offset="0.949854" stop-color="#FF9E9E"/>
</linearGradient>
<linearGradient id="paint5_linear_1_28" x1="258.094" y1="392.124" x2="213.165" y2="304.408" gradientUnits="userSpaceOnUse">
<stop stop-color="#00E05E"/>
<stop offset="1" stop-color="#5FFFA2"/>
</linearGradient>
</defs>
</svg>
