<svg width="512" height="512" viewBox="0 0 512 512" fill="none" xmlns="http://www.w3.org/2000/svg">
<g filter="url(#filter0_i_1_184)">
<rect width="512" height="512" rx="130" fill="url(#paint0_radial_1_184)"/>
<rect x="17.5" y="17.5" width="477" height="477" rx="112.5" stroke="url(#paint1_linear_1_184)" stroke-width="35"/>
<rect x="112" y="19" width="1" height="477" fill="url(#paint2_linear_1_184)" fill-opacity="0.11"/>
<rect x="64" y="19" width="1" height="477" fill="url(#paint3_linear_1_184)" fill-opacity="0.11"/>
<rect x="160" y="19" width="1" height="477" fill="url(#paint4_linear_1_184)" fill-opacity="0.11"/>
<rect x="208" y="19" width="1" height="477" fill="url(#paint5_linear_1_184)" fill-opacity="0.11"/>
<rect x="256" y="19" width="1" height="477" fill="url(#paint6_linear_1_184)" fill-opacity="0.11"/>
<rect x="304" y="19" width="1" height="477" fill="url(#paint7_linear_1_184)" fill-opacity="0.11"/>
<rect x="352" y="19" width="1" height="477" fill="url(#paint8_linear_1_184)" fill-opacity="0.11"/>
<rect x="400" y="19" width="1" height="477" fill="url(#paint9_linear_1_184)" fill-opacity="0.11"/>
<rect x="448" y="19" width="1" height="477" fill="url(#paint10_linear_1_184)" fill-opacity="0.11"/>
<rect x="33" y="400" width="1" height="447" transform="rotate(-90 33 400)" fill="url(#paint11_linear_1_184)" fill-opacity="0.11"/>
<rect x="33" y="448" width="1" height="447" transform="rotate(-90 33 448)" fill="url(#paint12_linear_1_184)" fill-opacity="0.11"/>
<rect x="33" y="352" width="1" height="447" transform="rotate(-90 33 352)" fill="url(#paint13_linear_1_184)" fill-opacity="0.11"/>
<rect x="33" y="304" width="1" height="447" transform="rotate(-90 33 304)" fill="url(#paint14_linear_1_184)" fill-opacity="0.11"/>
<rect x="33" y="256" width="1" height="447" transform="rotate(-90 33 256)" fill="url(#paint15_linear_1_184)" fill-opacity="0.11"/>
<rect x="33" y="208" width="1" height="447" transform="rotate(-90 33 208)" fill="url(#paint16_linear_1_184)" fill-opacity="0.11"/>
<rect x="33" y="160" width="1" height="447" transform="rotate(-90 33 160)" fill="url(#paint17_linear_1_184)" fill-opacity="0.11"/>
<rect x="33" y="112" width="1" height="447" transform="rotate(-90 33 112)" fill="url(#paint18_linear_1_184)" fill-opacity="0.11"/>
<rect x="33" y="64" width="1" height="447" transform="rotate(-90 33 64)" fill="url(#paint19_linear_1_184)" fill-opacity="0.11"/>
<path d="M19 262.356H122.226L178.978 160L240.381 351L322.252 262.356H493" stroke="url(#paint20_radial_1_184)" stroke-width="13"/>
<rect x="304" y="19" width="4" height="483" fill="url(#paint21_linear_1_184)"/>
</g>
<defs>
<filter id="filter0_i_1_184" x="0" y="0" width="691" height="686" filterUnits="userSpaceOnUse" color-interpolation-filters="sRGB">
<feFlood flood-opacity="0" result="BackgroundImageFix"/>
<feBlend mode="normal" in="SourceGraphic" in2="BackgroundImageFix" result="shape"/>
<feColorMatrix in="SourceAlpha" type="matrix" values="0 0 0 0 0 0 0 0 0 0 0 0 0 0 0 0 0 0 127 0" result="hardAlpha"/>
<feOffset dx="179" dy="174"/>
<feGaussianBlur stdDeviation="116.6"/>
<feComposite in2="hardAlpha" operator="arithmetic" k2="-1" k3="1"/>
<feColorMatrix type="matrix" values="0 0 0 0 0.0672038 0 0 0 0 0.00743573 0 0 0 0 0.00743573 0 0 0 0.36 0"/>
<feBlend mode="normal" in2="shape" result="effect1_innerShadow_1_184"/>
</filter>
<radialGradient id="paint0_radial_1_184" cx="0" cy="0" r="1" gradientUnits="userSpaceOnUse" gradientTransform="translate(256 256) rotate(90) scale(256)">
<stop stop-color="#24A62A"/>
<stop offset="1" stop-color="#18731C"/>
</radialGradient>
<linearGradient id="paint1_linear_1_184" x1="256" y1="8.12113e-06" x2="528.5" y2="807.5" gradientUnits="userSpaceOnUse">
<stop stop-color="#C9C9C9"/>
<stop offset="1" stop-color="#969696"/>
</linearGradient>
<linearGradient id="paint2_linear_1_184" x1="112.5" y1="19" x2="112.5" y2="496" gradientUnits="userSpaceOnUse">
<stop stop-color="#4DB651"/>
<stop offset="1" stop-color="#4DB651" stop-opacity="0"/>
</linearGradient>
<linearGradient id="paint3_linear_1_184" x1="64.5" y1="19" x2="64.5" y2="496" gradientUnits="userSpaceOnUse">
<stop stop-color="#4DB651"/>
<stop offset="1" stop-color="#4DB651" stop-opacity="0"/>
</linearGradient>
<linearGradient id="paint4_linear_1_184" x1="160.5" y1="19" x2="160.5" y2="496" gradientUnits="userSpaceOnUse">
<stop stop-color="#4DB651"/>
<stop offset="1" stop-color="#4DB651" stop-opacity="0"/>
</linearGradient>
<linearGradient id="paint5_linear_1_184" x1="208.5" y1="19" x2="208.5" y2="496" gradientUnits="userSpaceOnUse">
<stop stop-color="#4DB651"/>
<stop offset="1" stop-color="#4DB651" stop-opacity="0"/>
</linearGradient>
<linearGradient id="paint6_linear_1_184" x1="256.5" y1="19" x2="256.5" y2="496" gradientUnits="userSpaceOnUse">
<stop stop-color="#4DB651"/>
<stop offset="1" stop-color="#4DB651" stop-opacity="0"/>
</linearGradient>
<linearGradient id="paint7_linear_1_184" x1="304.5" y1="19" x2="304.5" y2="496" gradientUnits="userSpaceOnUse">
<stop stop-color="#4DB651"/>
<stop offset="1" stop-color="#4DB651" stop-opacity="0"/>
</linearGradient>
<linearGradient id="paint8_linear_1_184" x1="352.5" y1="19" x2="352.5" y2="496" gradientUnits="userSpaceOnUse">
<stop stop-color="#4DB651"/>
<stop offset="1" stop-color="#4DB651" stop-opacity="0"/>
</linearGradient>
<linearGradient id="paint9_linear_1_184" x1="400.5" y1="19" x2="400.5" y2="496" gradientUnits="userSpaceOnUse">
<stop stop-color="#4DB651"/>
<stop offset="1" stop-color="#4DB651" stop-opacity="0"/>
</linearGradient>
<linearGradient id="paint10_linear_1_184" x1="448.5" y1="19" x2="448.5" y2="496" gradientUnits="userSpaceOnUse">
<stop stop-color="#4DB651"/>
<stop offset="1" stop-color="#4DB651" stop-opacity="0"/>
</linearGradient>
<linearGradient id="paint11_linear_1_184" x1="33.5" y1="400" x2="33.5" y2="847" gradientUnits="userSpaceOnUse">
<stop stop-color="#4DB651"/>
<stop offset="1" stop-color="#4DB651" stop-opacity="0"/>
</linearGradient>
<linearGradient id="paint12_linear_1_184" x1="33.5" y1="448" x2="33.5" y2="895" gradientUnits="userSpaceOnUse">
<stop stop-color="#4DB651"/>
<stop offset="1" stop-color="#4DB651" stop-opacity="0"/>
</linearGradient>
<linearGradient id="paint13_linear_1_184" x1="33.5" y1="352" x2="33.5" y2="799" gradientUnits="userSpaceOnUse">
<stop stop-color="#4DB651"/>
<stop offset="1" stop-color="#4DB651" stop-opacity="0"/>
</linearGradient>
<linearGradient id="paint14_linear_1_184" x1="33.5" y1="304" x2="33.5" y2="751" gradientUnits="userSpaceOnUse">
<stop stop-color="#4DB651"/>
<stop offset="1" stop-color="#4DB651" stop-opacity="0"/>
</linearGradient>
<linearGradient id="paint15_linear_1_184" x1="33.5" y1="256" x2="33.5" y2="703" gradientUnits="userSpaceOnUse">
<stop stop-color="#4DB651"/>
<stop offset="1" stop-color="#4DB651" stop-opacity="0"/>
</linearGradient>
<linearGradient id="paint16_linear_1_184" x1="33.5" y1="208" x2="33.5" y2="655" gradientUnits="userSpaceOnUse">
<stop stop-color="#4DB651"/>
<stop offset="1" stop-color="#4DB651" stop-opacity="0"/>
</linearGradient>
<linearGradient id="paint17_linear_1_184" x1="33.5" y1="160" x2="33.5" y2="607" gradientUnits="userSpaceOnUse">
<stop stop-color="#4DB651"/>
<stop offset="1" stop-color="#4DB651" stop-opacity="0"/>
</linearGradient>
<linearGradient id="paint18_linear_1_184" x1="33.5" y1="112" x2="33.5" y2="559" gradientUnits="userSpaceOnUse">
<stop stop-color="#4DB651"/>
<stop offset="1" stop-color="#4DB651" stop-opacity="0"/>
</linearGradient>
<linearGradient id="paint19_linear_1_184" x1="33.5" y1="64" x2="33.5" y2="511" gradientUnits="userSpaceOnUse">
<stop stop-color="#4DB651"/>
<stop offset="1" stop-color="#4DB651" stop-opacity="0"/>
</linearGradient>
<radialGradient id="paint20_radial_1_184" cx="0" cy="0" r="1" gradientUnits="userSpaceOnUse" gradientTransform="translate(43 394) rotate(-16.8054) scale(439.26 3396.14)">
<stop offset="0.124804" stop-color="#AFAFAF"/>
<stop offset="0.55884" stop-color="#B0FFB3"/>
<stop offset="1" stop-color="#8D8D8D"/>
</radialGradient>
<linearGradient id="paint21_linear_1_184" x1="306" y1="19" x2="195.905" y2="514.261" gradientUnits="userSpaceOnUse">
<stop stop-color="#21ACFF"/>
<stop offset="1" stop-color="#002FD6"/>
</linearGradient>
</defs>
</svg>
