<svg width="512" height="512" viewBox="0 0 512 512" fill="none" xmlns="http://www.w3.org/2000/svg">
<rect x="17" y="17" width="478" height="478" rx="113" fill="url(#paint0_radial_1_2)"/>
<rect x="17" y="17" width="478" height="478" rx="113" stroke="url(#paint1_linear_1_2)" stroke-width="34"/>
<rect x="192" y="272" width="125" height="23" rx="11.5" fill="white"/>
<path d="M102.089 123.274C107.66 118.152 116.694 118.152 122.265 123.274L194.957 190.098C201.056 195.704 201.056 204.794 194.957 210.401L185.823 218.798L102.089 141.822C96.5168 136.7 96.5168 128.396 102.089 123.274Z" fill="white"/>
<path d="M102.088 277.726C96.5168 272.604 96.5168 264.3 102.088 259.178L185.823 182.202L194.221 189.922C200.726 195.903 200.726 205.599 194.221 211.579L122.265 277.726C116.694 282.848 107.66 282.848 102.088 277.726Z" fill="white"/>
<defs>
<radialGradient id="paint0_radial_1_2" cx="0" cy="0" r="1" gradientUnits="userSpaceOnUse" gradientTransform="translate(227.25 236.75) rotate(56.1121) scale(381.567)">
<stop stop-color="#4B4B4B"/>
<stop offset="1" stop-color="#292929"/>
</radialGradient>
<linearGradient id="paint1_linear_1_2" x1="256" y1="0" x2="553.5" y2="619.5" gradientUnits="userSpaceOnUse">
<stop stop-color="#D2D2D2"/>
<stop offset="1" stop-color="#A5A5A5"/>
</linearGradient>
</defs>
</svg>
