<svg width="512" height="512" viewBox="0 0 512 512" fill="none" xmlns="http://www.w3.org/2000/svg">
<g clip-path="url(#clip0_4_2)">
<rect width="512" height="512" rx="130" fill="url(#paint0_linear_4_2)"/>
<path d="M80.9683 253.313C95.9479 240.473 118.052 240.473 133.032 253.313L257.478 359.982C277.921 377.503 265.529 411 238.606 411H-24.6055C-51.5293 411 -63.9205 377.503 -43.4785 359.982L80.9683 253.313Z" fill="url(#paint1_linear_4_2)"/>
<path d="M113.372 372.559L335.846 200.961C355.734 185.621 383.413 185.438 403.502 200.514L513.516 283.074C518.857 287.082 522 293.37 522 300.047L517.431 544H-56V351.405L85.7318 249.692L72.4445 260.84L40.887 288.153L20.4255 308.008C16.6968 311.626 13.2862 315.558 10.2312 319.76L5.89907 325.719C1.61097 331.618 -1.44692 338.319 -3.09267 345.424L-3.87957 348.821C-6.19081 358.798 -4.99517 369.267 -0.493793 378.467L-0.211071 379.044C3.26822 386.155 8.67212 392.147 15.3866 396.34C22.1095 400.538 29.8762 402.764 37.8022 402.764H42.9784C50.7869 402.764 58.5213 401.249 65.753 398.304L75.5178 394.328C89.0602 388.812 101.794 381.49 113.372 372.559Z" fill="#E3F4FF"/>
<rect x="80" y="94" width="93" height="93" rx="46.5" fill="white"/>
</g>
<defs>
<linearGradient id="paint0_linear_4_2" x1="256" y1="7.62939e-06" x2="512" y2="339" gradientUnits="userSpaceOnUse">
<stop stop-color="#00A4FF"/>
<stop offset="1" stop-color="#8ED7FF"/>
</linearGradient>
<linearGradient id="paint1_linear_4_2" x1="46" y1="231" x2="165.07" y2="345.176" gradientUnits="userSpaceOnUse">
<stop stop-color="#E0F4FF"/>
<stop offset="0.987349" stop-color="#ACDAFC" stop-opacity="0.9"/>
</linearGradient>
<clipPath id="clip0_4_2">
<rect width="512" height="512" rx="130" fill="white"/>
</clipPath>
</defs>
</svg>
