<svg width="512" height="512" viewBox="0 0 512 512" fill="none" xmlns="http://www.w3.org/2000/svg">
<rect width="512" height="512" rx="130" fill="url(#paint0_linear_5_4)"/>
<path d="M257 343.461C305.601 343.461 345 304.286 345 255.961C345 207.636 305.601 168.461 257 168.461C208.399 168.461 169 207.636 169 255.961C169 304.286 208.399 343.461 257 343.461Z" fill="white"/>
<path d="M257 168.5H409.395C393.953 141.895 371.738 119.803 344.984 104.443C318.23 89.0828 287.881 80.9975 256.988 80.9996C226.095 81.0018 195.747 89.0913 168.995 104.455C142.244 119.818 120.032 141.914 104.593 168.521L180.791 299.75L180.859 299.732C173.108 286.442 169.017 271.354 169 255.99C168.983 240.626 173.039 225.53 180.76 212.222C188.482 198.913 199.595 187.865 212.98 180.189C226.365 172.513 241.548 168.481 257 168.5Z" fill="#1170E3"/>
<path d="M257 325.271C295.476 325.271 326.667 294.257 326.667 256C326.667 217.743 295.476 186.729 257 186.729C218.524 186.729 187.333 217.743 187.333 256C187.333 294.257 218.524 325.271 257 325.271Z" fill="#1A73E8"/>
<path d="M333.203 299.771L257.005 431C287.898 431.004 318.248 422.921 345.002 407.563C371.757 392.205 393.974 370.114 409.418 343.511C424.863 316.907 432.991 286.73 432.985 256.012C432.98 225.295 424.841 195.12 409.387 168.523H256.992L256.974 168.59C272.425 168.561 287.612 172.582 301.002 180.249C314.392 187.916 325.513 198.957 333.243 212.26C340.974 225.563 345.04 240.657 345.033 256.021C345.026 271.385 340.946 286.475 333.203 299.771Z" fill="#9ABFF9"/>
<path d="M180.796 299.773L104.599 168.544C89.1481 195.144 81.0134 225.32 81.0122 256.037C81.0111 286.755 89.1436 316.931 104.592 343.532C120.04 370.134 142.26 392.222 169.017 407.576C195.774 422.93 226.125 431.009 257.018 431L333.216 299.771L333.167 299.722C325.467 313.042 314.371 324.108 300.998 331.805C287.625 339.502 272.448 343.557 256.996 343.562C241.545 343.567 226.365 339.522 212.987 331.834C199.609 324.146 188.506 313.088 180.796 299.773Z" fill="#4B8CF5"/>
<defs>
<linearGradient id="paint0_linear_5_4" x1="256" y1="-4.63426e-06" x2="411.5" y2="495" gradientUnits="userSpaceOnUse">
<stop stop-color="white"/>
<stop offset="1" stop-color="#EDEDED"/>
</linearGradient>
</defs>
</svg>
