<svg width="512" height="512" viewBox="0 0 512 512" fill="none" xmlns="http://www.w3.org/2000/svg">
<g clip-path="url(#clip0_1_16)">
<rect width="512" height="512" rx="130" fill="url(#paint0_linear_1_16)"/>
<path d="M88.9683 245.313C103.948 232.473 126.052 232.473 141.032 245.313L265.478 351.982C285.921 369.503 273.529 403 246.606 403H-16.6055C-43.5293 403 -55.9205 369.503 -35.4785 351.982L88.9683 245.313Z" fill="url(#paint1_linear_1_16)"/>
<path d="M121.372 364.559L343.846 192.961C363.734 177.621 391.413 177.438 411.502 192.514L521.516 275.074C526.857 279.082 530 285.37 530 292.047L525.431 536H-48V343.405L93.7318 241.692L80.4445 252.84L48.887 280.153L28.4255 300.008C24.6968 303.626 21.2862 307.558 18.2312 311.76L13.8991 317.719C9.61097 323.618 6.55308 330.319 4.90733 337.424L4.12043 340.821C1.80919 350.798 3.00483 361.267 7.50621 370.467L7.78893 371.044C11.2682 378.155 16.6721 384.147 23.3866 388.34C30.1095 392.538 37.8762 394.764 45.8022 394.764H50.9784C58.7869 394.764 66.5213 393.249 73.753 390.304L83.5178 386.328C97.0602 380.812 109.794 373.49 121.372 364.559Z" fill="#E3F4FF"/>
<rect x="80" y="94" width="93" height="93" rx="46.5" fill="white"/>
</g>
<defs>
<linearGradient id="paint0_linear_1_16" x1="256" y1="7.62939e-06" x2="512" y2="339" gradientUnits="userSpaceOnUse">
<stop stop-color="#00A4FF"/>
<stop offset="1" stop-color="#8ED7FF"/>
</linearGradient>
<linearGradient id="paint1_linear_1_16" x1="54" y1="223" x2="173.07" y2="337.176" gradientUnits="userSpaceOnUse">
<stop stop-color="#E0F4FF"/>
<stop offset="0.987349" stop-color="#ACDAFC" stop-opacity="0.9"/>
</linearGradient>
<clipPath id="clip0_1_16">
<rect width="512" height="512" rx="130" fill="white"/>
</clipPath>
</defs>
</svg>
