<svg width="512" height="512" viewBox="0 0 512 512" fill="none" xmlns="http://www.w3.org/2000/svg">
<rect width="512" height="512" rx="130" fill="url(#paint0_linear_1_232)"/>
<g filter="url(#filter0_d_1_232)">
<path d="M415.418 199.461C407.942 182.046 392.777 163.243 380.902 157.299C389.37 173.175 395.248 190.224 398.326 207.841L398.358 208.121C378.904 161.189 345.929 142.236 318.982 101.02C317.619 98.9353 316.256 96.8466 314.929 94.6418C314.17 93.3826 313.561 92.248 313.033 91.2036C311.916 89.1087 311.055 86.8947 310.467 84.6065C310.468 84.5009 310.429 84.3987 310.357 84.3195C310.285 84.2402 310.185 84.1894 310.077 84.1767C309.971 84.1486 309.859 84.1486 309.753 84.1767C309.73 84.1767 309.695 84.2154 309.668 84.224C309.642 84.2326 309.584 84.2713 309.544 84.2885L309.61 84.1767C266.393 108.674 251.721 154.016 250.39 176.708C233.125 177.854 216.617 184.011 203.022 194.376C201.604 193.214 200.122 192.126 198.582 191.119C194.662 177.834 194.495 163.774 198.098 150.406C182.227 157.849 168.125 168.4 156.684 181.393H156.604C149.785 173.025 150.264 145.433 150.655 139.67C148.638 140.455 146.712 141.444 144.911 142.622C138.891 146.782 133.264 151.449 128.094 156.569C122.204 162.351 116.824 168.6 112.011 175.251V175.277V175.247C100.95 190.425 93.1042 207.574 88.9259 225.703L88.6951 226.803C88.371 228.269 87.2035 235.609 87.0037 237.204C87.0037 237.329 86.9771 237.445 86.9637 237.569C85.4577 245.148 84.5244 252.822 84.1714 260.532V261.392C84.2474 303.074 100.462 343.214 129.614 373.889C158.766 404.563 198.738 423.542 241.638 427.079C284.538 430.617 327.249 418.455 361.339 392.996C395.43 367.536 418.423 330.629 425.779 289.56C426.068 287.411 426.303 285.283 426.561 283.113C430.105 254.756 426.268 225.991 415.4 199.435L415.418 199.461ZM217.112 329.856C217.916 330.23 218.67 330.634 219.496 330.99L219.616 331.063C218.781 330.677 217.947 330.274 217.112 329.856ZM398.362 208.168V208.009L398.393 208.185L398.362 208.168Z" fill="url(#paint1_linear_1_232)"/>
</g>
<g filter="url(#filter1_d_1_232)">
<path d="M415.418 199.461C407.942 182.046 392.777 163.243 380.902 157.299C389.37 173.175 395.248 190.224 398.326 207.841V208L398.357 208.177C411.621 244.919 409.703 285.202 393.003 320.607C373.284 361.569 325.57 403.554 250.855 401.491C170.148 399.278 99.0295 341.279 85.7559 265.337C83.3364 253.359 85.7559 247.286 86.9723 237.552C85.3131 245.113 84.3871 252.808 84.2065 260.537V261.396C84.2826 303.078 100.497 343.219 129.649 373.893C158.802 404.567 198.773 423.546 241.673 427.083C284.573 430.621 327.284 418.459 361.375 393C395.465 367.541 418.458 330.633 425.815 289.564C426.103 287.415 426.338 285.288 426.596 283.117C430.14 254.76 426.303 225.995 415.435 199.439L415.418 199.461Z" fill="url(#paint2_radial_1_232)"/>
</g>
<g filter="url(#filter2_d_1_232)">
<path d="M415.418 199.461C407.942 182.046 392.777 163.243 380.902 157.299C389.37 173.175 395.248 190.224 398.326 207.841V208L398.357 208.177C411.621 244.919 409.703 285.202 393.003 320.607C373.284 361.569 325.57 403.554 250.855 401.491C170.148 399.278 99.0295 341.279 85.7559 265.337C83.3364 253.359 85.7559 247.286 86.9723 237.552C85.3131 245.113 84.3871 252.808 84.2065 260.537V261.396C84.2826 303.078 100.497 343.219 129.649 373.893C158.802 404.567 198.773 423.546 241.673 427.083C284.573 430.621 327.284 418.459 361.375 393C395.465 367.541 418.458 330.633 425.815 289.564C426.103 287.415 426.338 285.288 426.596 283.117C430.14 254.76 426.303 225.995 415.435 199.439L415.418 199.461Z" fill="url(#paint3_radial_1_232)" shape-rendering="crispEdges"/>
</g>
<g filter="url(#filter3_d_1_232)">
<path d="M331.78 219.016C332.153 219.269 332.499 219.523 332.85 219.776C328.528 212.357 323.148 205.564 316.868 199.598C263.374 147.81 302.853 87.3398 309.508 84.2454L309.574 84.1508C266.357 108.648 251.685 153.99 250.354 176.682C252.36 176.549 254.349 176.386 256.4 176.386C271.733 176.414 286.784 180.373 300.024 187.859C313.265 195.346 324.221 206.092 331.78 219.007V219.016Z" fill="url(#paint4_radial_1_232)"/>
</g>
<g filter="url(#filter4_d_1_232)">
<path d="M256.489 229.373C256.205 233.516 241.084 247.806 235.797 247.806C186.875 247.806 178.929 276.46 178.929 276.46C181.095 300.588 198.462 320.469 219.456 330.956C220.415 331.437 221.387 331.871 222.359 332.297C224.043 333.019 225.727 333.686 227.411 334.3C234.616 336.768 242.162 338.177 249.799 338.481C335.567 342.375 352.17 239.202 290.281 209.247C304.88 207.408 319.664 210.883 331.767 218.998C324.208 206.084 313.251 195.337 300.011 187.851C286.771 180.365 271.72 176.406 256.387 176.377C254.345 176.377 252.347 176.54 250.34 176.674C233.076 177.82 216.568 183.977 202.972 194.342C205.596 196.491 208.557 199.362 214.794 205.314C226.47 216.45 256.413 227.985 256.48 229.339L256.489 229.373Z" fill="url(#paint5_radial_1_232)"/>
</g>
<g filter="url(#filter5_d_1_232)">
<path d="M256.489 229.373C256.205 233.516 241.084 247.806 235.797 247.806C186.875 247.806 178.929 276.46 178.929 276.46C181.095 300.588 198.462 320.469 219.456 330.956C220.415 331.437 221.387 331.871 222.359 332.297C224.043 333.019 225.727 333.686 227.411 334.3C234.616 336.768 242.162 338.177 249.799 338.481C335.567 342.375 352.17 239.202 290.281 209.247C304.88 207.408 319.664 210.883 331.767 218.998C324.208 206.084 313.251 195.337 300.011 187.851C286.771 180.365 271.72 176.406 256.387 176.377C254.345 176.377 252.347 176.54 250.34 176.674C233.076 177.82 216.568 183.977 202.972 194.342C205.596 196.491 208.557 199.362 214.794 205.314C226.47 216.45 256.413 227.985 256.48 229.339L256.489 229.373Z" fill="url(#paint6_radial_1_232)" shape-rendering="crispEdges"/>
</g>
<g filter="url(#filter6_d_1_232)">
<path d="M194.959 188.845C196.353 189.705 197.503 190.452 198.511 191.127C194.591 177.842 194.424 163.783 198.027 150.414C182.156 157.857 168.053 168.409 156.612 181.401C157.451 181.38 182.409 180.946 194.959 188.845Z" fill="url(#paint7_radial_1_232)"/>
</g>
<g filter="url(#filter7_d_1_232)">
<path d="M85.7246 265.346C99.0027 341.288 170.117 399.308 250.824 401.5C325.538 403.546 373.261 361.556 392.972 320.615C409.672 285.211 411.59 244.927 398.326 208.185V208.026C398.326 207.901 398.299 207.828 398.326 207.867L398.357 208.146C404.461 246.728 384.191 284.088 352.499 309.402L352.401 309.617C290.65 358.311 231.562 338.988 219.62 331.106C218.785 330.72 217.951 330.317 217.116 329.899C181.117 313.24 166.241 281.506 169.437 254.257C160.892 254.38 152.494 252.1 145.26 247.695C138.026 243.289 132.266 236.948 128.68 229.438C138.13 223.833 148.906 220.665 159.98 220.234C171.053 219.804 182.056 222.126 191.941 226.979C212.314 235.932 235.497 236.815 256.533 229.438C256.467 228.084 226.523 216.544 214.848 205.413C208.61 199.461 205.649 196.594 203.026 194.441C201.608 193.278 200.126 192.191 198.586 191.183C197.565 190.508 196.415 189.778 195.035 188.901C182.485 181.002 157.527 181.436 156.701 181.457H156.621C149.802 173.089 150.282 145.498 150.672 139.734C148.655 140.519 146.729 141.509 144.928 142.687C138.908 146.846 133.281 151.513 128.112 156.633C122.2 162.399 116.797 168.634 111.961 175.273C100.901 190.451 93.0549 207.595 88.8766 225.724C88.7922 226.064 82.6792 251.937 85.6936 265.354L85.7246 265.346Z" fill="url(#paint8_radial_1_232)"/>
</g>
<g filter="url(#filter8_d_1_232)">
<path d="M316.864 199.59C323.145 205.562 328.526 212.362 332.846 219.789C333.791 220.481 334.675 221.169 335.425 221.835C374.434 256.647 353.995 305.857 352.472 309.338C384.16 284.063 404.412 246.676 398.331 208.082C378.868 161.107 345.857 142.154 318.955 100.938C317.592 98.8536 316.229 96.7649 314.902 94.5601C314.143 93.3008 313.535 92.1662 313.006 91.1219C311.889 89.0269 311.028 86.8129 310.44 84.5248C310.441 84.4192 310.402 84.317 310.33 84.2377C310.258 84.1585 310.158 84.1076 310.05 84.095C309.944 84.0668 309.832 84.0668 309.726 84.095C309.703 84.095 309.668 84.1337 309.641 84.1422C309.615 84.1508 309.557 84.1895 309.517 84.2067C302.862 87.2624 263.392 147.771 316.886 199.517L316.864 199.59Z" fill="url(#paint9_radial_1_232)"/>
</g>
<g filter="url(#filter9_d_1_232)">
<path d="M335.42 221.852C334.67 221.186 333.787 220.498 332.841 219.806C332.491 219.553 332.144 219.299 331.771 219.046C319.669 210.93 304.885 207.455 290.286 209.294C352.17 239.25 335.567 342.397 249.803 338.529C242.167 338.225 234.621 336.815 227.416 334.347C225.732 333.737 224.048 333.069 222.364 332.344C221.391 331.914 220.419 331.485 219.46 331.003L219.58 331.076C231.54 338.98 290.61 358.29 352.361 309.587L352.459 309.372C353.999 305.891 374.438 256.681 335.412 221.869L335.42 221.852Z" fill="url(#paint10_radial_1_232)"/>
</g>
<g filter="url(#filter10_d_1_232)">
<path d="M178.933 276.434C178.933 276.434 186.875 247.781 235.801 247.781C241.089 247.781 256.222 233.491 256.493 229.347C235.457 236.724 212.274 235.842 191.901 226.889C182.017 222.036 171.013 219.714 159.94 220.144C148.866 220.575 138.09 223.743 128.64 229.347C132.226 236.857 137.986 243.199 145.22 247.604C152.454 252.01 160.852 254.289 169.398 254.167C166.21 281.402 181.082 313.133 217.076 329.808C217.88 330.182 218.634 330.586 219.46 330.943C198.449 320.435 181.1 300.562 178.933 276.447V276.434Z" fill="url(#paint11_radial_1_232)"/>
</g>
<g filter="url(#filter11_d_1_232)">
<path d="M415.418 199.461C407.942 182.046 392.777 163.243 380.902 157.299C389.37 173.175 395.248 190.224 398.327 207.841L398.358 208.121C378.904 161.189 345.929 142.236 318.982 101.02C317.619 98.9353 316.256 96.8466 314.929 94.6418C314.17 93.3826 313.562 92.248 313.033 91.2036C311.916 89.1087 311.055 86.8947 310.467 84.6065C310.468 84.5009 310.429 84.3987 310.357 84.3195C310.285 84.2402 310.185 84.1894 310.077 84.1767C309.971 84.1486 309.859 84.1486 309.753 84.1767C309.731 84.1767 309.695 84.2154 309.668 84.224C309.642 84.2326 309.584 84.2713 309.544 84.2885L309.611 84.1767C266.394 108.674 251.722 154.016 250.39 176.708C252.396 176.575 254.385 176.412 256.436 176.412C271.769 176.44 286.82 180.399 300.061 187.885C313.301 195.371 324.257 206.118 331.816 219.033C319.714 210.917 304.93 207.442 290.331 209.281C352.215 239.237 335.612 342.384 249.848 338.516C242.212 338.212 234.665 336.802 227.46 334.334C225.776 333.724 224.092 333.056 222.408 332.331C221.436 331.901 220.464 331.472 219.505 330.99L219.625 331.063C218.79 330.677 217.956 330.274 217.121 329.856C217.925 330.23 218.679 330.634 219.505 330.99C198.494 320.478 181.145 300.605 178.978 276.494C178.978 276.494 186.92 247.841 235.846 247.841C241.134 247.841 256.267 233.551 256.538 229.408C256.472 228.054 226.528 216.514 214.853 205.383C208.615 199.431 205.654 196.564 203.031 194.411C201.613 193.248 200.131 192.161 198.591 191.153C194.671 177.868 194.504 163.809 198.107 150.44C182.236 157.883 168.134 168.435 156.693 181.427H156.613C149.794 173.059 150.273 145.468 150.664 139.704C148.647 140.489 146.721 141.479 144.92 142.657C138.9 146.816 133.273 151.483 128.103 156.603C122.213 162.385 116.833 168.634 112.02 175.286C100.959 190.464 93.1133 207.608 88.935 225.737L88.7041 226.838C88.38 228.303 86.9284 235.747 86.7197 237.346C85.3919 245.03 84.5439 252.784 84.1804 260.567V261.426C84.2565 303.109 100.471 343.249 129.623 373.923C158.775 404.597 198.747 423.576 241.647 427.114C284.547 430.651 327.258 418.49 361.348 393.03C395.439 367.571 418.432 330.663 425.788 289.594C426.077 287.445 426.312 285.318 426.57 283.147C430.114 254.79 426.277 226.025 415.409 199.469L415.418 199.461Z" fill="url(#paint12_linear_1_232)" shape-rendering="crispEdges"/>
</g>
<defs>
<filter id="filter0_d_1_232" x="49.2714" y="53.2556" width="443.47" height="443.325" filterUnits="userSpaceOnUse" color-interpolation-filters="sRGB">
<feFlood flood-opacity="0" result="BackgroundImageFix"/>
<feColorMatrix in="SourceAlpha" type="matrix" values="0 0 0 0 0 0 0 0 0 0 0 0 0 0 0 0 0 0 127 0" result="hardAlpha"/>
<feOffset dx="15" dy="19"/>
<feGaussianBlur stdDeviation="24.95"/>
<feComposite in2="hardAlpha" operator="out"/>
<feColorMatrix type="matrix" values="0 0 0 0 0 0 0 0 0 0 0 0 0 0 0 0 0 0 0.07 0"/>
<feBlend mode="normal" in2="BackgroundImageFix" result="effect1_dropShadow_1_232"/>
<feBlend mode="normal" in="SourceGraphic" in2="effect1_dropShadow_1_232" result="shape"/>
</filter>
<filter id="filter1_d_1_232" x="49.3065" y="126.399" width="443.47" height="370.185" filterUnits="userSpaceOnUse" color-interpolation-filters="sRGB">
<feFlood flood-opacity="0" result="BackgroundImageFix"/>
<feColorMatrix in="SourceAlpha" type="matrix" values="0 0 0 0 0 0 0 0 0 0 0 0 0 0 0 0 0 0 127 0" result="hardAlpha"/>
<feOffset dx="15" dy="19"/>
<feGaussianBlur stdDeviation="24.95"/>
<feComposite in2="hardAlpha" operator="out"/>
<feColorMatrix type="matrix" values="0 0 0 0 0 0 0 0 0 0 0 0 0 0 0 0 0 0 0.07 0"/>
<feBlend mode="normal" in2="BackgroundImageFix" result="effect1_dropShadow_1_232"/>
<feBlend mode="normal" in="SourceGraphic" in2="effect1_dropShadow_1_232" result="shape"/>
</filter>
<filter id="filter2_d_1_232" x="49.3065" y="126.399" width="443.47" height="370.185" filterUnits="userSpaceOnUse" color-interpolation-filters="sRGB">
<feFlood flood-opacity="0" result="BackgroundImageFix"/>
<feColorMatrix in="SourceAlpha" type="matrix" values="0 0 0 0 0 0 0 0 0 0 0 0 0 0 0 0 0 0 127 0" result="hardAlpha"/>
<feOffset dx="15" dy="19"/>
<feGaussianBlur stdDeviation="24.95"/>
<feComposite in2="hardAlpha" operator="out"/>
<feColorMatrix type="matrix" values="0 0 0 0 0 0 0 0 0 0 0 0 0 0 0 0 0 0 0.07 0"/>
<feBlend mode="normal" in2="BackgroundImageFix" result="effect1_dropShadow_1_232"/>
<feBlend mode="normal" in="SourceGraphic" in2="effect1_dropShadow_1_232" result="shape"/>
</filter>
<filter id="filter3_d_1_232" x="215.454" y="53.2508" width="182.296" height="235.425" filterUnits="userSpaceOnUse" color-interpolation-filters="sRGB">
<feFlood flood-opacity="0" result="BackgroundImageFix"/>
<feColorMatrix in="SourceAlpha" type="matrix" values="0 0 0 0 0 0 0 0 0 0 0 0 0 0 0 0 0 0 127 0" result="hardAlpha"/>
<feOffset dx="15" dy="19"/>
<feGaussianBlur stdDeviation="24.95"/>
<feComposite in2="hardAlpha" operator="out"/>
<feColorMatrix type="matrix" values="0 0 0 0 0 0 0 0 0 0 0 0 0 0 0 0 0 0 0.07 0"/>
<feBlend mode="normal" in2="BackgroundImageFix" result="effect1_dropShadow_1_232"/>
<feBlend mode="normal" in="SourceGraphic" in2="effect1_dropShadow_1_232" result="shape"/>
</filter>
<filter id="filter4_d_1_232" x="144.029" y="145.477" width="252.638" height="262.011" filterUnits="userSpaceOnUse" color-interpolation-filters="sRGB">
<feFlood flood-opacity="0" result="BackgroundImageFix"/>
<feColorMatrix in="SourceAlpha" type="matrix" values="0 0 0 0 0 0 0 0 0 0 0 0 0 0 0 0 0 0 127 0" result="hardAlpha"/>
<feOffset dx="15" dy="19"/>
<feGaussianBlur stdDeviation="24.95"/>
<feComposite in2="hardAlpha" operator="out"/>
<feColorMatrix type="matrix" values="0 0 0 0 0 0 0 0 0 0 0 0 0 0 0 0 0 0 0.07 0"/>
<feBlend mode="normal" in2="BackgroundImageFix" result="effect1_dropShadow_1_232"/>
<feBlend mode="normal" in="SourceGraphic" in2="effect1_dropShadow_1_232" result="shape"/>
</filter>
<filter id="filter5_d_1_232" x="144.029" y="145.477" width="252.638" height="262.011" filterUnits="userSpaceOnUse" color-interpolation-filters="sRGB">
<feFlood flood-opacity="0" result="BackgroundImageFix"/>
<feColorMatrix in="SourceAlpha" type="matrix" values="0 0 0 0 0 0 0 0 0 0 0 0 0 0 0 0 0 0 127 0" result="hardAlpha"/>
<feOffset dx="15" dy="19"/>
<feGaussianBlur stdDeviation="24.95"/>
<feComposite in2="hardAlpha" operator="out"/>
<feColorMatrix type="matrix" values="0 0 0 0 0 0 0 0 0 0 0 0 0 0 0 0 0 0 0.07 0"/>
<feBlend mode="normal" in2="BackgroundImageFix" result="effect1_dropShadow_1_232"/>
<feBlend mode="normal" in="SourceGraphic" in2="effect1_dropShadow_1_232" result="shape"/>
</filter>
<filter id="filter6_d_1_232" x="121.712" y="119.514" width="141.699" height="140.513" filterUnits="userSpaceOnUse" color-interpolation-filters="sRGB">
<feFlood flood-opacity="0" result="BackgroundImageFix"/>
<feColorMatrix in="SourceAlpha" type="matrix" values="0 0 0 0 0 0 0 0 0 0 0 0 0 0 0 0 0 0 127 0" result="hardAlpha"/>
<feOffset dx="15" dy="19"/>
<feGaussianBlur stdDeviation="24.95"/>
<feComposite in2="hardAlpha" operator="out"/>
<feColorMatrix type="matrix" values="0 0 0 0 0 0 0 0 0 0 0 0 0 0 0 0 0 0 0.07 0"/>
<feBlend mode="normal" in2="BackgroundImageFix" result="effect1_dropShadow_1_232"/>
<feBlend mode="normal" in="SourceGraphic" in2="effect1_dropShadow_1_232" result="shape"/>
</filter>
<filter id="filter7_d_1_232" x="49.9589" y="108.834" width="421.992" height="361.638" filterUnits="userSpaceOnUse" color-interpolation-filters="sRGB">
<feFlood flood-opacity="0" result="BackgroundImageFix"/>
<feColorMatrix in="SourceAlpha" type="matrix" values="0 0 0 0 0 0 0 0 0 0 0 0 0 0 0 0 0 0 127 0" result="hardAlpha"/>
<feOffset dx="15" dy="19"/>
<feGaussianBlur stdDeviation="24.95"/>
<feComposite in2="hardAlpha" operator="out"/>
<feColorMatrix type="matrix" values="0 0 0 0 0 0 0 0 0 0 0 0 0 0 0 0 0 0 0.07 0"/>
<feBlend mode="normal" in2="BackgroundImageFix" result="effect1_dropShadow_1_232"/>
<feBlend mode="normal" in="SourceGraphic" in2="effect1_dropShadow_1_232" result="shape"/>
</filter>
<filter id="filter8_d_1_232" x="254.356" y="53.1739" width="209.952" height="325.064" filterUnits="userSpaceOnUse" color-interpolation-filters="sRGB">
<feFlood flood-opacity="0" result="BackgroundImageFix"/>
<feColorMatrix in="SourceAlpha" type="matrix" values="0 0 0 0 0 0 0 0 0 0 0 0 0 0 0 0 0 0 127 0" result="hardAlpha"/>
<feOffset dx="15" dy="19"/>
<feGaussianBlur stdDeviation="24.95"/>
<feComposite in2="hardAlpha" operator="out"/>
<feColorMatrix type="matrix" values="0 0 0 0 0 0 0 0 0 0 0 0 0 0 0 0 0 0 0.07 0"/>
<feBlend mode="normal" in2="BackgroundImageFix" result="effect1_dropShadow_1_232"/>
<feBlend mode="normal" in="SourceGraphic" in2="effect1_dropShadow_1_232" result="shape"/>
</filter>
<filter id="filter9_d_1_232" x="184.56" y="177.913" width="239.513" height="232.554" filterUnits="userSpaceOnUse" color-interpolation-filters="sRGB">
<feFlood flood-opacity="0" result="BackgroundImageFix"/>
<feColorMatrix in="SourceAlpha" type="matrix" values="0 0 0 0 0 0 0 0 0 0 0 0 0 0 0 0 0 0 127 0" result="hardAlpha"/>
<feOffset dx="15" dy="19"/>
<feGaussianBlur stdDeviation="24.95"/>
<feComposite in2="hardAlpha" operator="out"/>
<feColorMatrix type="matrix" values="0 0 0 0 0 0 0 0 0 0 0 0 0 0 0 0 0 0 0.07 0"/>
<feBlend mode="normal" in2="BackgroundImageFix" result="effect1_dropShadow_1_232"/>
<feBlend mode="normal" in="SourceGraphic" in2="effect1_dropShadow_1_232" result="shape"/>
</filter>
<filter id="filter10_d_1_232" x="93.7399" y="189.194" width="227.653" height="210.649" filterUnits="userSpaceOnUse" color-interpolation-filters="sRGB">
<feFlood flood-opacity="0" result="BackgroundImageFix"/>
<feColorMatrix in="SourceAlpha" type="matrix" values="0 0 0 0 0 0 0 0 0 0 0 0 0 0 0 0 0 0 127 0" result="hardAlpha"/>
<feOffset dx="15" dy="19"/>
<feGaussianBlur stdDeviation="24.95"/>
<feComposite in2="hardAlpha" operator="out"/>
<feColorMatrix type="matrix" values="0 0 0 0 0 0 0 0 0 0 0 0 0 0 0 0 0 0 0.07 0"/>
<feBlend mode="normal" in2="BackgroundImageFix" result="effect1_dropShadow_1_232"/>
<feBlend mode="normal" in="SourceGraphic" in2="effect1_dropShadow_1_232" result="shape"/>
</filter>
<filter id="filter11_d_1_232" x="49.2804" y="53.2556" width="443.471" height="443.359" filterUnits="userSpaceOnUse" color-interpolation-filters="sRGB">
<feFlood flood-opacity="0" result="BackgroundImageFix"/>
<feColorMatrix in="SourceAlpha" type="matrix" values="0 0 0 0 0 0 0 0 0 0 0 0 0 0 0 0 0 0 127 0" result="hardAlpha"/>
<feOffset dx="15" dy="19"/>
<feGaussianBlur stdDeviation="24.95"/>
<feComposite in2="hardAlpha" operator="out"/>
<feColorMatrix type="matrix" values="0 0 0 0 0 0 0 0 0 0 0 0 0 0 0 0 0 0 0.07 0"/>
<feBlend mode="normal" in2="BackgroundImageFix" result="effect1_dropShadow_1_232"/>
<feBlend mode="normal" in="SourceGraphic" in2="effect1_dropShadow_1_232" result="shape"/>
</filter>
<linearGradient id="paint0_linear_1_232" x1="256" y1="-4.63426e-06" x2="411.5" y2="495" gradientUnits="userSpaceOnUse">
<stop stop-color="#230033"/>
<stop offset="1" stop-color="#260137"/>
</linearGradient>
<linearGradient id="paint1_linear_1_232" x1="392.644" y1="137.383" x2="115.936" y2="413.153" gradientUnits="userSpaceOnUse">
<stop offset="0.048" stop-color="#FFF44F"/>
<stop offset="0.111" stop-color="#FFE847"/>
<stop offset="0.225" stop-color="#FFC830"/>
<stop offset="0.368" stop-color="#FF980E"/>
<stop offset="0.401" stop-color="#FF8B16"/>
<stop offset="0.462" stop-color="#FF672A"/>
<stop offset="0.534" stop-color="#FF3647"/>
<stop offset="0.705" stop-color="#E31587"/>
</linearGradient>
<radialGradient id="paint2_radial_1_232" cx="0" cy="0" r="1" gradientUnits="userSpaceOnUse" gradientTransform="translate(381.59 122.831) scale(358.7 347.262)">
<stop offset="0.129" stop-color="#FFBD4F"/>
<stop offset="0.186" stop-color="#FFAC31"/>
<stop offset="0.247" stop-color="#FF9D17"/>
<stop offset="0.283" stop-color="#FF980E"/>
<stop offset="0.403" stop-color="#FF563B"/>
<stop offset="0.467" stop-color="#FF3750"/>
<stop offset="0.71" stop-color="#F5156C"/>
<stop offset="0.782" stop-color="#EB0878"/>
<stop offset="0.86" stop-color="#E50080"/>
</radialGradient>
<radialGradient id="paint3_radial_1_232" cx="0" cy="0" r="1" gradientUnits="userSpaceOnUse" gradientTransform="translate(248.409 264.658) scale(358.7 347.262)">
<stop offset="0.3" stop-color="#960E18"/>
<stop offset="0.351" stop-color="#B11927" stop-opacity="0.74"/>
<stop offset="0.435" stop-color="#DB293D" stop-opacity="0.343"/>
<stop offset="0.497" stop-color="#F5334B" stop-opacity="0.094"/>
<stop offset="0.53" stop-color="#FF3750" stop-opacity="0"/>
</radialGradient>
<radialGradient id="paint4_radial_1_232" cx="0" cy="0" r="1" gradientUnits="userSpaceOnUse" gradientTransform="translate(292.803 45.4707) scale(259.835 251.55)">
<stop offset="0.132" stop-color="#FFF44F"/>
<stop offset="0.252" stop-color="#FFDC3E"/>
<stop offset="0.506" stop-color="#FF9D12"/>
<stop offset="0.526" stop-color="#FF980E"/>
</radialGradient>
<radialGradient id="paint5_radial_1_232" cx="0" cy="0" r="1" gradientUnits="userSpaceOnUse" gradientTransform="translate(208.455 354.912) scale(170.782 165.336)">
<stop offset="0.353" stop-color="#3A8EE6"/>
<stop offset="0.472" stop-color="#5C79F0"/>
<stop offset="0.669" stop-color="#9059FF"/>
<stop offset="1" stop-color="#C139E6"/>
</radialGradient>
<radialGradient id="paint6_radial_1_232" cx="0" cy="0" r="1" gradientUnits="userSpaceOnUse" gradientTransform="translate(265.758 234.849) rotate(-13.1735) scale(90.4061 102.824)">
<stop offset="0.206" stop-color="#9059FF" stop-opacity="0"/>
<stop offset="0.278" stop-color="#8C4FF3" stop-opacity="0.064"/>
<stop offset="0.747" stop-color="#7716A8" stop-opacity="0.45"/>
<stop offset="0.975" stop-color="#6E008B" stop-opacity="0.6"/>
</radialGradient>
<radialGradient id="paint7_radial_1_232" cx="0" cy="0" r="1" gradientUnits="userSpaceOnUse" gradientTransform="translate(243.97 109.938) scale(122.881 118.963)">
<stop stop-color="#FFE226"/>
<stop offset="0.121" stop-color="#FFDB27"/>
<stop offset="0.295" stop-color="#FFC82A"/>
<stop offset="0.502" stop-color="#FFA930"/>
<stop offset="0.732" stop-color="#FF7E37"/>
<stop offset="0.792" stop-color="#FF7139"/>
</radialGradient>
<radialGradient id="paint8_radial_1_232" cx="0" cy="0" r="1" gradientUnits="userSpaceOnUse" gradientTransform="translate(341.635 32.5773) scale(524.287 507.569)">
<stop offset="0.113" stop-color="#FFF44F"/>
<stop offset="0.456" stop-color="#FF980E"/>
<stop offset="0.622" stop-color="#FF5634"/>
<stop offset="0.716" stop-color="#FF3647"/>
<stop offset="0.904" stop-color="#E31587"/>
</radialGradient>
<radialGradient id="paint9_radial_1_232" cx="0" cy="0" r="1" gradientUnits="userSpaceOnUse" gradientTransform="translate(298.059 60.7193) rotate(83.7791) scale(372.091 252.058)">
<stop stop-color="#FFF44F"/>
<stop offset="0.06" stop-color="#FFE847"/>
<stop offset="0.168" stop-color="#FFC830"/>
<stop offset="0.304" stop-color="#FF980E"/>
<stop offset="0.356" stop-color="#FF8B16"/>
<stop offset="0.455" stop-color="#FF672A"/>
<stop offset="0.57" stop-color="#FF3647"/>
<stop offset="0.737" stop-color="#E31587"/>
</radialGradient>
<radialGradient id="paint10_radial_1_232" cx="0" cy="0" r="1" gradientUnits="userSpaceOnUse" gradientTransform="translate(243.97 152.916) scale(327.269 316.833)">
<stop offset="0.137" stop-color="#FFF44F"/>
<stop offset="0.48" stop-color="#FF980E"/>
<stop offset="0.592" stop-color="#FF5634"/>
<stop offset="0.655" stop-color="#FF3647"/>
<stop offset="0.904" stop-color="#E31587"/>
</radialGradient>
<radialGradient id="paint11_radial_1_232" cx="0" cy="0" r="1" gradientUnits="userSpaceOnUse" gradientTransform="translate(328.317 170.107) scale(358.211 346.789)">
<stop offset="0.094" stop-color="#FFF44F"/>
<stop offset="0.231" stop-color="#FFE141"/>
<stop offset="0.509" stop-color="#FFAF1E"/>
<stop offset="0.626" stop-color="#FF980E"/>
</radialGradient>
<linearGradient id="paint12_linear_1_232" x1="389.182" y1="135.965" x2="154.045" y2="378.89" gradientUnits="userSpaceOnUse">
<stop offset="0.167" stop-color="#FFF44F" stop-opacity="0.8"/>
<stop offset="0.266" stop-color="#FFF44F" stop-opacity="0.634"/>
<stop offset="0.489" stop-color="#FFF44F" stop-opacity="0.217"/>
<stop offset="0.6" stop-color="#FFF44F" stop-opacity="0"/>
</linearGradient>
</defs>
</svg>
