<svg width="512" height="512" viewBox="0 0 512 512" fill="none" xmlns="http://www.w3.org/2000/svg">
<rect width="512" height="512" rx="130" fill="url(#paint0_linear_1_135)"/>
<path d="M156.24 144H184.08L265.68 368H241.84L224.4 320H116.08L98.64 368H74.8L156.24 144ZM124.24 297.6H216.08L170.16 171.52L124.24 297.6ZM413.345 208H435.745V368H413.345L412.545 338.24C407.318 348.373 400.012 356.587 390.625 362.88C381.238 369.067 370.038 372.16 357.025 372.16C345.292 372.16 334.305 369.973 324.065 365.6C313.825 361.12 304.812 354.987 297.025 347.2C289.238 339.413 283.158 330.4 278.785 320.16C274.412 309.92 272.225 298.933 272.225 287.2C272.225 275.68 274.358 264.853 278.625 254.72C282.998 244.587 288.972 235.68 296.545 228C304.225 220.32 313.078 214.347 323.105 210.08C333.238 205.707 344.065 203.52 355.585 203.52C368.918 203.52 380.545 206.72 390.465 213.12C400.385 219.413 408.278 227.68 414.145 237.92L413.345 208ZM356.545 350.4C367.958 350.4 377.772 347.627 385.985 342.08C394.198 336.427 400.492 328.853 404.865 319.36C409.345 309.867 411.585 299.413 411.585 288C411.585 276.267 409.345 265.707 404.865 256.32C400.385 246.827 394.038 239.307 385.825 233.76C377.612 228.213 367.852 225.44 356.545 225.44C345.238 225.44 334.892 228.267 325.505 233.92C316.225 239.467 308.812 246.987 303.265 256.48C297.825 265.973 295.105 276.48 295.105 288C295.105 299.627 297.932 310.187 303.585 319.68C309.238 329.067 316.705 336.533 325.985 342.08C335.372 347.627 345.558 350.4 356.545 350.4Z" fill="black"/>
<defs>
<linearGradient id="paint0_linear_1_135" x1="256" y1="-6.75023e-06" x2="482.5" y2="543.5" gradientUnits="userSpaceOnUse">
<stop stop-color="#B6B6B6"/>
<stop offset="1" stop-color="#888888"/>
</linearGradient>
</defs>
</svg>
