<svg width="96" height="13" viewBox="0 0 96 13" fill="none" xmlns="http://www.w3.org/2000/svg">
<path d="M3.74115 9.63636C3.15024 9.63636 2.63178 9.49574 2.18575 9.21449C1.74257 8.93324 1.39598 8.53977 1.14598 8.03409C0.898822 7.52841 0.775242 6.9375 0.775242 6.26136C0.775242 5.57955 0.898822 4.98437 1.14598 4.47585C1.39598 3.96733 1.74257 3.57244 2.18575 3.29119C2.63178 3.00994 3.15024 2.86932 3.74115 2.86932C4.33206 2.86932 4.84911 3.00994 5.29229 3.29119C5.73831 3.57244 6.0849 3.96733 6.33206 4.47585C6.58206 4.98437 6.70706 5.57955 6.70706 6.26136C6.70706 6.9375 6.58206 7.52841 6.33206 8.03409C6.0849 8.53977 5.73831 8.93324 5.29229 9.21449C4.84911 9.49574 4.33206 9.63636 3.74115 9.63636ZM3.74115 8.73295C4.19001 8.73295 4.55933 8.6179 4.84911 8.38778C5.13888 8.15767 5.35337 7.85511 5.49257 7.48011C5.63178 7.10511 5.70138 6.69886 5.70138 6.26136C5.70138 5.82386 5.63178 5.41619 5.49257 5.03835C5.35337 4.66051 5.13888 4.35511 4.84911 4.12216C4.55933 3.8892 4.19001 3.77273 3.74115 3.77273C3.29229 3.77273 2.92297 3.8892 2.6332 4.12216C2.34342 4.35511 2.12894 4.66051 1.98973 5.03835C1.85053 5.41619 1.78092 5.82386 1.78092 6.26136C1.78092 6.69886 1.85053 7.10511 1.98973 7.48011C2.12894 7.85511 2.34342 8.15767 2.6332 8.38778C2.92297 8.6179 3.29229 8.73295 3.74115 8.73295ZM8.00222 9.5V2.95455H8.97381V3.94318H9.04199C9.16131 3.61932 9.37722 3.35653 9.68972 3.15483C10.0022 2.95312 10.3545 2.85227 10.7465 2.85227C10.8204 2.85227 10.9127 2.85369 11.0235 2.85653C11.1343 2.85937 11.2181 2.86364 11.2749 2.86932V3.89205C11.2409 3.88352 11.1627 3.87074 11.0406 3.85369C10.9213 3.83381 10.7948 3.82386 10.6613 3.82386C10.3431 3.82386 10.059 3.89062 9.80904 4.02415C9.56188 4.15483 9.36585 4.33665 9.22097 4.5696C9.07892 4.79972 9.0079 5.0625 9.0079 5.35795V9.5H8.00222ZM14.6699 12.0909C14.1841 12.0909 13.7665 12.0284 13.417 11.9034C13.0676 11.7812 12.7764 11.6193 12.5435 11.4176C12.3134 11.2188 12.1301 11.0057 11.9938 10.7784L12.7949 10.2159C12.8858 10.3352 13.0009 10.4716 13.1401 10.625C13.2793 10.7812 13.4696 10.9162 13.7111 11.0298C13.9554 11.1463 14.275 11.2045 14.6699 11.2045C15.1983 11.2045 15.6344 11.0767 15.9781 10.821C16.3219 10.5653 16.4938 10.1648 16.4938 9.61932V8.28977H16.4085C16.3347 8.40909 16.2295 8.55682 16.0932 8.73295C15.9597 8.90625 15.7665 9.06108 15.5136 9.19744C15.2636 9.33097 14.9256 9.39773 14.4994 9.39773C13.971 9.39773 13.4966 9.27273 13.0761 9.02273C12.6585 8.77273 12.3276 8.40909 12.0832 7.93182C11.8418 7.45455 11.721 6.875 11.721 6.19318C11.721 5.52273 11.8389 4.93892 12.0747 4.44176C12.3105 3.94176 12.6386 3.5554 13.0591 3.28267C13.4795 3.0071 13.9653 2.86932 14.5165 2.86932C14.9426 2.86932 15.2807 2.94034 15.5307 3.08239C15.7835 3.22159 15.9767 3.38068 16.1102 3.55966C16.2466 3.7358 16.3517 3.88068 16.4256 3.99432H16.5278V2.95455H17.4994V9.6875C17.4994 10.25 17.3716 10.7074 17.1159 11.0597C16.8631 11.4148 16.5222 11.6747 16.0932 11.8395C15.667 12.0071 15.1926 12.0909 14.6699 12.0909ZM14.6358 8.49432C15.0392 8.49432 15.3801 8.40199 15.6585 8.21733C15.9369 8.03267 16.1486 7.76705 16.2935 7.42045C16.4384 7.07386 16.5108 6.65909 16.5108 6.17614C16.5108 5.70455 16.4398 5.28835 16.2977 4.92756C16.1557 4.56676 15.9455 4.28409 15.667 4.07955C15.3886 3.875 15.0449 3.77273 14.6358 3.77273C14.2097 3.77273 13.8545 3.88068 13.5705 4.09659C13.2892 4.3125 13.0776 4.60227 12.9355 4.96591C12.7963 5.32955 12.7267 5.73295 12.7267 6.17614C12.7267 6.63068 12.7977 7.03267 12.9398 7.3821C13.0847 7.72869 13.2977 8.00142 13.579 8.20028C13.8631 8.39631 14.2153 8.49432 14.6358 8.49432ZM19.8333 9.56818C19.6231 9.56818 19.4427 9.4929 19.2921 9.34233C19.1415 9.19176 19.0663 9.01136 19.0663 8.80114C19.0663 8.59091 19.1415 8.41051 19.2921 8.25994C19.4427 8.10937 19.6231 8.03409 19.8333 8.03409C20.0435 8.03409 20.2239 8.10937 20.3745 8.25994C20.5251 8.41051 20.6003 8.59091 20.6003 8.80114C20.6003 8.94034 20.5648 9.06818 20.4938 9.18466C20.4256 9.30114 20.3333 9.39489 20.2168 9.46591C20.1032 9.53409 19.9753 9.56818 19.8333 9.56818ZM22.165 9.5V2.95455H23.1366V3.97727H23.2218C23.3582 3.62784 23.5784 3.35653 23.8824 3.16335C24.1863 2.96733 24.5514 2.86932 24.9775 2.86932C25.4093 2.86932 25.7687 2.96733 26.0557 3.16335C26.3454 3.35653 26.5713 3.62784 26.7332 3.97727H26.8014C26.969 3.6392 27.2204 3.37074 27.5557 3.17188C27.8909 2.97017 28.2929 2.86932 28.7616 2.86932C29.3468 2.86932 29.8255 3.05256 30.1977 3.41903C30.5699 3.78267 30.7559 4.34943 30.7559 5.11932V9.5H29.7503V5.11932C29.7503 4.63636 29.6182 4.29119 29.354 4.08381C29.0897 3.87642 28.7787 3.77273 28.4207 3.77273C27.9605 3.77273 27.604 3.91193 27.3511 4.19034C27.0983 4.46591 26.9718 4.81534 26.9718 5.23864V9.5H25.9491V5.01705C25.9491 4.64489 25.8284 4.34517 25.5869 4.1179C25.3454 3.88778 25.0343 3.77273 24.6537 3.77273C24.3923 3.77273 24.148 3.84233 23.9207 3.98153C23.6963 4.12074 23.5145 4.31392 23.3753 4.56108C23.2389 4.8054 23.1707 5.08807 23.1707 5.40909V9.5H22.165ZM35.0138 9.63636C34.4229 9.63636 33.9044 9.49574 33.4584 9.21449C33.0152 8.93324 32.6686 8.53977 32.4186 8.03409C32.1715 7.52841 32.0479 6.9375 32.0479 6.26136C32.0479 5.57955 32.1715 4.98437 32.4186 4.47585C32.6686 3.96733 33.0152 3.57244 33.4584 3.29119C33.9044 3.00994 34.4229 2.86932 35.0138 2.86932C35.6047 2.86932 36.1218 3.00994 36.5649 3.29119C37.011 3.57244 37.3576 3.96733 37.6047 4.47585C37.8547 4.98437 37.9797 5.57955 37.9797 6.26136C37.9797 6.9375 37.8547 7.52841 37.6047 8.03409C37.3576 8.53977 37.011 8.93324 36.5649 9.21449C36.1218 9.49574 35.6047 9.63636 35.0138 9.63636ZM35.0138 8.73295C35.4627 8.73295 35.832 8.6179 36.1218 8.38778C36.4115 8.15767 36.626 7.85511 36.7652 7.48011C36.9044 7.10511 36.974 6.69886 36.974 6.26136C36.974 5.82386 36.9044 5.41619 36.7652 5.03835C36.626 4.66051 36.4115 4.35511 36.1218 4.12216C35.832 3.8892 35.4627 3.77273 35.0138 3.77273C34.5649 3.77273 34.1956 3.8892 33.9059 4.12216C33.6161 4.35511 33.4016 4.66051 33.2624 5.03835C33.1232 5.41619 33.0536 5.82386 33.0536 6.26136C33.0536 6.69886 33.1232 7.10511 33.2624 7.48011C33.4016 7.85511 33.6161 8.15767 33.9059 8.38778C34.1956 8.6179 34.5649 8.73295 35.0138 8.73295ZM39.0874 9.5V8.73295L42.8033 3.96023V3.89205H39.2067V2.95455H44.0987V3.75568L40.4851 8.49432V8.5625H44.2181V9.5H39.0874ZM45.5271 9.5V2.95455H46.5327V9.5H45.5271ZM46.0384 1.86364C45.8424 1.86364 45.6734 1.79688 45.5313 1.66335C45.3921 1.52983 45.3225 1.36932 45.3225 1.18182C45.3225 0.994318 45.3921 0.833807 45.5313 0.700284C45.6734 0.566761 45.8424 0.5 46.0384 0.5C46.2344 0.5 46.4021 0.566761 46.5413 0.700284C46.6833 0.833807 46.7543 0.994318 46.7543 1.18182C46.7543 1.36932 46.6833 1.52983 46.5413 1.66335C46.4021 1.79688 46.2344 1.86364 46.0384 1.86364ZM49.1404 0.772727V9.5H48.1347V0.772727H49.1404ZM51.7481 0.772727V9.5H50.7424V0.772727H51.7481ZM55.2762 9.65341C54.8614 9.65341 54.485 9.57528 54.1469 9.41903C53.8088 9.25994 53.5404 9.03125 53.3415 8.73295C53.1426 8.43182 53.0432 8.06818 53.0432 7.64205C53.0432 7.26705 53.1171 6.96307 53.2648 6.73011C53.4125 6.49432 53.61 6.30966 53.8571 6.17614C54.1043 6.04261 54.377 5.94318 54.6753 5.87784C54.9764 5.80966 55.279 5.75568 55.583 5.71591C55.9807 5.66477 56.3032 5.62642 56.5503 5.60085C56.8003 5.57244 56.9821 5.52557 57.0958 5.46023C57.2122 5.39489 57.2705 5.28125 57.2705 5.11932V5.08523C57.2705 4.66477 57.1554 4.33807 56.9253 4.10511C56.698 3.87216 56.3529 3.75568 55.8898 3.75568C55.4097 3.75568 55.0333 3.8608 54.7605 4.07102C54.4878 4.28125 54.2961 4.50568 54.1853 4.74432L53.2307 4.40341C53.4012 4.00568 53.6284 3.69602 53.9125 3.47443C54.1995 3.25 54.512 3.09375 54.85 3.00568C55.1909 2.91477 55.5262 2.86932 55.8557 2.86932C56.0659 2.86932 56.3074 2.89489 56.5801 2.94602C56.8557 2.99432 57.1213 3.09517 57.377 3.24858C57.6355 3.40199 57.85 3.63352 58.0205 3.94318C58.1909 4.25284 58.2762 4.66761 58.2762 5.1875V9.5H57.2705V8.61364H57.2193C57.1512 8.75568 57.0375 8.90767 56.8784 9.0696C56.7193 9.23153 56.5077 9.36932 56.2435 9.48295C55.9793 9.59659 55.6568 9.65341 55.2762 9.65341ZM55.4296 8.75C55.8273 8.75 56.1625 8.67188 56.4353 8.51562C56.7108 8.35938 56.9182 8.15767 57.0574 7.91051C57.1995 7.66335 57.2705 7.40341 57.2705 7.13068V6.21023C57.2279 6.26136 57.1341 6.30824 56.9892 6.35085C56.8472 6.39062 56.6824 6.42614 56.4949 6.45739C56.3103 6.4858 56.1299 6.51136 55.9537 6.53409C55.7804 6.55398 55.6398 6.57102 55.5318 6.58523C55.2705 6.61932 55.0262 6.67472 54.7989 6.75142C54.5745 6.82528 54.3926 6.9375 54.2534 7.08807C54.1171 7.2358 54.0489 7.4375 54.0489 7.69318C54.0489 8.04261 54.1782 8.30682 54.4367 8.4858C54.698 8.66193 55.029 8.75 55.4296 8.75ZM60.6047 9.56818C60.3945 9.56818 60.2141 9.4929 60.0635 9.34233C59.9129 9.19176 59.8377 9.01136 59.8377 8.80114C59.8377 8.59091 59.9129 8.41051 60.0635 8.25994C60.2141 8.10937 60.3945 8.03409 60.6047 8.03409C60.8149 8.03409 60.9953 8.10937 61.1459 8.25994C61.2965 8.41051 61.3717 8.59091 61.3717 8.80114C61.3717 8.94034 61.3362 9.06818 61.2652 9.18466C61.197 9.30114 61.1047 9.39489 60.9882 9.46591C60.8746 9.53409 60.7467 9.56818 60.6047 9.56818ZM65.8512 2.95455V3.80682H62.3228V2.95455H65.8512ZM63.3796 9.5V2.05114C63.3796 1.67614 63.4677 1.36364 63.6438 1.11364C63.82 0.863636 64.0487 0.676136 64.3299 0.551136C64.6112 0.426136 64.908 0.363636 65.2205 0.363636C65.4677 0.363636 65.6694 0.383522 65.8256 0.423295C65.9819 0.463068 66.0984 0.5 66.1751 0.534091L65.8853 1.40341C65.8342 1.38636 65.7631 1.36506 65.6722 1.33949C65.5842 1.31392 65.4677 1.30114 65.3228 1.30114C64.9904 1.30114 64.7504 1.38494 64.6026 1.55256C64.4577 1.72017 64.3853 1.96591 64.3853 2.28977V9.5H63.3796ZM67.0207 9.5V2.95455H68.0263V9.5H67.0207ZM67.532 1.86364C67.336 1.86364 67.167 1.79688 67.0249 1.66335C66.8857 1.52983 66.8161 1.36932 66.8161 1.18182C66.8161 0.994318 66.8857 0.833807 67.0249 0.700284C67.167 0.566761 67.336 0.5 67.532 0.5C67.728 0.5 67.8957 0.566761 68.0349 0.700284C68.1769 0.833807 68.2479 0.994318 68.2479 1.18182C68.2479 1.36932 68.1769 1.52983 68.0349 1.66335C67.8957 1.79688 67.728 1.86364 67.532 1.86364ZM69.6283 9.5V2.95455H70.5999V3.94318H70.6681C70.7874 3.61932 71.0033 3.35653 71.3158 3.15483C71.6283 2.95312 71.9806 2.85227 72.3726 2.85227C72.4465 2.85227 72.5388 2.85369 72.6496 2.85653C72.7604 2.85937 72.8442 2.86364 72.901 2.86932V3.89205C72.8669 3.88352 72.7888 3.87074 72.6667 3.85369C72.5473 3.83381 72.4209 3.82386 72.2874 3.82386C71.9692 3.82386 71.6851 3.89062 71.4351 4.02415C71.188 4.15483 70.9919 4.33665 70.8471 4.5696C70.705 4.79972 70.634 5.0625 70.634 5.35795V9.5H69.6283ZM76.3983 9.63636C75.7676 9.63636 75.2235 9.49716 74.7662 9.21875C74.3116 8.9375 73.9608 8.54545 73.7136 8.04261C73.4693 7.53693 73.3471 6.94886 73.3471 6.27841C73.3471 5.60795 73.4693 5.01705 73.7136 4.50568C73.9608 3.99148 74.3045 3.59091 74.7448 3.30398C75.188 3.0142 75.7051 2.86932 76.296 2.86932C76.6369 2.86932 76.9735 2.92614 77.3059 3.03977C77.6383 3.15341 77.9409 3.33807 78.2136 3.59375C78.4863 3.84659 78.7037 4.18182 78.8656 4.59943C79.0275 5.01705 79.1085 5.53125 79.1085 6.14205V6.56818H74.063V5.69886H78.0858C78.0858 5.32955 78.0119 5 77.8642 4.71023C77.7193 4.42045 77.5119 4.19176 77.242 4.02415C76.975 3.85653 76.6596 3.77273 76.296 3.77273C75.8954 3.77273 75.5488 3.87216 75.2562 4.07102C74.9664 4.26705 74.7434 4.52273 74.5872 4.83807C74.4309 5.15341 74.3528 5.49148 74.3528 5.85227V6.43182C74.3528 6.92614 74.438 7.34517 74.6085 7.68892C74.7818 8.02983 75.0218 8.28977 75.3287 8.46875C75.6355 8.64489 75.992 8.73295 76.3983 8.73295C76.6625 8.73295 76.9011 8.69602 77.1142 8.62216C77.3301 8.54545 77.5162 8.43182 77.6724 8.28125C77.8287 8.12784 77.9494 7.9375 78.0346 7.71023L79.0062 7.98295C78.9039 8.3125 78.7321 8.60227 78.4906 8.85227C78.2491 9.09943 77.9508 9.29261 77.5957 9.43182C77.2406 9.56818 76.8414 9.63636 76.3983 9.63636ZM83.3131 2.95455V3.80682H79.7847V2.95455H83.3131ZM80.8415 9.5V2.05114C80.8415 1.67614 80.9296 1.36364 81.1057 1.11364C81.2818 0.863636 81.5105 0.676136 81.7918 0.551136C82.073 0.426136 82.3699 0.363636 82.6824 0.363636C82.9296 0.363636 83.1313 0.383522 83.2875 0.423295C83.4438 0.463068 83.5602 0.5 83.637 0.534091L83.3472 1.40341C83.296 1.38636 83.225 1.36506 83.1341 1.33949C83.046 1.31392 82.9296 1.30114 82.7847 1.30114C82.4523 1.30114 82.2122 1.38494 82.0645 1.55256C81.9196 1.72017 81.8472 1.96591 81.8472 2.28977V9.5H80.8415ZM86.8721 9.63636C86.2812 9.63636 85.7627 9.49574 85.3167 9.21449C84.8735 8.93324 84.5269 8.53977 84.2769 8.03409C84.0298 7.52841 83.9062 6.9375 83.9062 6.26136C83.9062 5.57955 84.0298 4.98437 84.2769 4.47585C84.5269 3.96733 84.8735 3.57244 85.3167 3.29119C85.7627 3.00994 86.2812 2.86932 86.8721 2.86932C87.463 2.86932 87.98 3.00994 88.4232 3.29119C88.8692 3.57244 89.2158 3.96733 89.463 4.47585C89.713 4.98437 89.838 5.57955 89.838 6.26136C89.838 6.9375 89.713 7.52841 89.463 8.03409C89.2158 8.53977 88.8692 8.93324 88.4232 9.21449C87.98 9.49574 87.463 9.63636 86.8721 9.63636ZM86.8721 8.73295C87.321 8.73295 87.6903 8.6179 87.98 8.38778C88.2698 8.15767 88.4843 7.85511 88.6235 7.48011C88.7627 7.10511 88.8323 6.69886 88.8323 6.26136C88.8323 5.82386 88.7627 5.41619 88.6235 5.03835C88.4843 4.66051 88.2698 4.35511 87.98 4.12216C87.6903 3.8892 87.321 3.77273 86.8721 3.77273C86.4232 3.77273 86.0539 3.8892 85.7641 4.12216C85.4744 4.35511 85.2599 4.66051 85.1207 5.03835C84.9815 5.41619 84.9119 5.82386 84.9119 6.26136C84.9119 6.69886 84.9815 7.10511 85.1207 7.48011C85.2599 7.85511 85.4744 8.15767 85.7641 8.38778C86.0539 8.6179 86.4232 8.73295 86.8721 8.73295ZM91.6136 2.95455L93.1818 5.63068L94.75 2.95455H95.9091L93.7954 6.22727L95.9091 9.5H94.75L93.1818 6.96023L91.6136 9.5H90.4545L92.5341 6.22727L90.4545 2.95455H91.6136Z" fill="black"/>
</svg>
