<svg width="512" height="512" viewBox="0 0 512 512" fill="none" xmlns="http://www.w3.org/2000/svg">
<g clip-path="url(#clip0_1_20)">
<rect width="512" height="512" rx="130" fill="url(#paint0_linear_1_20)"/>
<g filter="url(#filter0_d_1_20)">
<g filter="url(#filter1_i_1_20)">
<path d="M431 237.72C431 209.024 431 194.676 425.063 183.876C420.675 175.894 414.106 169.325 406.124 164.937C395.324 159 380.976 159 352.28 159H253.52C227.813 159 214.959 159 205.285 164.319C198.134 168.25 192.25 174.134 188.319 181.285C183 190.959 183 203.813 183 229.52V292.464C183 318.171 183 331.025 188.319 340.699C192.25 347.85 198.134 353.734 205.285 357.665C214.959 362.984 227.813 362.984 253.52 362.984H319.722C326.857 362.984 330.424 362.984 333.898 363.557C336.499 363.985 339.055 364.652 341.534 365.549C344.845 366.747 347.957 368.49 354.182 371.977L387.055 390.388C402.109 398.819 409.637 403.035 415.788 402.071C420.282 401.366 424.342 398.986 427.153 395.41C431 390.514 431 381.887 431 364.632V237.72Z" fill="#00FF66"/>
</g>
<g filter="url(#filter2_di_1_20)">
<path d="M82 175.72C82 147.024 82 132.676 87.9373 121.876C92.3254 113.894 98.8939 107.325 106.876 102.937C117.676 97 132.024 97 160.72 97H259.48C285.187 97 298.041 97 307.715 102.319C314.866 106.25 320.75 112.134 324.681 119.285C330 128.959 330 141.813 330 167.52V230.464C330 256.171 330 269.025 324.681 278.699C320.75 285.85 314.866 291.734 307.715 295.665C298.041 300.984 285.187 300.984 259.48 300.984H193.278C186.143 300.984 182.576 300.984 179.102 301.557C176.501 301.985 173.945 302.652 171.466 303.549C168.155 304.747 165.043 306.49 158.818 309.977L125.945 328.388C110.891 336.819 103.363 341.035 97.2125 340.071C92.7183 339.366 88.6576 336.986 85.8469 333.41C82 328.514 82 319.887 82 302.632V175.72Z" fill="#0066FF"/>
</g>
</g>
</g>
<defs>
<filter id="filter0_d_1_20" x="31.1" y="71.1" width="484.8" height="441.006" filterUnits="userSpaceOnUse" color-interpolation-filters="sRGB">
<feFlood flood-opacity="0" result="BackgroundImageFix"/>
<feColorMatrix in="SourceAlpha" type="matrix" values="0 0 0 0 0 0 0 0 0 0 0 0 0 0 0 0 0 0 127 0" result="hardAlpha"/>
<feOffset dx="17" dy="42"/>
<feGaussianBlur stdDeviation="33.95"/>
<feComposite in2="hardAlpha" operator="out"/>
<feColorMatrix type="matrix" values="0 0 0 0 0 0 0 0 0 0 0 0 0 0 0 0 0 0 0.15 0"/>
<feBlend mode="normal" in2="BackgroundImageFix" result="effect1_dropShadow_1_20"/>
<feBlend mode="normal" in="SourceGraphic" in2="effect1_dropShadow_1_20" result="shape"/>
</filter>
<filter id="filter1_i_1_20" x="183" y="159" width="263" height="259.206" filterUnits="userSpaceOnUse" color-interpolation-filters="sRGB">
<feFlood flood-opacity="0" result="BackgroundImageFix"/>
<feBlend mode="normal" in="SourceGraphic" in2="BackgroundImageFix" result="shape"/>
<feColorMatrix in="SourceAlpha" type="matrix" values="0 0 0 0 0 0 0 0 0 0 0 0 0 0 0 0 0 0 127 0" result="hardAlpha"/>
<feOffset dx="15" dy="16"/>
<feGaussianBlur stdDeviation="17.5"/>
<feComposite in2="hardAlpha" operator="arithmetic" k2="-1" k3="1"/>
<feColorMatrix type="matrix" values="0 0 0 0 1 0 0 0 0 1 0 0 0 0 1 0 0 0 1 0"/>
<feBlend mode="normal" in2="shape" result="effect1_innerShadow_1_20"/>
</filter>
<filter id="filter2_di_1_20" x="49" y="63" width="346" height="341.206" filterUnits="userSpaceOnUse" color-interpolation-filters="sRGB">
<feFlood flood-opacity="0" result="BackgroundImageFix"/>
<feColorMatrix in="SourceAlpha" type="matrix" values="0 0 0 0 0 0 0 0 0 0 0 0 0 0 0 0 0 0 127 0" result="hardAlpha"/>
<feOffset dx="16" dy="15"/>
<feGaussianBlur stdDeviation="24.5"/>
<feComposite in2="hardAlpha" operator="out"/>
<feColorMatrix type="matrix" values="0 0 0 0 0 0 0 0 0 0 0 0 0 0 0 0 0 0 0.13 0"/>
<feBlend mode="normal" in2="BackgroundImageFix" result="effect1_dropShadow_1_20"/>
<feBlend mode="normal" in="SourceGraphic" in2="effect1_dropShadow_1_20" result="shape"/>
<feColorMatrix in="SourceAlpha" type="matrix" values="0 0 0 0 0 0 0 0 0 0 0 0 0 0 0 0 0 0 127 0" result="hardAlpha"/>
<feOffset dx="-1" dy="10"/>
<feGaussianBlur stdDeviation="17.65"/>
<feComposite in2="hardAlpha" operator="arithmetic" k2="-1" k3="1"/>
<feColorMatrix type="matrix" values="0 0 0 0 1 0 0 0 0 1 0 0 0 0 1 0 0 0 1 0"/>
<feBlend mode="normal" in2="shape" result="effect2_innerShadow_1_20"/>
</filter>
<linearGradient id="paint0_linear_1_20" x1="256" y1="0" x2="482.5" y2="550.5" gradientUnits="userSpaceOnUse">
<stop stop-color="white"/>
<stop offset="1" stop-color="#EBEBEB"/>
</linearGradient>
<clipPath id="clip0_1_20">
<rect width="512" height="512" rx="130" fill="white"/>
</clipPath>
</defs>
</svg>
