<svg width="512" height="512" viewBox="0 0 512 512" fill="none" xmlns="http://www.w3.org/2000/svg">
<rect width="512" height="512" rx="130" fill="url(#paint0_linear_1_76)"/>
<path d="M367.955 282.434C367.955 360.066 303.27 423 223.477 423C143.685 423 79 360.066 79 282.434C79 204.802 143.685 141.869 223.477 141.869C303.27 141.869 367.955 204.802 367.955 282.434ZM162.721 282.434C162.721 315.08 189.923 341.545 223.477 341.545C257.032 341.545 284.233 315.08 284.233 282.434C284.233 249.788 257.032 223.323 223.477 223.323C189.923 223.323 162.721 249.788 162.721 282.434Z" fill="white"/>
<rect width="110.172" height="89.378" rx="19" transform="matrix(0.986124 -0.166013 0.18763 0.98224 307.939 108.29)" fill="#FFE5E7"/>
<path d="M281.595 123.742C281.595 117.389 286.186 111.967 292.451 110.92L367.529 98.3659L367.529 277.024L281.595 216.857L281.595 123.742Z" fill="white"/>
<defs>
<linearGradient id="paint0_linear_1_76" x1="317" y1="336" x2="-84" y2="-190" gradientUnits="userSpaceOnUse">
<stop stop-color="#FF4959"/>
<stop offset="0.9999" stop-color="#FF8486"/>
<stop offset="1" stop-color="#FF3737"/>
</linearGradient>
</defs>
</svg>
