<svg width="512" height="512" viewBox="0 0 512 512" fill="none" xmlns="http://www.w3.org/2000/svg">
<g clip-path="url(#clip0_1_26)">
<rect width="512" height="512" rx="130" fill="#1EAEFE"/>
<g filter="url(#filter0_di_1_26)">
<path d="M276.5 132C276.5 120.678 267.322 111.5 256 111.5C244.678 111.5 235.5 120.678 235.5 132H276.5ZM241.504 394.496C249.51 402.501 262.49 402.501 270.496 394.496L400.957 264.034C408.963 256.029 408.963 243.049 400.957 235.043C392.951 227.037 379.971 227.037 371.966 235.043L256 351.009L140.034 235.043C132.029 227.037 119.049 227.037 111.043 235.043C103.037 243.049 103.037 256.029 111.043 264.034L241.504 394.496ZM235.5 132L235.5 380H276.5L276.5 132H235.5Z" fill="#C1E9FF"/>
</g>
</g>
<defs>
<filter id="filter0_di_1_26" x="51.7388" y="100.5" width="434.522" height="429.3" filterUnits="userSpaceOnUse" color-interpolation-filters="sRGB">
<feFlood flood-opacity="0" result="BackgroundImageFix"/>
<feColorMatrix in="SourceAlpha" type="matrix" values="0 0 0 0 0 0 0 0 0 0 0 0 0 0 0 0 0 0 127 0" result="hardAlpha"/>
<feOffset dx="13" dy="63"/>
<feGaussianBlur stdDeviation="33.15"/>
<feComposite in2="hardAlpha" operator="out"/>
<feColorMatrix type="matrix" values="0 0 0 0 0 0 0 0 0 0 0 0 0 0 0 0 0 0 0.14 0"/>
<feBlend mode="normal" in2="BackgroundImageFix" result="effect1_dropShadow_1_26"/>
<feBlend mode="normal" in="SourceGraphic" in2="effect1_dropShadow_1_26" result="shape"/>
<feColorMatrix in="SourceAlpha" type="matrix" values="0 0 0 0 0 0 0 0 0 0 0 0 0 0 0 0 0 0 127 0" result="hardAlpha"/>
<feOffset dy="-11"/>
<feGaussianBlur stdDeviation="9.75"/>
<feComposite in2="hardAlpha" operator="arithmetic" k2="-1" k3="1"/>
<feColorMatrix type="matrix" values="0 0 0 0 0.117647 0 0 0 0 0.682353 0 0 0 0 0.996078 0 0 0 1 0"/>
<feBlend mode="normal" in2="shape" result="effect2_innerShadow_1_26"/>
</filter>
<clipPath id="clip0_1_26">
<rect width="512" height="512" rx="130" fill="white"/>
</clipPath>
</defs>
</svg>
