<svg width="512" height="512" viewBox="0 0 512 512" fill="none" xmlns="http://www.w3.org/2000/svg">
<rect width="512" height="512" rx="130" fill="white" fill-opacity="0.59"/>
<g clip-path="url(#clip0_1_104)">
<mask id="mask0_1_104" style="mask-type:luminance" maskUnits="userSpaceOnUse" x="63" y="63" width="180" height="180">
<path d="M197.297 63H108.703C83.462 63 63 83.462 63 108.703V197.297C63 222.538 83.462 243 108.703 243H197.297C222.538 243 243 222.538 243 197.297V108.703C243 83.462 222.538 63 197.297 63Z" fill="white"/>
</mask>
<g mask="url(#mask0_1_104)">
<path d="M197.297 63H108.703C83.462 63 63 83.462 63 108.703V197.297C63 222.538 83.462 243 108.703 243H197.297C222.538 243 243 222.538 243 197.297V108.703C243 83.462 222.538 63 197.297 63Z" fill="url(#paint0_linear_1_104)"/>
<path d="M91.4654 152.055C96.7317 147.541 104.503 147.541 109.769 152.055L153.52 189.556C160.707 195.716 156.35 207.492 146.885 207.492H54.3496C44.8842 207.492 40.528 195.716 47.7146 189.556L91.4654 152.055Z" fill="url(#paint1_linear_1_104)"/>
<path d="M102.857 193.978L181.071 133.65C188.063 128.257 197.794 128.193 204.856 133.493L243.533 162.518C245.411 163.927 246.516 166.138 246.516 168.485L244.909 254.25H43.3125V186.541L93.1401 150.782L88.4688 154.702L77.3743 164.304L70.1808 171.284C68.87 172.556 67.6709 173.938 66.5969 175.416L65.0739 177.511C63.5664 179.584 62.4913 181.94 61.9127 184.438L61.6361 185.632C60.8235 189.14 61.2439 192.82 62.8264 196.055L62.9258 196.258C64.149 198.758 66.0488 200.864 68.4094 202.338C70.7729 203.814 73.5034 204.597 76.2898 204.597H78.1096C80.8548 204.597 83.5739 204.064 86.1163 203.029L89.5492 201.631C94.3102 199.692 98.787 197.118 102.857 193.978Z" fill="#E3F4FF"/>
<path d="M123.82 112.395C123.82 103.366 116.501 96.0469 107.473 96.0469C98.4441 96.0469 91.125 103.366 91.125 112.395C91.125 121.423 98.4441 128.742 107.473 128.742C116.501 128.742 123.82 121.423 123.82 112.395Z" fill="white"/>
</g>
</g>
<g clip-path="url(#clip1_1_104)">
<path d="M197.297 270H108.703C83.462 270 63 290.462 63 315.703V404.297C63 429.538 83.462 450 108.703 450H197.297C222.538 450 243 429.538 243 404.297V315.703C243 290.462 222.538 270 197.297 270Z" fill="url(#paint2_linear_1_104)"/>
<path d="M186.223 374.062C203.6 374.062 217.688 359.975 217.688 342.598C217.688 325.22 203.6 311.133 186.223 311.133C168.845 311.133 154.758 325.22 154.758 342.598C154.758 359.975 168.845 374.062 186.223 374.062Z" fill="#FF6107"/>
<g filter="url(#filter0_i_1_104)">
<path d="M87.9609 369.047C87.9609 388.422 102.551 401.948 121.887 404.129C142.623 407.502 163.755 407.672 184.543 404.632L187.98 404.129C203.977 402.311 216.281 391.026 216.281 374.863C216.281 358.701 202.631 345.598 187.001 345.598C185.655 327.497 171.025 313.242 153.176 313.242C139.387 313.242 127.519 321.749 122.213 333.964H122.238C103.502 333.964 87.9609 349.671 87.9609 369.047Z" fill="url(#paint3_linear_1_104)"/>
</g>
</g>
<g clip-path="url(#clip2_1_104)">
<path d="M404.297 270H315.703C290.462 270 270 290.462 270 315.703V404.297C270 429.538 290.462 450 315.703 450H404.297C429.538 450 450 429.538 450 404.297V315.703C450 290.462 429.538 270 404.297 270Z" fill="#A5ADB6"/>
<path d="M342.495 309.919C347.288 301.973 349.684 298 352.512 296.221C357.089 293.342 362.911 293.342 367.488 296.221C370.316 298 372.713 301.973 377.506 309.919C379.275 312.853 380.16 314.319 381.287 315.478C383.1 317.341 385.394 318.665 387.914 319.304C389.481 319.7 391.193 319.733 394.619 319.799C403.897 319.977 408.536 320.066 411.491 321.626C416.272 324.15 419.183 329.192 418.978 334.595C418.852 337.933 416.609 341.995 412.124 350.12C410.469 353.119 409.641 354.619 409.201 356.174C408.494 358.676 408.494 361.324 409.201 363.826C409.641 365.381 410.469 366.881 412.124 369.88C416.609 378.005 418.852 382.067 418.978 385.405C419.183 390.808 416.272 395.85 411.491 398.374C408.536 399.934 403.897 400.023 394.619 400.201C391.193 400.267 389.481 400.3 387.914 400.696C385.394 401.335 383.1 402.659 381.287 404.522C380.16 405.681 379.275 407.147 377.506 410.081C372.713 418.027 370.316 422 367.488 423.779C362.911 426.658 357.089 426.658 352.512 423.779C349.684 422 347.288 418.027 342.495 410.081C340.725 407.147 339.84 405.681 338.713 404.522C336.9 402.659 334.606 401.335 332.087 400.696C330.519 400.3 328.807 400.267 325.381 400.201C316.103 400.023 311.464 399.934 308.51 398.374C303.728 395.85 300.817 390.808 301.022 385.405C301.148 382.067 303.391 378.005 307.876 369.88C309.531 366.881 310.359 365.381 310.799 363.826C311.507 361.324 311.507 358.676 310.799 356.174C310.359 354.619 309.531 353.119 307.876 350.12C303.391 341.995 301.148 337.933 301.022 334.595C300.817 329.192 303.728 324.15 308.51 321.626C311.464 320.066 316.103 319.977 325.381 319.799C328.807 319.733 330.519 319.7 332.087 319.304C334.606 318.665 336.9 317.341 338.713 315.478C339.84 314.319 340.725 312.853 342.495 309.919Z" fill="#ECF5FF"/>
<path d="M387.592 359.997C387.592 344.757 375.237 332.402 359.997 332.402C344.757 332.402 332.402 344.757 332.402 359.997C332.402 375.237 344.757 387.592 359.997 387.592C375.237 387.592 387.592 375.237 387.592 359.997Z" stroke="#A5ADB6" stroke-width="8"/>
</g>
<g clip-path="url(#clip3_1_104)">
<path d="M404.297 63H315.703C290.462 63 270 83.462 270 108.703V197.297C270 222.538 290.462 243 315.703 243H404.297C429.538 243 450 222.538 450 197.297V108.703C450 83.462 429.538 63 404.297 63Z" fill="white"/>
<g filter="url(#filter1_i_1_104)">
<path d="M420.82 151.144C420.82 141.055 420.82 136.011 418.733 132.214C417.19 129.408 414.881 127.099 412.075 125.556C408.278 123.469 403.234 123.469 393.145 123.469H358.777C349.739 123.469 345.22 123.469 341.819 125.339C339.305 126.721 337.236 128.789 335.854 131.303C333.984 134.704 333.984 139.223 333.984 148.261V168.989C333.984 178.027 333.984 182.546 335.854 185.947C337.236 188.461 339.305 190.529 341.819 191.911C345.22 193.781 349.739 193.781 358.777 193.781H381.919C384.394 193.781 385.631 193.781 386.837 193.977C387.739 194.124 388.627 194.353 389.488 194.66C390.639 195.07 391.722 195.668 393.889 196.863L405.431 203.226C410.708 206.136 413.347 207.591 415.5 207.243C417.074 206.989 418.494 206.151 419.476 204.895C420.82 203.177 420.82 200.164 420.82 194.138V151.144Z" fill="#0FF66C"/>
</g>
<g filter="url(#filter2_i_1_104)">
<path d="M299.18 130.753C299.18 120.665 299.18 115.62 301.267 111.824C302.81 109.017 305.119 106.708 307.925 105.165C311.722 103.078 316.766 103.078 326.855 103.078H361.223C370.261 103.078 374.78 103.078 378.181 104.948C380.695 106.33 382.764 108.399 384.146 110.913C386.016 114.314 386.016 118.833 386.016 127.87V148.598C386.016 157.636 386.016 162.155 384.146 165.556C382.764 168.07 380.695 170.139 378.181 171.521C374.78 173.391 370.261 173.391 361.223 173.391H338.081C335.606 173.391 334.369 173.391 333.163 173.587C332.261 173.733 331.373 173.962 330.512 174.27C329.361 174.68 328.278 175.277 326.111 176.472L314.569 182.836C309.292 185.745 306.653 187.2 304.5 186.852C302.926 186.598 301.506 185.76 300.524 184.504C299.18 182.786 299.18 179.773 299.18 173.747V130.753Z" fill="#0066FF"/>
</g>
</g>
<defs>
<filter id="filter0_i_1_104" x="87.9609" y="313.242" width="165.32" height="94.5498" filterUnits="userSpaceOnUse" color-interpolation-filters="sRGB">
<feFlood flood-opacity="0" result="BackgroundImageFix"/>
<feBlend mode="normal" in="SourceGraphic" in2="BackgroundImageFix" result="shape"/>
<feColorMatrix in="SourceAlpha" type="matrix" values="0 0 0 0 0 0 0 0 0 0 0 0 0 0 0 0 0 0 127 0" result="hardAlpha"/>
<feOffset dx="37" dy="1"/>
<feGaussianBlur stdDeviation="41"/>
<feComposite in2="hardAlpha" operator="arithmetic" k2="-1" k3="1"/>
<feColorMatrix type="matrix" values="0 0 0 0 1 0 0 0 0 1 0 0 0 0 1 0 0 0 1 0"/>
<feBlend mode="normal" in2="shape" result="effect1_innerShadow_1_104"/>
</filter>
<filter id="filter1_i_1_104" x="332.984" y="123.469" width="87.8359" height="88.8248" filterUnits="userSpaceOnUse" color-interpolation-filters="sRGB">
<feFlood flood-opacity="0" result="BackgroundImageFix"/>
<feBlend mode="normal" in="SourceGraphic" in2="BackgroundImageFix" result="shape"/>
<feColorMatrix in="SourceAlpha" type="matrix" values="0 0 0 0 0 0 0 0 0 0 0 0 0 0 0 0 0 0 127 0" result="hardAlpha"/>
<feOffset dx="-1" dy="5"/>
<feGaussianBlur stdDeviation="5.65"/>
<feComposite in2="hardAlpha" operator="arithmetic" k2="-1" k3="1"/>
<feColorMatrix type="matrix" values="0 0 0 0 1 0 0 0 0 1 0 0 0 0 1 0 0 0 1 0"/>
<feBlend mode="normal" in2="shape" result="effect1_innerShadow_1_104"/>
</filter>
<filter id="filter2_i_1_104" x="298.18" y="103.078" width="87.8359" height="88.8248" filterUnits="userSpaceOnUse" color-interpolation-filters="sRGB">
<feFlood flood-opacity="0" result="BackgroundImageFix"/>
<feBlend mode="normal" in="SourceGraphic" in2="BackgroundImageFix" result="shape"/>
<feColorMatrix in="SourceAlpha" type="matrix" values="0 0 0 0 0 0 0 0 0 0 0 0 0 0 0 0 0 0 127 0" result="hardAlpha"/>
<feOffset dx="-1" dy="5"/>
<feGaussianBlur stdDeviation="6.65"/>
<feComposite in2="hardAlpha" operator="arithmetic" k2="-1" k3="1"/>
<feColorMatrix type="matrix" values="0 0 0 0 1 0 0 0 0 1 0 0 0 0 1 0 0 0 1 0"/>
<feBlend mode="normal" in2="shape" result="effect1_innerShadow_1_104"/>
</filter>
<linearGradient id="paint0_linear_1_104" x1="153" y1="63" x2="243" y2="182.18" gradientUnits="userSpaceOnUse">
<stop stop-color="#00A4FF"/>
<stop offset="1" stop-color="#8ED7FF"/>
</linearGradient>
<linearGradient id="paint1_linear_1_104" x1="79.1719" y1="144.211" x2="121.032" y2="184.351" gradientUnits="userSpaceOnUse">
<stop stop-color="#E0F4FF"/>
<stop offset="0.987349" stop-color="#ACDAFC" stop-opacity="0.9"/>
</linearGradient>
<linearGradient id="paint2_linear_1_104" x1="153" y1="270" x2="153" y2="450" gradientUnits="userSpaceOnUse">
<stop stop-color="#00A0FB"/>
<stop offset="1" stop-color="#00A0FB"/>
</linearGradient>
<linearGradient id="paint3_linear_1_104" x1="163.02" y1="355.05" x2="265.649" y2="553.612" gradientUnits="userSpaceOnUse">
<stop stop-color="#D9F1FF"/>
<stop offset="1" stop-color="#00A0FB"/>
</linearGradient>
<clipPath id="clip0_1_104">
<rect width="180" height="180" fill="white" transform="translate(63 63)"/>
</clipPath>
<clipPath id="clip1_1_104">
<rect width="180" height="180" fill="white" transform="translate(63 270)"/>
</clipPath>
<clipPath id="clip2_1_104">
<rect width="180" height="180" fill="white" transform="translate(270 270)"/>
</clipPath>
<clipPath id="clip3_1_104">
<rect width="180" height="180" fill="white" transform="translate(270 63)"/>
</clipPath>
</defs>
</svg>
