<svg width="512" height="512" viewBox="0 0 512 512" fill="none" xmlns="http://www.w3.org/2000/svg">
<rect width="512" height="512" rx="130" fill="url(#paint0_linear_1_215)"/>
<rect x="74" y="83" width="168.456" height="162.775" rx="39" fill="white"/>
<rect x="83" y="92" width="150.456" height="144.775" rx="30" stroke="white" stroke-opacity="0.54" stroke-width="18"/>
<rect x="74" y="266.225" width="364" height="162.775" rx="39" fill="white"/>
<rect x="83" y="275.225" width="346" height="144.775" rx="30" stroke="white" stroke-opacity="0.54" stroke-width="18"/>
<rect x="269.544" y="83" width="168.456" height="162.775" rx="39" fill="white"/>
<rect x="278.544" y="92" width="150.456" height="144.775" rx="30" stroke="white" stroke-opacity="0.54" stroke-width="18"/>
<rect x="93" y="294" width="77" height="29" rx="7" fill="#93B7FF"/>
<rect x="342" y="105" width="14" height="72" rx="7" fill="#A5A2FF"/>
<rect x="342" y="177" width="14" height="58" rx="7" transform="rotate(-90 342 177)" fill="#A5A2FF"/>
<rect x="86" y="130" width="35" height="12" rx="6" fill="#A5A2FF"/>
<rect x="128" y="130" width="35" height="12" rx="6" fill="#A5A2FF"/>
<rect x="164" y="115" width="12" height="12" rx="6" fill="#A5A2FF"/>
<rect x="93" y="333" width="47" height="29" rx="7" fill="#90BBFF"/>
<g filter="url(#filter0_d_1_215)">
<path d="M149 208.142C149 219.649 157.414 227.682 168.564 228.977C180.518 230.98 192.714 231.08 204.699 229.275L206.679 228.977C215.904 227.898 223 221.196 223 211.597C223 201.998 215.128 194.216 206.114 194.216C205.338 183.466 196.902 175 186.608 175C178.656 175 171.813 180.052 168.753 187.307H168.767C157.962 187.307 149 196.635 149 208.142Z" fill="#9BA8FB"/>
</g>
<defs>
<filter id="filter0_d_1_215" x="62.2" y="106.2" width="261.6" height="243.158" filterUnits="userSpaceOnUse" color-interpolation-filters="sRGB">
<feFlood flood-opacity="0" result="BackgroundImageFix"/>
<feColorMatrix in="SourceAlpha" type="matrix" values="0 0 0 0 0 0 0 0 0 0 0 0 0 0 0 0 0 0 127 0" result="hardAlpha"/>
<feOffset dx="7" dy="25"/>
<feGaussianBlur stdDeviation="46.9"/>
<feComposite in2="hardAlpha" operator="out"/>
<feColorMatrix type="matrix" values="0 0 0 0 0 0 0 0 0 0 0 0 0 0 0 0 0 0 0.13 0"/>
<feBlend mode="normal" in2="BackgroundImageFix" result="effect1_dropShadow_1_215"/>
<feBlend mode="normal" in="SourceGraphic" in2="effect1_dropShadow_1_215" result="shape"/>
</filter>
<linearGradient id="paint0_linear_1_215" x1="291" y1="-157" x2="294" y2="548" gradientUnits="userSpaceOnUse">
<stop stop-color="#C082FF"/>
<stop offset="1" stop-color="#7DD1FF"/>
</linearGradient>
</defs>
</svg>
